<?xml version="1.0" standalone="no"?>
<!DOCTYPE svg PUBLIC "-//W3C//DTD SVG 1.1//EN" "http://www.w3.org/Graphics/SVG/1.1/DTD/svg11.dtd" >
<svg xmlns="http://www.w3.org/2000/svg" xmlns:xlink="http://www.w3.org/1999/xlink" version="1.1">
<metadata>
Created by FontForge 20161003 at Fri Dec 27 13:45:16 2019
 By www-data
Copyright (c) 2012 Huerta Tipografia
</metadata>
<defs>
<font id="caladeabold" horiz-adv-x="592" >
  <font-face 
    font-family="caladeabold"
    font-weight="700"
    font-stretch="normal"
    units-per-em="1000"
    panose-1="2 4 5 3 5 4 6 3 2 4"
    ascent="778"
    descent="-222"
    x-height="484"
    cap-height="667"
    bbox="-135 -220 1306 945"
    underline-thickness="76"
    underline-position="-165"
    unicode-range="U+0020-FB02"
  />
<missing-glyph horiz-adv-x="220" 
 />
    <glyph glyph-name=".notdef" horiz-adv-x="220" 
 />
    <glyph glyph-name=".null" horiz-adv-x="0" 
 />
    <glyph glyph-name="nonmarkingreturn" horiz-adv-x="333" 
 />
    <glyph glyph-name="space" unicode=" " horiz-adv-x="220" 
 />
    <glyph glyph-name="exclam" unicode="!" horiz-adv-x="335" 
d="M122 405q0 157 -27 250q6 13 24.5 24t43.5 11q51 0 71.5 -22t20.5 -60t-25 -179.5t-30 -206.5l-85 -16q7 178 7 199zM75 61q0 70 79.5 70t79.5 -70t-79.5 -70t-79.5 70z" />
    <glyph glyph-name="quotedbl" unicode="&#x22;" horiz-adv-x="422" 
d="M98 460q-28 156 -28 185t15 43.5t38.5 14.5t39 -14.5t15.5 -34.5q0 -34 -21 -154l-7 -40h-52zM272 460q-28 156 -28 185t15 43.5t38.5 14.5t39 -14.5t15.5 -34.5q0 -34 -21 -154l-7 -40h-52z" />
    <glyph glyph-name="numbersign" unicode="#" horiz-adv-x="618" 
d="M84 346l12 80h100l35 162l78 -18l-32 -144h110l35 162l78 -18l-32 -144h117l-12 -80h-122l-24 -109h106l-12 -80h-111l-38 -175l-78 18l34 157h-109l-38 -175l-78 18l34 157h-105l12 80h110l24 109h-94zM260 346l-24 -109h109l24 109h-109z" />
    <glyph glyph-name="dollar" unicode="$" horiz-adv-x="543" 
d="M70 150q0 31 19.5 50.5t53 19.5t49.5 -29q-8 -21 -8 -44t20 -41.5t53 -23.5v206q-97 36 -136.5 76.5t-39.5 106t49 110t127 52.5v102l14 8l46 -6v-104q70 -6 117 -38t47 -75q0 -29 -15.5 -47t-45.5 -18t-63 27q22 25 22 48q0 45 -62 56v-183q93 -43 132 -87t39 -113.5
t-46 -114t-125 -53.5v-97l-10 -11l-50 9v97q-187 8 -187 117zM199 517q0 -29 13 -49t45 -38v154q-58 -16 -58 -67zM317 89q46 21 46 75t-46 90v-165z" />
    <glyph glyph-name="percent" unicode="%" horiz-adv-x="976" 
d="M227 296q32 0 46.5 38.5t14.5 127.5t-14.5 128t-46.5 39t-46 -38.5t-14 -128.5t14 -128t46 -38zM227 253q-80 0 -122.5 54t-42.5 154.5t42.5 154t122.5 53.5t122.5 -53.5t42.5 -154t-42.5 -154.5t-122.5 -54zM749 33q32 0 46.5 38.5t14.5 127.5t-14.5 128t-46.5 39
t-46 -38.5t-14 -128.5t14 -128t46 -38zM749 -10q-80 0 -122.5 54t-42.5 154.5t42.5 154t122.5 53.5t122.5 -53.5t42.5 -154t-42.5 -154.5t-122.5 -54zM360 -30l-66 32l321 682l66 -32z" />
    <glyph glyph-name="ampersand" unicode="&#x26;" horiz-adv-x="740" 
d="M32 196q0 144 134 190q-85 38 -85 132q0 81 64.5 125t156.5 44q102 0 164 -49q37 -28 37 -66.5t-23.5 -65t-58 -26.5t-59.5 24q16 29 16 56.5t-19.5 45t-54.5 17.5t-55 -26t-20 -68.5t19.5 -71.5t63.5 -30v-83q-60 -9 -96.5 -47.5t-36.5 -105t42 -105.5t104 -39
q96 0 145.5 61t49.5 153q0 59 -20 117q-37 -3 -37 -46q0 -26 15 -44q-27 -19 -60 -19t-52.5 19.5t-19.5 50.5q0 104 175 104q49 0 70 10.5t21 35t-19 41.5q25 19 59.5 19t54 -17t19.5 -44q0 -80 -124 -98q18 -58 18 -115q0 -121 -78 -201t-226 -80q-118 0 -201 54t-83 148z
" />
    <glyph glyph-name="quotesingle" unicode="'" horiz-adv-x="251" 
d="M98 460q-28 156 -28 185t15 43.5t38.5 14.5t39 -14.5t15.5 -34.5q0 -34 -21 -154l-7 -40h-52z" />
    <glyph glyph-name="parenleft" unicode="(" horiz-adv-x="408" 
d="M93 282q0 84 27 161t66 127q80 105 141 143l27 17l25 -25q-169 -162 -169 -422t169 -422l-25 -26q-33 18 -84.5 65.5t-86 95t-62.5 125t-28 161.5z" />
    <glyph glyph-name="parenright" unicode=")" horiz-adv-x="408" 
d="M198 283q0 260 -169 422l25 25q88 -53 158 -146q103 -137 103 -302q0 -121 -52 -220q-47 -89 -107 -145q-56 -54 -88 -73l-14 -9l-25 26q169 162 169 422z" />
    <glyph glyph-name="asterisk" unicode="*" horiz-adv-x="453" 
d="M192 408q-13 -19 -30 -19t-28 10.5t-11 25.5t10 24.5t30.5 24.5t35.5 38q-28 -3 -56.5 -15.5t-41 -12.5t-22.5 10.5t-10 26.5t10 26t22.5 10t41 -13t57.5 -16q-15 21 -35.5 36.5t-31 26t-10.5 25t11 25t30 10.5t25 -12.5t10 -44t15 -56.5q16 34 20 82q2 31 34 31
q16 0 26.5 -10.5t10.5 -28t-30 -39.5t-46 -44q26 3 55.5 15.5t42 12.5t23 -10t10.5 -26t-10.5 -26.5t-23.5 -10.5t-42.5 12.5t-55.5 15.5q16 -22 36.5 -37t30.5 -24.5t10 -25t-11 -26t-30.5 -10.5t-24.5 11t-8 43t-17 61q-12 -27 -15 -58t-7 -38z" />
    <glyph glyph-name="plus" unicode="+" 
d="M91 238v95h153v157h100v-157h156v-95h-156v-156h-100v156h-153z" />
    <glyph glyph-name="comma" unicode="," horiz-adv-x="232" 
d="M57 23q-22 21 -22 49.5t19.5 48t55 19.5t56.5 -23.5t21 -63.5q0 -121 -125 -193l-28 35q31 23 50 51.5t19 55t-26 26.5q-8 0 -20 -5z" />
    <glyph glyph-name="hyphen" unicode="-" horiz-adv-x="337" 
d="M53 219v95h231v-95h-231z" />
    <glyph glyph-name="period" unicode="." horiz-adv-x="232" 
d="M117 149q70 0 70 -76.5t-70 -76.5q-35 0 -52.5 20.5t-17.5 55.5q0 77 70 77z" />
    <glyph glyph-name="slash" unicode="/" horiz-adv-x="505" 
d="M141 -140l-74 28l310 812l74 -28z" />
    <glyph glyph-name="zero" unicode="0" 
d="M296 48q51 0 73.5 66.5t22.5 221.5t-22.5 222.5t-73.5 67.5t-73.5 -67t-22.5 -222.5t22.5 -222t73.5 -66.5zM296 -7q-117 0 -180 88.5t-63 254t63 253.5t180 88t179.5 -87.5t62.5 -253.5t-62.5 -254.5t-179.5 -88.5z" />
    <glyph glyph-name="one" unicode="1" 
d="M241 557h-134v58q149 11 249 56l33 -15v-578q19 -11 60 -19.5t65 -10.5l-3 -48h-408l2 48q89 10 136 30v479z" />
    <glyph glyph-name="two" unicode="2" 
d="M512 98v-98h-453v58q164 158 227 256.5t63 202.5t-72 104q-32 0 -52 -29.5t-20 -66t21 -63.5q-36 -34 -76.5 -34t-64.5 22.5t-24 65.5q0 71 59.5 116.5t159.5 45.5q74 0 126 -26q99 -50 99 -166q0 -80 -61 -170.5t-201 -217.5h269z" />
    <glyph glyph-name="three" unicode="3" 
d="M200 319v62q147 12 147 126t-67 114q-37 0 -55.5 -26t-18.5 -61t14 -61q-28 -30 -70 -30t-64 24t-22 68t38 79q67 64 174.5 64t169 -47t61.5 -123q0 -115 -131 -157q82 -18 115 -59t33 -111q0 -90 -76 -139.5t-170.5 -49.5t-157 37t-62.5 101q0 37 22 57.5t55.5 20.5
t68.5 -27q-9 -19 -9 -48.5t19.5 -49.5t58.5 -20q86 0 86 119q0 65 -41.5 101t-117.5 36z" />
    <glyph glyph-name="four" unicode="4" 
d="M320 181h-288l-7 34l282 452h143v-412h95v-72h-95v-119q31 -19 87 -27l-5 -37h-310l6 37q58 7 92 27v117zM320 253v274l-165 -274h165z" />
    <glyph glyph-name="five" unicode="5" 
d="M131 670q133 -3 163.5 -3t180.5 2l29 -21l-9 -76h-276v-167q50 13 98 13q91 0 155.5 -53.5t64.5 -152.5t-66 -159.5t-168.5 -60.5t-164 37.5t-61.5 95.5q0 40 22 61.5t57 21.5t67 -27q-9 -21 -9 -49t19.5 -49t59.5 -21q90 0 90 143t-103 143q-58 0 -127 -42l-55 53v284z
" />
    <glyph glyph-name="six" unicode="6" 
d="M329 386q100 0 157.5 -54t57.5 -143.5t-67 -144.5t-179.5 -55t-176 66t-63.5 191q0 157 103 273.5t277 161.5l24 -50q-111 -48 -165 -106t-77 -167q56 28 109 28zM373.5 281.5q-25.5 34.5 -69.5 34.5t-94 -34v-13q0 -109 24 -160t72 -51q93 0 93 127q0 62 -25.5 96.5z
" />
    <glyph glyph-name="seven" unicode="7" 
d="M294 667l228 1l30 -52l-248 -616h-145l239 578h-217q-11 -40 -14 -97q-18 -3 -37.5 -3t-38.5 3q-5 35 -16.5 100t-11.5 72l16 15z" />
    <glyph glyph-name="eight" unicode="8" 
d="M522 513q0 -41 -30 -82t-79 -67q62 -30 97.5 -70t35.5 -103q0 -91 -66 -144.5t-183.5 -53.5t-184 49t-66.5 140q0 47 30 93.5t84 82.5q-95 53 -95 147q0 80 62 127t166.5 47t166.5 -45t62 -121zM340 278q-39 21 -88 39q-58 -45 -58 -129q0 -59 29 -92.5t78.5 -33.5t77 33
t27.5 90.5t-66 92.5zM230 582.5q-23 -25.5 -23 -66t29.5 -65t86.5 -48.5q25 17 40 47t15 68.5t-23.5 64t-62.5 25.5t-62 -25.5z" />
    <glyph glyph-name="nine" unicode="9" 
d="M260 279q-100 0 -157.5 54t-57.5 143.5t67 144.5t179.5 55t176 -66t63.5 -191q0 -157 -103 -273.5t-277 -161.5l-24 50q111 48 165 106t77 167q-56 -28 -109 -28zM215.5 383.5q25.5 -34.5 69.5 -34.5t94 34v13q0 109 -24 160t-71 51q-94 0 -94 -127q0 -62 25.5 -96.5z
" />
    <glyph glyph-name="colon" unicode=":" horiz-adv-x="280" 
d="M149 146q70 0 70 -76.5t-70 -76.5q-35 0 -52.5 20.5t-17.5 55.5q0 77 70 77zM149 461q70 0 70 -76.5t-70 -76.5q-35 0 -52.5 20.5t-17.5 55.5q0 77 70 77z" />
    <glyph glyph-name="semicolon" unicode=";" horiz-adv-x="280" 
d="M149 461q70 0 70 -76.5t-70 -76.5q-35 0 -52.5 20.5t-17.5 55.5q0 77 70 77zM85 23q-22 21 -22 49.5t19.5 48t55 19.5t56.5 -23.5t21 -63.5q0 -121 -125 -193l-28 35q31 23 50 51.5t19 55t-26 26.5q-8 0 -20 -5z" />
    <glyph glyph-name="less" unicode="&#x3c;" 
d="M64 222v127l442 175l34 -93l-381 -146l381 -145l-34 -93z" />
    <glyph glyph-name="equal" unicode="=" 
d="M61 145v95h469v-95h-469zM61 332v95h469v-95h-469z" />
    <glyph glyph-name="greater" unicode="&#x3e;" 
d="M540 349v-127l-442 -175l-34 93l381 145l-381 146l34 93z" />
    <glyph glyph-name="question" unicode="?" horiz-adv-x="452" 
d="M147.5 212.5q-22.5 21.5 -22.5 59.5t15 66.5t36.5 49t43.5 42.5q51 51 51 130q0 35 -18.5 53t-41.5 18t-38 -12t-15 -36.5t30 -48.5q-9 -22 -29.5 -34t-49 -12t-52.5 20.5t-24 56.5q0 51 55.5 81.5t137 30.5t130.5 -34.5t49 -102.5q0 -38 -16 -71.5t-38.5 -56.5
t-44.5 -44q-54 -53 -54 -95q0 -23 16 -57q-31 -25 -64.5 -25t-56 21.5zM280 59q0 -70 -79.5 -70t-79.5 70t79.5 70t79.5 -70z" />
    <glyph glyph-name="at" unicode="@" horiz-adv-x="921" 
d="M635 341v-194q0 -28 9.5 -45t26 -17t32.5 19t23 49q16 54 16 145q0 137 -77 214t-210.5 77t-216.5 -94.5t-83 -245t79.5 -245.5t206.5 -95q95 0 159 38l32 -47q-83 -52 -191 -52q-186 0 -296 109t-110 288t117 289.5t301.5 110.5t296.5 -95t112 -252q0 -121 -57.5 -195.5
t-158.5 -74.5t-129 71q-60 -67 -139 -67q-60 0 -92 29t-32 84q0 119 178 133l76 6v53q0 62 -15 87t-53 25q-23 0 -38.5 -13.5t-15.5 -34.5t21 -36q-5 -23 -22.5 -36.5t-44.5 -13.5t-47 19t-20 47q0 48 45 75.5t122 27.5q195 0 195 -143zM373 155q0 -64 50 -64q42 0 85 50v99
l-46 -4q-47 -5 -68 -23.5t-21 -57.5z" />
    <glyph glyph-name="A" unicode="A" horiz-adv-x="652" 
d="M439 65l-47 143h-206l-48 -138q28 -23 85 -30l-5 -40h-226l6 40q46 2 61 25l213 602h104l215 -593q16 -26 61 -34l-5 -40h-274l6 40q46 7 60 25zM293 511l-85 -240h163z" />
    <glyph glyph-name="B" unicode="B" horiz-adv-x="651" 
d="M325 667q131 0 200 -42.5t69 -123.5q0 -110 -122 -142q70 -21 107.5 -65.5t37.5 -105.5q0 -88 -72 -138t-198 -50h-308l4 41q34 7 57 30v525q-18 18 -61 32l4 39h282zM301 320h-54v-255q39 -3 68 -3q73 0 107.5 30t34.5 95q0 133 -156 133zM439 499q0 52 -33 79.5
t-82.5 27.5t-76.5 -4v-219h55q137 0 137 116z" />
    <glyph glyph-name="C" unicode="C" horiz-adv-x="573" 
d="M335 -10q-141 0 -214.5 85t-73.5 254t72.5 257t214.5 88q91 0 148 -37t57 -95q0 -36 -23 -61t-52 -25t-50.5 13t-31.5 33q16 27 16 55t-18.5 46t-49.5 18q-118 0 -118 -279q0 -141 37 -212.5t119 -71.5t152 75l33 -32q-47 -53 -104.5 -82t-113.5 -29z" />
    <glyph glyph-name="D" unicode="D" horiz-adv-x="705" 
d="M260 667q205 0 298 -80t93 -254t-94 -253.5t-303 -79.5h-212l4 41q32 7 56 29v527q-18 17 -60 31l4 39h214zM292 605h-42v-539q9 -4 39 -4q108 0 156.5 65t48.5 207.5t-47 206.5t-155 64z" />
    <glyph glyph-name="E" unicode="E" horiz-adv-x="578" 
d="M531 502q-23 -7 -37.5 -7t-36.5 4q-15 69 -43 107h-168v-237l93 7q18 2 33.5 20t22.5 47h52v-207h-52q-14 40 -27 56t-30 18l-92 8v-256h175q32 48 47 127q21 3 39.5 3t34.5 -3l-10 -189h-494l4 41q39 6 57 25v535q-24 21 -61 29l3 37h486z" />
    <glyph glyph-name="F" unicode="F" horiz-adv-x="551" 
d="M527 502q-21 -6 -39 -6t-36 3q-15 69 -43 107h-163v-237l93 7q18 2 33.5 20t22.5 47h52v-207h-52q-14 40 -27 56t-30 18l-92 8v-247q23 -21 75 -32l-7 -39h-276l4 41q39 6 57 25v535q-24 21 -61 29l3 37h477z" />
    <glyph glyph-name="G" unicode="G" horiz-adv-x="646" 
d="M584 66q-106 -76 -245.5 -76t-212.5 85.5t-73 253.5t76.5 256.5t225.5 88.5q97 0 158.5 -36.5t61.5 -95.5q0 -36 -23 -61t-52 -25t-50.5 13t-31.5 33q17 28 17 51q0 68 -84 68q-143 0 -143 -279q0 -145 40.5 -214.5t125.5 -69.5q32 0 63 14v181q-19 32 -78 39l5 40l220 8
v-274z" />
    <glyph glyph-name="H" unicode="H" horiz-adv-x="722" 
d="M239 373h229v223q-26 22 -69 30l5 41h278l-6 -39q-39 -12 -61 -32v-525q23 -21 75 -32l-7 -39h-276l4 41q33 6 57 30v239h-229v-239q23 -21 75 -32l-7 -39h-276l4 41q33 6 57 30v525q-21 18 -61 32l4 39h279l-6 -41q-43 -8 -69 -30v-223z" />
    <glyph glyph-name="I" unicode="I" horiz-adv-x="350" 
d="M25 626l5 41h293l-6 -41q-43 -8 -69 -30v-525q20 -19 75 -30l-7 -41h-291l4 41q45 7 72 30v525q-22 22 -76 30z" />
    <glyph glyph-name="J" unicode="J" horiz-adv-x="341" 
d="M241 16q0 -96 -58.5 -151t-169.5 -83l-21 55q102 53 102 164v595q-22 22 -76 30l5 41h293l-6 -41q-43 -8 -69 -30v-580z" />
    <glyph glyph-name="K" unicode="K" horiz-adv-x="682" 
d="M314 39l-7 -39h-276l4 41q33 6 57 30v525q-21 18 -61 32l4 39h279l-6 -41q-43 -8 -69 -30v-525q23 -21 75 -32zM463 581q9 11 9 22t-15 18t-37 7l-6 39h250l-6 -39q-56 -3 -88 -39l-172 -191l197 -322q32 -26 86 -35l-7 -41h-228q-1 32 -18 58l-175 290z" />
    <glyph glyph-name="L" unicode="L" horiz-adv-x="551" 
d="M246 62h175q32 48 47 127q20 3 39 3t35 -3l-10 -189h-494l4 41q39 6 57 25v530q-16 14 -62 30l5 41h279l-6 -41q-43 -8 -69 -30v-534z" />
    <glyph glyph-name="M" unicode="M" horiz-adv-x="846" 
d="M823 39l-7 -39h-271l4 41q34 7 56 30v437l-163 -508h-77l-179 481v-410q23 -21 75 -32l-7 -39h-216l4 41q33 6 57 30v525q-21 18 -61 32l4 39h226l163 -450l140 450h244l-6 -39q-39 -12 -61 -32v-525q23 -21 75 -32z" />
    <glyph glyph-name="N" unicode="N" horiz-adv-x="679" 
d="M595 0h-152l-264 460v-389q23 -21 75 -32l-7 -39h-216l4 41q33 6 57 30v525q-21 18 -61 32l4 39h197l276 -484v413q-26 22 -69 30l5 41h218l-6 -39q-39 -12 -61 -32v-596z" />
    <glyph glyph-name="O" unicode="O" horiz-adv-x="695" 
d="M245.5 553.5q-31.5 -66.5 -31.5 -219t31.5 -219.5t102 -67t101.5 67t31 219.5t-31 219t-101.5 66.5t-102 -66.5zM124.5 78q-75.5 88 -75.5 256.5t75.5 256t223.5 87.5t223 -87.5t75 -256t-75 -256.5t-223 -88t-223.5 88z" />
    <glyph glyph-name="P" unicode="P" horiz-adv-x="614" 
d="M325 667q261 0 261 -186q0 -97 -71 -149t-204 -52q-22 0 -64 3v-212q21 -21 75 -32l-7 -39h-276l4 41q34 7 57 30v525q-19 18 -61 32l4 39h282zM431 479q0 61 -31.5 94t-79.5 33t-73 -4v-259h65q119 0 119 136z" />
    <glyph glyph-name="Q" unicode="Q" horiz-adv-x="695" 
d="M290 -6q-241 32 -241 349q0 160 75.5 247.5t223.5 87.5t223 -87.5t75 -255.5q0 -299 -225 -339q35 -97 132 -134q1 -3 1 -8q0 -21 -13 -28q-96 15 -154.5 58t-96.5 110zM245.5 553.5q-31.5 -66.5 -31.5 -219t31.5 -219.5t102 -67t101.5 67t31 219.5t-31 219t-101.5 66.5
t-102 -66.5z" />
    <glyph glyph-name="R" unicode="R" horiz-adv-x="662" 
d="M324 667q256 0 256 -176q0 -128 -130 -171q32 -22 52 -66l75 -178q10 -23 61 -35l-7 -41h-182l-97 262q-13 32 -54 38q-17 0 -41 2h-11v-231q21 -21 75 -32l-7 -39h-276l4 41q34 7 57 30v525q-19 18 -61 32l4 39h282zM425 489q0 56 -30 86.5t-77 30.5t-72 -4v-239h65
q114 0 114 126z" />
    <glyph glyph-name="S" unicode="S" horiz-adv-x="513" 
d="M168 64q44 -16 84 -16t65 25.5t25 62t-16.5 63t-42.5 44.5t-57.5 35t-63 36.5t-57.5 42t-42.5 57.5t-16.5 78q0 79 62.5 131t157.5 52q46 0 105.5 -14.5t98.5 -35.5l-14 -138q-23 -7 -36.5 -7t-35.5 4q-13 75 -39.5 107.5t-71 32.5t-69.5 -23t-25 -55.5t22.5 -58
t56.5 -45t73.5 -45.5t73.5 -52.5t56.5 -69t22.5 -92.5q0 -88 -65 -139t-176 -51q-47 0 -111.5 16.5t-86.5 34.5v152q40 14 91 17q6 -88 32 -149z" />
    <glyph glyph-name="T" unicode="T" horiz-adv-x="639" 
d="M107 483q-18 -3 -35.5 -3t-33.5 3v188q147 -4 327 -4t236 4v-188q-17 -3 -34 -3t-35 3q-8 70 -36 115q-50 7 -103 8v-535q21 -20 75 -30l-7 -41h-291l4 41q43 6 72 30v534q-22 -1 -101 -6q-36 -50 -38 -116z" />
    <glyph glyph-name="U" unicode="U" horiz-adv-x="676" 
d="M225 208q0 -148 140 -148q129 0 129 163v375q-19 15 -76 28l5 41h238l-6 -39q-43 -13 -66 -32v-351q0 -93 -24 -145.5t-83.5 -79.5t-137.5 -27q-266 0 -266 215v388q-21 21 -76 30l5 41h293l-6 -41q-44 -9 -69 -30v-388z" />
    <glyph glyph-name="V" unicode="V" horiz-adv-x="634" 
d="M274 627q-42 -2 -62 -22l136 -420l146 412q-26 23 -79 30l5 40h221l-5 -40q-47 -2 -63 -26l-220 -601h-101l-187 585q-13 32 -64 42l5 40h274z" />
    <glyph glyph-name="W" unicode="W" horiz-adv-x="961" 
d="M470 667h88l138 -482l126 411q-25 24 -80 31l5 40h221l-5 -40q-47 -2 -62 -25l-200 -602h-101l-128 430l-139 -430h-101l-171 593q-14 24 -60 34l5 40h274l-6 -40q-41 -2 -63 -22l117 -420z" />
    <glyph glyph-name="X" unicode="X" horiz-adv-x="619" 
d="M69 65l169 250l-180 289q-14 15 -51 23l5 40h274l-6 -40q-36 -1 -56 -21l108 -174l109 163q-22 22 -69 29l5 40h221l-5 -40q-47 -2 -63 -25l-157 -234l190 -304q16 -15 51 -21l-5 -40h-274l6 40q37 2 56 21l-117 187l-121 -180q23 -21 69 -28l-5 -40h-221l5 40
q47 2 62 25z" />
    <glyph glyph-name="Y" unicode="Y" horiz-adv-x="604" 
d="M65 593q-13 24 -60 34l5 40h271l-6 -40q-42 -2 -62 -22l119 -248l122 240q-26 23 -80 30l5 40h224l-5 -40q-44 -2 -60 -22l-171 -337v-197q23 -21 75 -32l-7 -39h-276l4 41q39 6 57 25v203z" />
    <glyph glyph-name="Z" unicode="Z" horiz-adv-x="566" 
d="M526 -2l-265 2q-192 0 -229 -2l-4 47l326 564h-193q-20 -25 -36 -124q-16 -3 -37.5 -3t-47.5 8l-12 147l37 32q46 -2 215 -2t245 2l10 -38l-335 -572h208q32 46 52 131q16 4 39 4t36 -3z" />
    <glyph glyph-name="bracketleft" unicode="[" horiz-adv-x="368" 
d="M110 738h213v-54l-113 -12v-778l113 -12v-54h-213v910z" />
    <glyph glyph-name="backslash" unicode="\" horiz-adv-x="505" 
d="M423 -112l-74 -28l-310 812l74 28z" />
    <glyph glyph-name="bracketright" unicode="]" horiz-adv-x="368" 
d="M45 738h213v-910h-213v54l113 12v778l-113 12v54z" />
    <glyph glyph-name="asciicircum" unicode="^" 
d="M241 667h105l187 -316l-86 -50l-154 269l-153 -269l-86 50z" />
    <glyph glyph-name="underscore" unicode="_" horiz-adv-x="371" 
d="M371 -122h-371v74h371v-74z" />
    <glyph glyph-name="grave" unicode="`" horiz-adv-x="285" 
d="M87 710q34 0 57 -34l80 -119l-34 -33l-117 83q-31 22 -33 56q0 21 13 34t34 13z" />
    <glyph glyph-name="a" unicode="a" horiz-adv-x="535" 
d="M172 -7q-69 0 -106 32t-37 93q0 133 197 147l88 6v58q0 70 -16.5 97t-51 27t-53 -14.5t-18.5 -38t22 -40.5q-5 -25 -24 -40t-49 -15t-52 21t-22 52q0 53 50.5 83.5t139.5 30.5q215 0 215 -158v-272q17 -19 60 -27l-4 -35h-180l-10 57q-64 -64 -149 -64zM185 193
q-24 -21 -24 -59q0 -76 60 -76q46 0 93 55v109l-50 -4q-55 -4 -79 -25z" />
    <glyph glyph-name="b" unicode="b" horiz-adv-x="591" 
d="M224 425q44 67 134.5 67t138 -60t47.5 -181.5t-59.5 -189.5t-166.5 -68q-76 0 -134 32l-26 -25h-75v558q0 37 -13.5 50.5t-48.5 15.5l2 39q143 22 184 34l17 -10v-262zM315 432q-43 0 -67 -42t-24 -122v-203q27 -19 66 -19q108 0 108 210q0 176 -83 176z" />
    <glyph glyph-name="c" unicode="c" horiz-adv-x="469" 
d="M464 68q-72 -75 -186 -75t-174 62t-60 183.5t60.5 186t175.5 64.5q77 0 125.5 -28.5t48.5 -73.5q0 -29 -22.5 -49t-50.5 -20t-47.5 12t-25.5 30q12 18 12 38.5t-14 32.5t-35 12q-80 0 -80 -195q0 -107 26.5 -152t89.5 -45t121 53z" />
    <glyph glyph-name="d" unicode="d" horiz-adv-x="597" 
d="M368 65q-44 -72 -136.5 -72t-140 60t-47.5 182t57.5 189.5t163.5 67.5q53 0 99 -24v90q0 37 -15 50.5t-55 15.5l3 39q141 20 191 34l17 -10v-625q21 -19 60 -27l-4 -35h-180zM364 234v185q-27 19 -65 19q-109 0 -109 -209q0 -176 83 -176q91 0 91 181z" />
    <glyph glyph-name="e" unicode="e" horiz-adv-x="531" 
d="M186 243v-16q0 -84 24 -124.5t90 -40.5q84 0 138 55l40 -39q-41 -41 -85.5 -63t-116.5 -22q-116 0 -174.5 65.5t-58.5 182t62 184t176.5 67.5t161.5 -52t53 -155l-28 -42h-282zM280 443q-91 0 -94 -160l168 8q0 80 -16 116t-58 36z" />
    <glyph glyph-name="f" unicode="f" horiz-adv-x="326" 
d="M400 562h-73q-7 59 -21 83.5t-40.5 24.5t-42 -22.5t-15.5 -49t10 -65t10 -55.5h104v-63h-104v-353q23 -17 86 -28l-3 -34h-294l4 36q42 7 66 26v353h-79l-5 40q51 8 84 23v44q0 83 51.5 135t127 52t134.5 -37v-110z" />
    <glyph glyph-name="g" unicode="g" horiz-adv-x="520" 
d="M98.5 445.5q54.5 46.5 144 46.5t142.5 -33q14 12 14 34t-28 36q0 16 16.5 27t40.5 11t39.5 -14.5t15.5 -38.5t-17.5 -48.5t-43.5 -37.5q37 -45 37 -117.5t-56 -118t-151 -45.5h-16l-34 -43q3 -20 58 -20h42q99 0 151 -38.5t52 -112t-61 -113t-177 -39.5t-180 32.5
t-64 93.5q0 76 78 128q-15 24 -15 60l87 61q-61 17 -95 58.5t-34 100.5q0 84 54.5 130.5zM278 0h-91l-6 -6q-28 -28 -28 -72t28 -64.5t88 -20.5q120 0 120 85q0 78 -111 78zM198.5 220q13.5 -24 54.5 -24t57 25.5t16 93t-17.5 97.5t-54.5 30t-53 -30t-16 -99t13.5 -93z" />
    <glyph glyph-name="h" unicode="h" horiz-adv-x="597" 
d="M83 559q0 37 -13.5 50.5t-48.5 15.5l3 39q13 3 54 10q97 15 129 24l18 -10v-259q56 63 142 63q68 0 109 -41t41 -113v-272q23 -19 63 -27l-3 -39h-254l3 39q30 6 49 27v263q0 96 -62 96q-55 0 -88 -54v-304q20 -17 60 -27l-4 -39h-254l4 41q33 7 52 25v492z" />
    <glyph glyph-name="i" unicode="i" horiz-adv-x="314" 
d="M93 354q0 36 -13.5 49.5t-48.5 15.5l3 39q13 3 54 10q97 15 129 24l17 -9v-417q25 -19 64 -27l-4 -39h-257l4 41q33 7 52 25v288zM245 620q0 -70 -79.5 -70t-79.5 70t79.5 70t79.5 -70z" />
    <glyph glyph-name="j" unicode="j" horiz-adv-x="302" 
d="M227 -33q0 -85 -26 -128q-17 -28 -52.5 -42.5t-81.5 -14.5t-82.5 22t-36.5 62q0 28 17.5 45t46.5 17t45 -25q-15 -15 -15 -34q0 -37 24 -37q14 0 23 17.5t9 46t-6 76.5t-6 90v292q0 36 -13.5 49.5t-48.5 15.5l3 39q13 3 55 10q96 15 128 24l17 -9v-516zM238 620
q0 -70 -79.5 -70t-79.5 70t79.5 70t79.5 -70z" />
    <glyph glyph-name="k" unicode="k" 
d="M379 416q0 29 -51 29l8 39h233l-8 -39q-56 -3 -88 -39l-95 -94l151 -236q28 -26 71 -35l-7 -41h-188q-1 30 -18 58l-102 161l-54 -54v-99q23 -19 63 -27l-3 -39h-258l4 41q34 7 52 25v492q0 37 -13.5 50.5t-48.5 15.5l3 39q13 3 54 9q97 16 129 25l18 -10v-424l140 135
q8 10 8 18z" />
    <glyph glyph-name="l" unicode="l" horiz-adv-x="308" 
d="M83 558q0 37 -13.5 50.5t-48.5 15.5l3 39q13 3 54 9q97 16 129 25l18 -10v-621q23 -19 63 -27l-3 -39h-258l4 41q33 7 52 25v492z" />
    <glyph glyph-name="m" unicode="m" horiz-adv-x="890" 
d="M379 329q0 96 -61 96q-55 0 -87 -55v-304q23 -18 60 -27l-4 -39h-253l3 41q32 6 53 25v288q0 36 -14 49.5t-49 15.5l3 39q150 28 171 34l18 -9l8 -58q56 67 143 67q100 0 136 -82q54 82 154 82q68 0 109 -41t41 -113v-272q25 -19 64 -27l-4 -39h-253l3 39q28 6 49 27v263
q0 96 -61 96q-27 0 -51.5 -16.5t-38.5 -43.5q2 -18 2 -27v-272q22 -18 60 -27l-4 -39h-249l3 39q28 6 49 27v263z" />
    <glyph glyph-name="n" unicode="n" horiz-adv-x="604" 
d="M382 329q0 96 -62 96q-26 0 -50.5 -15t-38.5 -40v-304q23 -18 60 -27l-4 -39h-253l3 41q32 6 53 25v288q0 36 -14 49.5t-49 15.5l3 39q150 28 171 34l18 -9l8 -58q57 67 147 67q68 0 108.5 -41t40.5 -113v-272q25 -19 64 -27l-4 -39h-253l3 39q30 6 49 27v263z" />
    <glyph glyph-name="o" unicode="o" horiz-adv-x="569" 
d="M213 391q-22 -45 -22 -148.5t22 -148.5t72 -45t71.5 45.5t21.5 148.5t-21.5 148t-71.5 45t-72 -45zM44 243q0 122 61 185.5t180 63.5t179.5 -63.5t60.5 -185.5t-60.5 -186t-179.5 -64t-180 64t-61 186z" />
    <glyph glyph-name="p" unicode="p" horiz-adv-x="597" 
d="M223 416q43 76 137 76t142 -60t48 -182.5t-57.5 -189.5t-163.5 -67q-54 0 -100 24v-162q30 -19 74 -27l-4 -39h-267l4 41q33 7 52 25v499q0 36 -13.5 49.5t-48.5 15.5l3 39q142 27 166 34l18 -9zM321 432q-43 0 -67.5 -42t-24.5 -122v-202q26 -20 66 -20q108 0 108 210
q0 176 -82 176z" />
    <glyph glyph-name="q" unicode="q" horiz-adv-x="591" 
d="M367 59q-43 -66 -134 -66t-138.5 64t-47.5 185.5t59.5 185.5t164.5 64q70 0 129 -40l34 32h74v-629q21 -19 53 -27l-3 -39h-267l3 41q45 7 73 25v204zM276 53q91 0 91 181v174q-29 33 -69 33q-105 0 -105 -194t83 -194z" />
    <glyph glyph-name="r" unicode="r" horiz-adv-x="461" 
d="M90 354q0 36 -14 49.5t-49 15.5l3 39q150 28 171 34l18 -9l8 -66q51 74 129 74q39 0 67.5 -26.5t28.5 -64t-20.5 -58t-49.5 -20.5t-47 25q14 17 14 33t-13.5 26t-32.5 10t-39.5 -17.5t-32.5 -45.5v-287q23 -18 60 -27l-4 -39h-253l3 41q32 6 53 25v288z" />
    <glyph glyph-name="s" unicode="s" horiz-adv-x="459" 
d="M235 448q-29 0 -47 -19t-18 -47.5t24 -47t92 -42.5q135 -48 135 -150q0 -71 -54 -110.5t-151 -39.5q-39 0 -93.5 16.5t-83.5 36.5v110l103 15q1 -33 7.5 -69.5t13.5 -49.5q29 -9 57 -9t48 19t20 48q0 57 -87.5 86.5t-124 67.5t-36.5 98.5t51.5 96t143.5 35.5
q44 0 88 -8.5t65 -16.5l22 -8l-10 -125h-78q0 48 -22 80.5t-65 32.5z" />
    <glyph glyph-name="t" unicode="t" horiz-adv-x="365" 
d="M202 -4q-54 0 -88 29t-34 88v300h-71v46q104 39 149 125h65v-106h128v-65h-129v-292q0 -53 48 -53q36 0 72 25l20 -35q-69 -62 -160 -62z" />
    <glyph glyph-name="u" unicode="u" horiz-adv-x="597" 
d="M230 -7q-68 0 -109 41t-41 113v207q0 36 -13.5 49.5t-48.5 15.5l3 39q13 3 55 10q96 15 128 24l17 -9v-327q0 -96 62 -96q26 0 50.5 15t39.5 40v239q0 36 -14 49.5t-49 15.5l3 39q13 3 55 10q96 15 128 24l18 -9v-421q22 -19 69 -27l-3 -35h-191l-10 64q-58 -71 -149 -71
z" />
    <glyph glyph-name="v" unicode="v" horiz-adv-x="531" 
d="M307 0h-103l-144 407q-12 34 -62 42l2 35h262l-5 -35q-34 -2 -57 -19l99 -279l110 276q-23 15 -65 22l4 35h186l-4 -35q-35 -2 -52 -24z" />
    <glyph glyph-name="w" unicode="w" horiz-adv-x="798" 
d="M294 0h-103l-132 418q-15 23 -57 31l2 35h262l-5 -35q-36 -2 -59 -21l78 -274l113 330h90l95 -331l93 274q-23 15 -64 22l4 35h186l-4 -35q-38 -2 -54 -28l-147 -421h-103l-91 298z" />
    <glyph glyph-name="x" unicode="x" horiz-adv-x="525" 
d="M315 54l-82 116l-95 -111q25 -14 57 -20l-6 -39h-184l7 41q28 2 39 14l144 168l-140 198q-11 15 -46 23l6 39h242l-7 -41q-27 -3 -39 -13l76 -107l82 102q-16 15 -46 20l6 40h179l-6 -41q-35 -2 -47 -16l-130 -159l147 -206q12 -17 45 -23l-6 -39h-243l8 41q23 0 39 13z
" />
    <glyph glyph-name="y" unicode="y" horiz-adv-x="531" 
d="M206 -193q-32 -27 -82 -27t-78 20t-28 53.5t16 51.5t43.5 18t48.5 -24q-11 -9 -11 -30q0 -31 27 -31q17 0 31.5 19t33.5 67l30 76h-34l-144 407q-12 33 -62 42l2 35h262l-5 -35q-37 -1 -57 -19l99 -279l110 276q-23 15 -65 22l4 35h186l-4 -35q-44 -2 -52 -24l-213 -528
q-26 -63 -58 -90z" />
    <glyph glyph-name="z" unicode="z" horiz-adv-x="479" 
d="M438 -1q-124 1 -234 1t-162 -2l-4 44l239 388h-116q-12 -22 -22 -90q-24 -4 -44.5 -4t-47.5 9l-9 111l37 30q34 -2 168.5 -2t191.5 2l10 -37l-246 -393h126q19 31 34 98q25 6 42 6t44 -5z" />
    <glyph glyph-name="braceleft" unicode="{" horiz-adv-x="393" 
d="M142 383q0 24 -13 85t-13 81q0 83 61.5 133.5t163.5 50.5v-53q-54 -4 -86.5 -37.5t-32.5 -86.5q0 -28 13.5 -75.5t13.5 -76.5q0 -83 -56 -120q56 -38 56 -120q0 -29 -13.5 -76.5t-13.5 -75.5q0 -53 32.5 -87t86.5 -37v-53q-102 0 -163.5 50.5t-61.5 133.5q0 20 13 81
t13 85t-15.5 42t-30.5 23l-16 4v60q23 3 42.5 24t19.5 45z" />
    <glyph glyph-name="bar" unicode="|" horiz-adv-x="320" 
d="M210 -151h-100v909h100v-909z" />
    <glyph glyph-name="braceright" unicode="}" horiz-adv-x="393" 
d="M251 185q0 -24 13 -85t13 -81q0 -83 -61.5 -133.5t-163.5 -50.5v53q54 3 86.5 37t32.5 87q0 28 -13.5 75.5t-13.5 76.5q0 82 56 120q-56 37 -56 120q0 29 13.5 76.5t13.5 75.5q0 53 -32.5 86.5t-86.5 37.5v53q102 0 163.5 -50.5t61.5 -133.5q0 -20 -13 -81t-13 -85
t15.5 -42t31.5 -23l15 -4v-60q-23 -3 -42.5 -24t-19.5 -45z" />
    <glyph glyph-name="asciitilde" unicode="~" 
d="M100 346q42 31 88 31t105.5 -36.5t87.5 -36.5q48 0 91 67q64 -31 86 -50q-61 -123 -171 -123q-33 0 -96.5 35.5t-83.5 35.5q-42 0 -89 -62q-36 11 -85 51q25 57 67 88z" />
    <glyph glyph-name="uni00A0" unicode="&#xa0;" horiz-adv-x="220" 
 />
    <glyph glyph-name="exclamdown" unicode="&#xa1;" horiz-adv-x="335" 
d="M213 78q0 -157 27 -250q-6 -13 -24.5 -24t-43.5 -11q-51 0 -71.5 22t-20.5 60t25 179.5t30 206.5l85 16q-7 -178 -7 -199zM260 422q0 -70 -79.5 -70t-79.5 70t79.5 70t79.5 -70z" />
    <glyph glyph-name="cent" unicode="&#xa2;" horiz-adv-x="469" 
d="M212 24q-175 24 -175 228.5t175 227.5v89l14 8l46 -6v-87q66 -3 106.5 -29.5t40.5 -65.5q0 -27 -21 -45.5t-47 -18.5t-44 11t-25 28q12 15 12 35t-13 30.5t-32 10.5q-75 0 -75 -181q0 -98 24.5 -140.5t85 -42.5t110.5 50l35 -35q-64 -64 -157 -69v-85l-10 -11l-50 9v89z
" />
    <glyph glyph-name="sterling" unicode="&#xa3;" horiz-adv-x="556" 
d="M115 468q0 100 60.5 153.5t171.5 53.5q70 0 123.5 -30t53.5 -88q0 -31 -21.5 -50.5t-50.5 -19.5q-54 0 -66 33q18 24 18 47.5t-16 38.5t-44 15q-95 0 -95 -145q0 -49 14 -117h148l6 -46l-8 -14h-133q10 -62 10 -104t-15 -83q68 -36 122 -36t54 67v18q37 -1 61.5 -21
t24.5 -57q0 -90 -128 -90q-39 0 -74 13.5t-92 45.5q-46 -61 -124 -61q-41 0 -68 20t-27 57.5t29 62.5t74 25q18 0 55 -7q-7 66 -33 150h-85l-9 50l11 10h67q-14 63 -14 109zM101 71q0 -23 28.5 -23t45.5 40q-25 9 -42 9q-32 0 -32 -26z" />
    <glyph glyph-name="currency" unicode="&#xa4;" horiz-adv-x="587" 
d="M121 171q-46 57 -46 124t48 122l-57 64l68 66l75 -81q31 10 80 10t77 -10l75 80l67 -65l-58 -63q48 -59 48 -124t-46 -124l57 -62l-68 -64l-70 77q-32 -11 -82 -11t-86 11l-69 -78l-69 65zM208 293q0 -133 78.5 -133t78.5 133t-78.5 133t-78.5 -133z" />
    <glyph glyph-name="yen" unicode="&#xa5;" horiz-adv-x="641" 
d="M83 593q-13 24 -60 34l5 40h271l-6 -40q-42 -2 -62 -22l119 -248l122 240q-26 23 -80 30l5 40h224l-5 -40q-44 -2 -60 -22l-106 -208h70l6 -46l-8 -14h-98l-22 -42h122l6 -46l-8 -14h-133v-164q23 -21 75 -32l-7 -39h-276l4 41q39 6 57 25v169h-144l-9 50l11 10h129
l-20 42h-121l-9 50l11 10h91z" />
    <glyph glyph-name="brokenbar" unicode="&#xa6;" horiz-adv-x="320" 
d="M210 387h-100v371h100v-371zM110 229h100v-380h-100v380z" />
    <glyph glyph-name="section" unicode="&#xa7;" horiz-adv-x="533" 
d="M155 647q68 47 147.5 47t128 -31.5t48.5 -88.5q0 -39 -23 -60.5t-57 -21.5q-51 0 -68 42q21 21 25 56q0 22 -15.5 35.5t-38.5 13.5t-40.5 -14.5t-19.5 -41.5q0 -70 82 -165q34 -40 68 -82q81 -100 81 -189t-68 -136t-147.5 -47t-128 31.5t-48.5 88.5q0 39 23 60.5
t56 21.5q51 0 69 -42q-21 -21 -25 -56q0 -23 15.5 -36t38.5 -13t40.5 14.5t19.5 41.5q0 71 -82 167q-34 40 -68 82q-81 100 -81 188t68 135zM172 557q-9 -25 -9 -57t23 -75.5t56 -83t66 -78.5q80 -93 80 -162q9 24 9 55.5t-23 75.5t-56.5 83.5t-66.5 78.5q-79 93 -79 163z
" />
    <glyph glyph-name="dieresis" unicode="&#xa8;" horiz-adv-x="285" 
d="M171 598q0 -57 -65.5 -57t-65.5 57q0 55 65.5 55t65.5 -55zM335 598q0 -57 -66 -57t-66 57q0 55 66 55t66 -55z" />
    <glyph glyph-name="copyright" unicode="&#xa9;" horiz-adv-x="851" 
d="M549 195q-51 -57 -116.5 -57t-103 43t-37.5 127q0 177 146 177q46 0 75 -19t29 -44.5t-13.5 -39t-34.5 -13.5t-33 22q8 14 8 28q0 29 -33 29q-61 0 -61 -132q0 -68 19 -100.5t57 -32.5t72 36zM248.5 493.5q-74.5 -75.5 -74.5 -181t74 -180.5t177.5 -75t176.5 75t73 181
t-73.5 181t-176 75t-177 -75.5zM125 313q0 123 88 210t212.5 87t212.5 -87t88 -210t-88 -210t-213 -87t-212.5 87t-87.5 210z" />
    <glyph glyph-name="ordfeminine" unicode="&#xaa;" horiz-adv-x="420" 
d="M384 292v-61h-336v61h336zM242 373q-39 -33 -91 -33t-79 22.5t-27 64.5q0 91 139 100l51 4v31q0 40 -9 56.5t-28 16.5t-29 -7.5t-10 -20.5t15 -23q-10 -44 -55 -44q-25 0 -42.5 15t-17.5 38q0 37 36 58.5t99 21.5q151 0 151 -108v-172q14 -9 41 -15l-4 -33h-135zM150 434
q0 -39 31 -39q27 0 54 26v65l-24 -2q-61 -4 -61 -50z" />
    <glyph glyph-name="guillemotleft" unicode="&#xab;" horiz-adv-x="522" 
d="M162 240l97 -185l-31 -24l-190 191v36l190 192l31 -24zM387 240l97 -185l-31 -24l-190 191v36l190 192l31 -24z" />
    <glyph glyph-name="logicalnot" unicode="&#xac;" 
d="M49 327v95h477v-301h-100v206h-377z" />
    <glyph glyph-name="uni00AD" unicode="&#xad;" horiz-adv-x="337" 
d="M53 219v95h231v-95h-231z" />
    <glyph glyph-name="registered" unicode="&#xae;" horiz-adv-x="851" 
d="M125 313q0 123 88 210t212.5 87t212.5 -87t88 -210t-88 -210t-213 -87t-212.5 87t-87.5 210zM427 481q123 0 123 -84q0 -62 -63 -83q14 -9 26 -32l36 -86l30 -11l-4 -25h-88l-47 126q-7 16 -26 19q-13 0 -20 1h-5v-112l36 -11l-2 -23h-134l3 25l26 9v253l-29 10l2 24h136
zM420 335q55 0 55 58.5t-55 58.5q-21 0 -31 -2v-115h31zM248.5 493.5q-74.5 -75.5 -74.5 -181t74 -180.5t177.5 -75t176.5 75t73 181t-73.5 181t-176 75t-177 -75.5z" />
    <glyph glyph-name="macron" unicode="&#xaf;" horiz-adv-x="285" 
d="M40 558v68h311v-68h-311z" />
    <glyph glyph-name="degree" unicode="&#xb0;" horiz-adv-x="378" 
d="M37 527q0 62 43 105t107 43t107.5 -42.5t43.5 -105t-43.5 -105t-107 -42.5t-107 42.5t-43.5 104.5zM116 527q0 -43 19.5 -68.5t52 -25.5t52 25.5t19.5 68.5t-19.5 68.5t-52 25.5t-52 -25.5t-19.5 -68.5z" />
    <glyph glyph-name="plusminus" unicode="&#xb1;" 
d="M71 306v95h173v157h100v-157h176v-95h-176v-156h-100v156h-173zM70 0v95h449v-95h-449z" />
    <glyph glyph-name="twosuperior" unicode="&#xb2;" horiz-adv-x="437" 
d="M365 474v-69h-308v42q109 95 151 153.5t42 117.5t-45 59q-20 0 -32 -16t-12 -36t16 -39q-27 -24 -55.5 -24t-46 14.5t-17.5 42.5q0 45 41 74t99 29t95 -17q68 -29 68 -104q0 -47 -39 -101t-126 -126h169z" />
    <glyph glyph-name="threesuperior" unicode="&#xb3;" horiz-adv-x="437" 
d="M152 596v47q98 8 98 71t-42 63q-22 0 -33.5 -14t-11.5 -33.5t10 -36.5q-22 -22 -51 -22t-45 16t-16 40q0 46 48 70.5t109 24.5t103 -30t42 -77q0 -66 -73 -94q46 -12 65 -37t19 -65q0 -57 -51.5 -88t-116 -31t-107 23.5t-42.5 64.5q0 25 15.5 38.5t39 13.5t51.5 -20
q-8 -15 -8 -29q0 -38 49 -38q54 0 54 66q0 37 -28 57t-78 20z" />
    <glyph glyph-name="acute" unicode="&#xb4;" horiz-adv-x="285" 
d="M177 717q21 0 33.5 -13t12.5 -34q0 -34 -32 -56l-117 -83l-34 33l80 119q22 34 57 34z" />
    <glyph glyph-name="mu" unicode="&#xb5;" horiz-adv-x="605" 
d="M234 -7h-9v-204h-141v565q0 36 -13.5 49.5t-48.5 15.5l3 39q13 3 55 10q96 15 128 24l17 -9v-327q0 -96 62 -96q26 0 50.5 15t39.5 40v239q0 36 -14 49.5t-49 15.5l3 39q13 3 55 10q96 15 128 24l18 -9v-421q22 -19 69 -27l-3 -35h-191l-10 64q-58 -71 -149 -71z" />
    <glyph glyph-name="paragraph" unicode="&#xb6;" horiz-adv-x="588" 
d="M311 314q-136 0 -200 42.5t-64 133t64.5 134t199.5 43.5h235l-5 -42q-60 -8 -90 -27v-598q0 -85 -49 -132t-131 -47q-125 0 -125 82q0 26 17.5 43t48 17t46.5 -25q-18 -15 -18 -39q0 -32 31 -32q18 0 29 14t11 38v395zM206 490q0 -127 105 -127v255q-55 0 -80 -31
t-25 -97zM366 -78q0 -38 -16 -54q52 15 52 85v664l-36 3v-698z" />
    <glyph glyph-name="periodcentered" unicode="&#xb7;" horiz-adv-x="276" 
d="M138 377q70 0 70 -76.5t-70 -76.5q-35 0 -52.5 20.5t-17.5 55.5q0 77 70 77z" />
    <glyph glyph-name="cedilla" unicode="&#xb8;" horiz-adv-x="285" 
d="M224.5 -67q17.5 -18 17.5 -54t-30.5 -62.5t-79 -26.5t-75 24.5t-26.5 49t12.5 37t30 12.5t35.5 -9q-9 -10 -9 -28t8.5 -31t23.5 -13q36 0 36 44.5t-59 50.5l-21 24l54 65l39 -9l-8 -46q34 -10 51.5 -28z" />
    <glyph glyph-name="onesuperior" unicode="&#xb9;" horiz-adv-x="437" 
d="M178 739h-89v45q98 5 169 33l25 -10v-347q32 -13 84 -16l-3 -39h-278l2 38q61 6 90 18v278z" />
    <glyph glyph-name="ordmasculine" unicode="&#xba;" horiz-adv-x="436" 
d="M386 292v-61h-336v61h336zM164 506q0 -63 12.5 -90.5t41 -27.5t41 27.5t12.5 90t-12.5 90t-41 27.5t-41 -27t-12.5 -90zM49 506q0 166 168.5 166t168.5 -166.5t-168 -166.5q-84 0 -126.5 42.5t-42.5 124.5z" />
    <glyph glyph-name="guillemotright" unicode="&#xbb;" horiz-adv-x="522" 
d="M262 55l97 185l-97 186l31 24l190 -192v-36l-190 -191zM37 55l97 185l-97 186l31 24l190 -192v-36l-190 -191z" />
    <glyph glyph-name="onequarter" unicode="&#xbc;" horiz-adv-x="941" 
d="M207 591h-89v45q98 5 169 33l25 -10v-347q32 -13 84 -16l-3 -39h-278l2 38q61 6 90 18v278zM362 -30l-66 32l321 682l66 -32zM754 111h-177l-5 25l177 280h101v-252h59v-52h-59v-68q21 -10 55 -14l-4 -30h-208l5 30q35 3 56 14v67zM754 163v138l-84 -138h84z" />
    <glyph glyph-name="onehalf" unicode="&#xbd;" horiz-adv-x="976" 
d="M208 591h-89v45q98 5 169 33l25 -10v-347q32 -13 84 -16l-3 -39h-278l2 38q61 6 90 18v278zM358 -30l-66 32l321 682l66 -32zM920 66v-69h-308v42q109 95 151 153.5t42 117.5t-45 59q-20 0 -32 -16t-12 -36t16 -39q-27 -24 -55.5 -24t-46 14.5t-17.5 42.5q0 45 41 74
t99 29t95 -17q68 -29 68 -104q0 -47 -39 -101t-126 -126h169z" />
    <glyph glyph-name="threequarters" unicode="&#xbe;" horiz-adv-x="941" 
d="M147 448v47q98 8 98 71t-42 63q-22 0 -33.5 -14t-11.5 -33.5t10 -36.5q-22 -22 -51 -22t-45 16t-16 40q0 46 48 70.5t109 24.5t103 -30t42 -77q0 -66 -73 -94q46 -12 65 -37t19 -65q0 -57 -51.5 -88t-116 -31t-107 23.5t-42.5 64.5q0 25 15.5 38.5t39 13.5t51.5 -20
q-8 -15 -8 -29q0 -38 49 -38q54 0 54 66q0 37 -28 57t-78 20zM362 -30l-66 32l321 682l66 -32zM754 111h-177l-5 25l177 280h101v-252h59v-52h-59v-68q21 -10 55 -14l-4 -30h-208l5 30q35 3 56 14v67zM754 163v138l-84 -138h84z" />
    <glyph glyph-name="questiondown" unicode="&#xbf;" horiz-adv-x="452" 
d="M290.5 263.5q22.5 -21.5 22.5 -59.5t-15 -66.5t-36.5 -49t-43.5 -42.5q-51 -51 -51 -130q0 -35 18.5 -53t41.5 -18t38 12t15 36.5t-30 48.5q9 22 29.5 34t49 12t52.5 -20.5t24 -56.5q0 -51 -55.5 -81.5t-137 -30.5t-130.5 34.5t-49 102.5q0 38 16 71.5t38.5 56.5t44.5 44
q54 53 54 95q0 23 -16 57q31 25 64.5 25t56 -21.5zM158 417q0 70 79.5 70t79.5 -70t-79.5 -70t-79.5 70z" />
    <glyph glyph-name="Agrave" unicode="&#xc0;" horiz-adv-x="652" 
d="M439 65l-47 143h-206l-48 -138q28 -23 85 -30l-5 -40h-226l6 40q46 2 61 25l213 602h104l215 -593q16 -26 61 -34l-5 -40h-274l6 40q46 7 60 25zM293 511l-85 -240h163zM246 892q34 0 57 -34l80 -119l-34 -33l-117 83q-31 22 -33 56q0 21 13 34t34 13z" />
    <glyph glyph-name="Aacute" unicode="&#xc1;" horiz-adv-x="652" 
d="M439 65l-47 143h-206l-48 -138q28 -23 85 -30l-5 -40h-226l6 40q46 2 61 25l213 602h104l215 -593q16 -26 61 -34l-5 -40h-274l6 40q46 7 60 25zM293 511l-85 -240h163zM398 899q21 0 33.5 -13t12.5 -34q0 -34 -32 -56l-117 -83l-34 33l80 119q22 34 57 34z" />
    <glyph glyph-name="Acircumflex" unicode="&#xc2;" horiz-adv-x="652" 
d="M439 65l-47 143h-206l-48 -138q28 -23 85 -30l-5 -40h-226l6 40q46 2 61 25l213 602h104l215 -593q16 -26 61 -34l-5 -40h-274l6 40q46 7 60 25zM293 511l-85 -240h163zM269 849q24 27 54 27t54 -27l95 -107l-29 -37l-120 83l-120 -83l-29 37z" />
    <glyph glyph-name="Atilde" unicode="&#xc3;" horiz-adv-x="652" 
d="M439 65l-47 143h-206l-48 -138q28 -23 85 -30l-5 -40h-226l6 40q46 2 61 25l213 602h104l215 -593q16 -26 61 -34l-5 -40h-274l6 40q46 7 60 25zM293 511l-85 -240h163zM327 833q41 -20 66.5 -20t54.5 39q30 -11 48 -31q-44 -95 -111 -95q-21 0 -63 19.5t-62 19.5
q-30 0 -59 -38q-30 12 -48 32q44 94 112 94q21 0 62 -20z" />
    <glyph glyph-name="Adieresis" unicode="&#xc4;" horiz-adv-x="652" 
d="M439 65l-47 143h-206l-48 -138q28 -23 85 -30l-5 -40h-226l6 40q46 2 61 25l213 602h104l215 -593q16 -26 61 -34l-5 -40h-274l6 40q46 7 60 25zM293 511l-85 -240h163zM307 774q0 -57 -65.5 -57t-65.5 57q0 55 65.5 55t65.5 -55zM471 774q0 -57 -66 -57t-66 57
q0 55 66 55t66 -55z" />
    <glyph glyph-name="Aring" unicode="&#xc5;" horiz-adv-x="652" 
d="M439 65l-47 143h-206l-48 -138q28 -23 85 -30l-5 -40h-226l6 40q46 2 61 25l213 602h104l215 -593q16 -26 61 -34l-5 -40h-274l6 40q46 7 60 25zM293 511l-85 -240h163zM212 806q0 44 30.5 73.5t81.5 29.5t82 -29.5t31 -73.5t-31 -73t-82 -29t-81.5 29t-30.5 73z
M284 806.5q0 -55.5 40.5 -55.5t40.5 55.5t-40.5 55.5t-40.5 -55.5z" />
    <glyph glyph-name="AE" unicode="&#xc6;" horiz-adv-x="880" 
d="M832 502q-23 -7 -37.5 -7t-36.5 4q-15 69 -43 107h-153v-237l78 7q18 2 33.5 20t22.5 47h52v-207h-52q-14 40 -27 56t-30 18l-77 8v-256h160q32 48 47 127q21 3 39 3t35 -3l-10 -189h-479l4 41q39 6 57 25v142h-198l-71 -140q26 -21 82 -28l-5 -40h-226l6 40q51 2 64 31
l308 596h453zM415 271v325l-166 -325h166z" />
    <glyph glyph-name="Ccedilla" unicode="&#xc7;" horiz-adv-x="573" 
d="M291 -7q-244 24 -244 343q0 162 72.5 250t214.5 88q91 0 148 -37t57 -95q0 -36 -23 -61t-52 -25t-50.5 13t-31.5 33q16 27 16 55t-18.5 46t-49.5 18q-118 0 -118 -279q0 -141 37 -212.5t119 -71.5t152 75l33 -32q-93 -104 -206 -110l-5 -30q34 -10 51.5 -28t17.5 -54
t-30.5 -62.5t-79 -26.5t-75 24.5t-26.5 49t13 37t30 12.5t35 -9q-9 -10 -9 -28t8.5 -31t23.5 -13q36 0 36 44.5t-59 50.5l-21 24z" />
    <glyph glyph-name="Egrave" unicode="&#xc8;" horiz-adv-x="578" 
d="M531 502q-23 -7 -37.5 -7t-36.5 4q-15 69 -43 107h-168v-237l93 7q18 2 33.5 20t22.5 47h52v-207h-52q-14 40 -27 56t-30 18l-92 8v-256h175q32 48 47 127q21 3 39.5 3t34.5 -3l-10 -189h-494l4 41q39 6 57 25v535q-24 21 -61 29l3 37h486zM229 892q34 0 57 -34l80 -119
l-34 -33l-117 83q-31 22 -33 56q0 21 13 34t34 13z" />
    <glyph glyph-name="Eacute" unicode="&#xc9;" horiz-adv-x="578" 
d="M531 502q-23 -7 -37.5 -7t-36.5 4q-15 69 -43 107h-168v-237l93 7q18 2 33.5 20t22.5 47h52v-207h-52q-14 40 -27 56t-30 18l-92 8v-256h175q32 48 47 127q21 3 39.5 3t34.5 -3l-10 -189h-494l4 41q39 6 57 25v535q-24 21 -61 29l3 37h486zM381 899q21 0 33.5 -13
t12.5 -34q0 -34 -32 -56l-117 -83l-34 33l80 119q22 34 57 34z" />
    <glyph glyph-name="Ecircumflex" unicode="&#xca;" horiz-adv-x="578" 
d="M531 502q-23 -7 -37.5 -7t-36.5 4q-15 69 -43 107h-168v-237l93 7q18 2 33.5 20t22.5 47h52v-207h-52q-14 40 -27 56t-30 18l-92 8v-256h175q32 48 47 127q21 3 39.5 3t34.5 -3l-10 -189h-494l4 41q39 6 57 25v535q-24 21 -61 29l3 37h486zM252 849q24 27 54 27t54 -27
l95 -107l-29 -37l-120 83l-120 -83l-29 37z" />
    <glyph glyph-name="Edieresis" unicode="&#xcb;" horiz-adv-x="578" 
d="M531 502q-23 -7 -37.5 -7t-36.5 4q-15 69 -43 107h-168v-237l93 7q18 2 33.5 20t22.5 47h52v-207h-52q-14 40 -27 56t-30 18l-92 8v-256h175q32 48 47 127q21 3 39.5 3t34.5 -3l-10 -189h-494l4 41q39 6 57 25v535q-24 21 -61 29l3 37h486zM290 774q0 -57 -65.5 -57
t-65.5 57q0 55 65.5 55t65.5 -55zM454 774q0 -57 -66 -57t-66 57q0 55 66 55t66 -55z" />
    <glyph glyph-name="Igrave" unicode="&#xcc;" horiz-adv-x="350" 
d="M25 626l5 41h293l-6 -41q-43 -8 -69 -30v-525q20 -19 75 -30l-7 -41h-291l4 41q45 7 72 30v525q-22 22 -76 30zM103 892q34 0 57 -34l80 -119l-34 -33l-117 83q-31 22 -33 56q0 21 13 34t34 13z" />
    <glyph glyph-name="Iacute" unicode="&#xcd;" horiz-adv-x="350" 
d="M25 626l5 41h293l-6 -41q-43 -8 -69 -30v-525q20 -19 75 -30l-7 -41h-291l4 41q45 7 72 30v525q-22 22 -76 30zM255 899q21 0 33.5 -13t12.5 -34q0 -34 -32 -56l-117 -83l-34 33l80 119q22 34 57 34z" />
    <glyph glyph-name="Icircumflex" unicode="&#xce;" horiz-adv-x="350" 
d="M25 626l5 41h293l-6 -41q-43 -8 -69 -30v-525q20 -19 75 -30l-7 -41h-291l4 41q45 7 72 30v525q-22 22 -76 30zM126 849q24 27 54 27t54 -27l95 -107l-29 -37l-120 83l-120 -83l-29 37z" />
    <glyph glyph-name="Idieresis" unicode="&#xcf;" horiz-adv-x="350" 
d="M25 626l5 41h293l-6 -41q-43 -8 -69 -30v-525q20 -19 75 -30l-7 -41h-291l4 41q45 7 72 30v525q-22 22 -76 30zM164 774q0 -57 -65.5 -57t-65.5 57q0 55 65.5 55t65.5 -55zM328 774q0 -57 -66 -57t-66 57q0 55 66 55t66 -55z" />
    <glyph glyph-name="Eth" unicode="&#xd0;" horiz-adv-x="709" 
d="M20 292v68h83v237q-18 17 -60 31l4 39h214q205 0 298 -80t93 -254t-94 -253.5t-303 -79.5h-212l4 41q32 7 56 29v222h-83zM293 605h-42v-245h132v-68h-132v-226q9 -4 39 -4q108 0 156.5 65t48.5 207.5t-47 206.5t-155 64z" />
    <glyph glyph-name="Ntilde" unicode="&#xd1;" horiz-adv-x="679" 
d="M595 0h-152l-264 460v-389q23 -21 75 -32l-7 -39h-216l4 41q33 6 57 30v525q-21 18 -61 32l4 39h197l276 -484v413q-26 22 -69 30l5 41h218l-6 -39q-39 -12 -61 -32v-596zM410 813q30 0 59 39q30 -11 48 -31q-44 -95 -111 -95q-20 0 -62 19.5t-68 19.5t-54 -38
q-30 12 -48 32q44 94 112 94q20 0 62 -20t62 -20z" />
    <glyph glyph-name="Ograve" unicode="&#xd2;" horiz-adv-x="695" 
d="M245.5 553.5q-31.5 -66.5 -31.5 -219t31.5 -219.5t102 -67t101.5 67t31 219.5t-31 219t-101.5 66.5t-102 -66.5zM124.5 78q-75.5 88 -75.5 256.5t75.5 256t223.5 87.5t223 -87.5t75 -256t-75 -256.5t-223 -88t-223.5 88zM270 892q34 0 57 -34l80 -119l-34 -33l-117 83
q-31 22 -33 56q0 21 13 34t34 13z" />
    <glyph glyph-name="Oacute" unicode="&#xd3;" horiz-adv-x="695" 
d="M245.5 553.5q-31.5 -66.5 -31.5 -219t31.5 -219.5t102 -67t101.5 67t31 219.5t-31 219t-101.5 66.5t-102 -66.5zM124.5 78q-75.5 88 -75.5 256.5t75.5 256t223.5 87.5t223 -87.5t75 -256t-75 -256.5t-223 -88t-223.5 88zM422 899q21 0 33.5 -13t12.5 -34q0 -34 -32 -56
l-117 -83l-34 33l80 119q22 34 57 34z" />
    <glyph glyph-name="Ocircumflex" unicode="&#xd4;" horiz-adv-x="695" 
d="M245.5 553.5q-31.5 -66.5 -31.5 -219t31.5 -219.5t102 -67t101.5 67t31 219.5t-31 219t-101.5 66.5t-102 -66.5zM124.5 78q-75.5 88 -75.5 256.5t75.5 256t223.5 87.5t223 -87.5t75 -256t-75 -256.5t-223 -88t-223.5 88zM293 849q24 27 54 27t54 -27l95 -107l-29 -37
l-120 83l-120 -83l-29 37z" />
    <glyph glyph-name="Otilde" unicode="&#xd5;" horiz-adv-x="695" 
d="M245.5 553.5q-31.5 -66.5 -31.5 -219t31.5 -219.5t102 -67t101.5 67t31 219.5t-31 219t-101.5 66.5t-102 -66.5zM124.5 78q-75.5 88 -75.5 256.5t75.5 256t223.5 87.5t223 -87.5t75 -256t-75 -256.5t-223 -88t-223.5 88zM351 833q41 -20 66.5 -20t54.5 39q30 -11 48 -31
q-44 -95 -111 -95q-21 0 -63 19.5t-62 19.5q-30 0 -59 -38q-30 12 -48 32q44 94 112 94q21 0 62 -20z" />
    <glyph glyph-name="Odieresis" unicode="&#xd6;" horiz-adv-x="695" 
d="M245.5 553.5q-31.5 -66.5 -31.5 -219t31.5 -219.5t102 -67t101.5 67t31 219.5t-31 219t-101.5 66.5t-102 -66.5zM124.5 78q-75.5 88 -75.5 256.5t75.5 256t223.5 87.5t223 -87.5t75 -256t-75 -256.5t-223 -88t-223.5 88zM331 774q0 -57 -65.5 -57t-65.5 57q0 55 65.5 55
t65.5 -55zM495 774q0 -57 -66 -57t-66 57q0 55 66 55t66 -55z" />
    <glyph glyph-name="multiply" unicode="&#xd7;" 
d="M76 441l71 71l150 -151l150 150l67 -67l-151 -150l153 -154l-71 -71l-153 154l-148 -148l-67 67l148 148z" />
    <glyph glyph-name="Oslash" unicode="&#xd8;" horiz-adv-x="695" 
d="M114 90q-65 88 -65 250.5t75.5 250t223.5 87.5q99 0 169 -42l45 61l64 -48l-49 -66q69 -87 69 -252t-75 -253t-223 -88q-106 0 -175 45l-56 -76l-64 48zM480 335q0 56 -5 109l-235 -318q32 -78 105 -78t104 67t31 220zM214 335q0 -64 4 -104l234 316q-31 73 -103 73
t-103.5 -66.5t-31.5 -218.5z" />
    <glyph glyph-name="Ugrave" unicode="&#xd9;" horiz-adv-x="676" 
d="M225 208q0 -148 140 -148q129 0 129 163v375q-19 15 -76 28l5 41h238l-6 -39q-43 -13 -66 -32v-351q0 -93 -24 -145.5t-83.5 -79.5t-137.5 -27q-266 0 -266 215v388q-21 21 -76 30l5 41h293l-6 -41q-44 -9 -69 -30v-388zM265 892q34 0 57 -34l80 -119l-34 -33l-117 83
q-31 22 -33 56q0 21 13 34t34 13z" />
    <glyph glyph-name="Uacute" unicode="&#xda;" horiz-adv-x="676" 
d="M225 208q0 -148 140 -148q129 0 129 163v375q-19 15 -76 28l5 41h238l-6 -39q-43 -13 -66 -32v-351q0 -93 -24 -145.5t-83.5 -79.5t-137.5 -27q-266 0 -266 215v388q-21 21 -76 30l5 41h293l-6 -41q-44 -9 -69 -30v-388zM417 899q21 0 33.5 -13t12.5 -34q0 -34 -32 -56
l-117 -83l-34 33l80 119q22 34 57 34z" />
    <glyph glyph-name="Ucircumflex" unicode="&#xdb;" horiz-adv-x="676" 
d="M225 208q0 -148 140 -148q129 0 129 163v375q-19 15 -76 28l5 41h238l-6 -39q-43 -13 -66 -32v-351q0 -93 -24 -145.5t-83.5 -79.5t-137.5 -27q-266 0 -266 215v388q-21 21 -76 30l5 41h293l-6 -41q-44 -9 -69 -30v-388zM288 849q24 27 54 27t54 -27l95 -107l-29 -37
l-120 83l-120 -83l-29 37z" />
    <glyph glyph-name="Udieresis" unicode="&#xdc;" horiz-adv-x="676" 
d="M225 208q0 -148 140 -148q129 0 129 163v375q-19 15 -76 28l5 41h238l-6 -39q-43 -13 -66 -32v-351q0 -93 -24 -145.5t-83.5 -79.5t-137.5 -27q-266 0 -266 215v388q-21 21 -76 30l5 41h293l-6 -41q-44 -9 -69 -30v-388zM326 774q0 -57 -65.5 -57t-65.5 57q0 55 65.5 55
t65.5 -55zM490 774q0 -57 -66 -57t-66 57q0 55 66 55t66 -55z" />
    <glyph glyph-name="Yacute" unicode="&#xdd;" horiz-adv-x="604" 
d="M65 593q-13 24 -60 34l5 40h271l-6 -40q-42 -2 -62 -22l119 -248l122 240q-26 23 -80 30l5 40h224l-5 -40q-44 -2 -60 -22l-171 -337v-197q23 -21 75 -32l-7 -39h-276l4 41q39 6 57 25v203zM399 899q21 0 33.5 -13t12.5 -34q0 -34 -32 -56l-117 -83l-34 33l80 119
q22 34 57 34z" />
    <glyph glyph-name="Thorn" unicode="&#xde;" horiz-adv-x="617" 
d="M248 537h78q261 0 261 -186q0 -97 -71 -149t-204 -52h-64v-79q20 -19 75 -30l-7 -41h-291l4 41q45 7 72 30v525q-22 22 -76 30l5 41h293l-6 -41q-43 -8 -69 -30v-59zM248 213h65q119 0 119 136q0 61 -31.5 94t-79.5 33t-73 -4v-259z" />
    <glyph glyph-name="germandbls" unicode="&#xdf;" horiz-adv-x="677" 
d="M431 -5q-163 0 -163 92q0 31 19.5 49t46.5 18t52 -20q-13 -13 -13 -36.5t14.5 -36.5t35.5 -13q66 0 66 123q0 70 -46 107t-150 50v73q41 8 75.5 50.5t34.5 86.5t-22 69t-65 25q-70 0 -85 -70q-7 -34 -7 -92v-470h-210l4 36q43 7 66 26v453q0 84 63 127.5t171 43.5
t170.5 -37t62.5 -114q0 -48 -45 -93t-118 -71q115 -20 181.5 -73t66.5 -127.5t-59.5 -125t-145.5 -50.5z" />
    <glyph glyph-name="agrave" unicode="&#xe0;" horiz-adv-x="535" 
d="M172 -7q-69 0 -106 32t-37 93q0 133 197 147l88 6v58q0 70 -16.5 97t-51 27t-53 -14.5t-18.5 -38t22 -40.5q-5 -25 -24 -40t-49 -15t-52 21t-22 52q0 53 50.5 83.5t139.5 30.5q215 0 215 -158v-272q17 -19 60 -27l-4 -35h-180l-10 57q-64 -64 -149 -64zM185 193
q-24 -21 -24 -59q0 -76 60 -76q46 0 93 55v109l-50 -4q-55 -4 -79 -25zM185 702q34 0 57 -34l80 -119l-34 -33l-117 83q-31 22 -33 56q0 21 13 34t34 13z" />
    <glyph glyph-name="aacute" unicode="&#xe1;" horiz-adv-x="535" 
d="M172 -7q-69 0 -106 32t-37 93q0 133 197 147l88 6v58q0 70 -16.5 97t-51 27t-53 -14.5t-18.5 -38t22 -40.5q-5 -25 -24 -40t-49 -15t-52 21t-22 52q0 53 50.5 83.5t139.5 30.5q215 0 215 -158v-272q17 -19 60 -27l-4 -35h-180l-10 57q-64 -64 -149 -64zM185 193
q-24 -21 -24 -59q0 -76 60 -76q46 0 93 55v109l-50 -4q-55 -4 -79 -25zM337 709q21 0 33.5 -13t12.5 -34q0 -34 -32 -56l-117 -83l-34 33l80 119q22 34 57 34z" />
    <glyph glyph-name="acircumflex" unicode="&#xe2;" horiz-adv-x="535" 
d="M172 -7q-69 0 -106 32t-37 93q0 133 197 147l88 6v58q0 70 -16.5 97t-51 27t-53 -14.5t-18.5 -38t22 -40.5q-5 -25 -24 -40t-49 -15t-52 21t-22 52q0 53 50.5 83.5t139.5 30.5q215 0 215 -158v-272q17 -19 60 -27l-4 -35h-180l-10 57q-64 -64 -149 -64zM185 193
q-24 -21 -24 -59q0 -76 60 -76q46 0 93 55v109l-50 -4q-55 -4 -79 -25zM208 659q24 27 54 27t54 -27l95 -107l-29 -37l-120 83l-120 -83l-29 37z" />
    <glyph glyph-name="atilde" unicode="&#xe3;" horiz-adv-x="535" 
d="M172 -7q-69 0 -106 32t-37 93q0 133 197 147l88 6v58q0 70 -16.5 97t-51 27t-53 -14.5t-18.5 -38t22 -40.5q-5 -25 -24 -40t-49 -15t-52 21t-22 52q0 53 50.5 83.5t139.5 30.5q215 0 215 -158v-272q17 -19 60 -27l-4 -35h-180l-10 57q-64 -64 -149 -64zM185 193
q-24 -21 -24 -59q0 -76 60 -76q46 0 93 55v109l-50 -4q-55 -4 -79 -25zM328 623q30 0 59 39q30 -11 48 -31q-44 -95 -111 -95q-20 0 -62 19.5t-68 19.5t-54 -38q-30 12 -48 32q44 94 112 94q20 0 62 -20t62 -20z" />
    <glyph glyph-name="adieresis" unicode="&#xe4;" horiz-adv-x="535" 
d="M172 -7q-69 0 -106 32t-37 93q0 133 197 147l88 6v58q0 70 -16.5 97t-51 27t-53 -14.5t-18.5 -38t22 -40.5q-5 -25 -24 -40t-49 -15t-52 21t-22 52q0 53 50.5 83.5t139.5 30.5q215 0 215 -158v-272q17 -19 60 -27l-4 -35h-180l-10 57q-64 -64 -149 -64zM185 193
q-24 -21 -24 -59q0 -76 60 -76q46 0 93 55v109l-50 -4q-55 -4 -79 -25zM246 607q0 -57 -65.5 -57t-65.5 57q0 55 65.5 55t65.5 -55zM410 607q0 -57 -66 -57t-66 57q0 55 66 55t66 -55z" />
    <glyph glyph-name="aring" unicode="&#xe5;" horiz-adv-x="535" 
d="M172 -7q-69 0 -106 32t-37 93q0 133 197 147l88 6v58q0 70 -16.5 97t-51 27t-53 -14.5t-18.5 -38t22 -40.5q-5 -25 -24 -40t-49 -15t-52 21t-22 52q0 53 50.5 83.5t139.5 30.5q215 0 215 -158v-272q17 -19 60 -27l-4 -35h-180l-10 57q-64 -64 -149 -64zM185 193
q-24 -21 -24 -59q0 -76 60 -76q46 0 93 55v109l-50 -4q-55 -4 -79 -25zM151 616q0 44 30.5 73.5t81.5 29.5t82 -29.5t31 -73.5t-31 -73t-82 -29t-81.5 29t-30.5 73zM223 616.5q0 -55.5 40.5 -55.5t40.5 55.5t-40.5 55.5t-40.5 -55.5z" />
    <glyph glyph-name="ae" unicode="&#xe6;" horiz-adv-x="794" 
d="M458 243v-16q0 -84 24 -124.5t90 -40.5q84 0 138 55l40 -39q-41 -41 -85.5 -63t-116.5 -22q-130 0 -190 84q-29 -36 -80 -60t-113 -24t-99 32t-37 93q0 133 197 147l88 6v58q0 70 -16.5 97t-51 27t-53 -14.5t-18.5 -38t22 -40.5q-5 -25 -24 -40t-49 -15t-52 21t-22 52
q0 53 50.5 83.5t150 30.5t154.5 -43q58 43 160.5 43t149.5 -52t53 -155l-28 -42h-282zM552 443q-91 0 -94 -160l168 8q0 80 -16 116t-58 36zM185 193q-24 -21 -24 -59q0 -76 60 -76q46 0 93 55v109l-50 -4q-55 -4 -79 -25z" />
    <glyph glyph-name="ccedilla" unicode="&#xe7;" horiz-adv-x="469" 
d="M44 236q0 124 60.5 188.5t175.5 64.5q77 0 125.5 -28.5t48.5 -73.5q0 -29 -22.5 -49t-50.5 -20t-47.5 12t-25.5 30q12 18 12 38.5t-14 32.5t-35 12q-80 0 -80 -195q0 -107 26.5 -152t89.5 -45t121 53l36 -36q-67 -70 -172 -75l-5 -32q34 -10 51.5 -28t17.5 -54
t-30.5 -62.5t-79 -26.5t-75 24.5t-26.5 49t12.5 37t30 12.5t35.5 -9q-9 -10 -9 -28t8.5 -31t23.5 -13q36 0 36 44.5t-59 50.5l-21 24l37 45q-195 20 -195 240z" />
    <glyph glyph-name="egrave" unicode="&#xe8;" horiz-adv-x="531" 
d="M186 243v-16q0 -84 24 -124.5t90 -40.5q84 0 138 55l40 -39q-41 -41 -85.5 -63t-116.5 -22q-116 0 -174.5 65.5t-58.5 182t62 184t176.5 67.5t161.5 -52t53 -155l-28 -42h-282zM280 443q-91 0 -94 -160l168 8q0 80 -16 116t-58 36zM212 702q34 0 57 -34l80 -119l-34 -33
l-117 83q-31 22 -33 56q0 21 13 34t34 13z" />
    <glyph glyph-name="eacute" unicode="&#xe9;" horiz-adv-x="531" 
d="M186 243v-16q0 -84 24 -124.5t90 -40.5q84 0 138 55l40 -39q-41 -41 -85.5 -63t-116.5 -22q-116 0 -174.5 65.5t-58.5 182t62 184t176.5 67.5t161.5 -52t53 -155l-28 -42h-282zM280 443q-91 0 -94 -160l168 8q0 80 -16 116t-58 36zM364 709q21 0 33.5 -13t12.5 -34
q0 -34 -32 -56l-117 -83l-34 33l80 119q22 34 57 34z" />
    <glyph glyph-name="ecircumflex" unicode="&#xea;" horiz-adv-x="531" 
d="M186 243v-16q0 -84 24 -124.5t90 -40.5q84 0 138 55l40 -39q-41 -41 -85.5 -63t-116.5 -22q-116 0 -174.5 65.5t-58.5 182t62 184t176.5 67.5t161.5 -52t53 -155l-28 -42h-282zM280 443q-91 0 -94 -160l168 8q0 80 -16 116t-58 36zM235 659q24 27 54 27t54 -27l95 -107
l-29 -37l-120 83l-120 -83l-29 37z" />
    <glyph glyph-name="edieresis" unicode="&#xeb;" horiz-adv-x="531" 
d="M186 243v-16q0 -84 24 -124.5t90 -40.5q84 0 138 55l40 -39q-41 -41 -85.5 -63t-116.5 -22q-116 0 -174.5 65.5t-58.5 182t62 184t176.5 67.5t161.5 -52t53 -155l-28 -42h-282zM280 443q-91 0 -94 -160l168 8q0 80 -16 116t-58 36zM273 607q0 -57 -65.5 -57t-65.5 57
q0 55 65.5 55t65.5 -55zM437 607q0 -57 -66 -57t-66 57q0 55 66 55t66 -55z" />
    <glyph glyph-name="igrave" unicode="&#xec;" horiz-adv-x="314" 
d="M93 354q0 36 -13.5 49.5t-48.5 15.5l3 39q13 3 54 10q97 15 129 24l17 -9v-417q25 -19 64 -27l-4 -39h-257l4 41q33 7 52 25v288zM75 702q34 0 57 -34l80 -119l-34 -33l-117 83q-31 22 -33 56q0 21 13 34t34 13z" />
    <glyph glyph-name="iacute" unicode="&#xed;" horiz-adv-x="314" 
d="M93 354q0 36 -13.5 49.5t-48.5 15.5l3 39q13 3 54 10q97 15 129 24l17 -9v-417q25 -19 64 -27l-4 -39h-257l4 41q33 7 52 25v288zM227 709q21 0 33.5 -13t12.5 -34q0 -34 -32 -56l-117 -83l-34 33l80 119q22 34 57 34z" />
    <glyph glyph-name="icircumflex" unicode="&#xee;" horiz-adv-x="314" 
d="M93 354q0 36 -13.5 49.5t-48.5 15.5l3 39q13 3 54 10q97 15 129 24l17 -9v-417q25 -19 64 -27l-4 -39h-257l4 41q33 7 52 25v288zM98 659q24 27 54 27t54 -27l95 -107l-29 -37l-120 83l-120 -83l-29 37z" />
    <glyph glyph-name="idieresis" unicode="&#xef;" horiz-adv-x="314" 
d="M93 354q0 36 -13.5 49.5t-48.5 15.5l3 39q13 3 54 10q97 15 129 24l17 -9v-417q25 -19 64 -27l-4 -39h-257l4 41q33 7 52 25v288zM136 607q0 -57 -65.5 -57t-65.5 57q0 55 65.5 55t65.5 -55zM300 607q0 -57 -66 -57t-66 57q0 55 66 55t66 -55z" />
    <glyph glyph-name="eth" unicode="&#xf0;" horiz-adv-x="572" 
d="M516 267v-32q0 -118 -63.5 -180t-177 -62t-177 60t-63.5 177.5t64.5 181.5t189.5 64q27 0 51 -6q-19 50 -55 86l-136 -51l-22 54l102 41q-38 25 -103 51l24 49q92 -23 166 -65l107 43l25 -61l-70 -26q138 -117 138 -324zM369 278q0 71 -11 129q-30 13 -75.5 13t-73 -50.5
t-27.5 -141.5q0 -179 93 -179q51 0 72.5 46t21.5 144v39z" />
    <glyph glyph-name="ntilde" unicode="&#xf1;" horiz-adv-x="604" 
d="M382 329q0 96 -62 96q-26 0 -50.5 -15t-38.5 -40v-304q23 -18 60 -27l-4 -39h-253l3 41q32 6 53 25v288q0 36 -14 49.5t-49 15.5l3 39q150 28 171 34l18 -9l8 -58q57 67 147 67q68 0 108.5 -41t40.5 -113v-272q25 -19 64 -27l-4 -39h-253l3 39q30 6 49 27v263zM384 623
q30 0 59 39q30 -11 48 -31q-44 -95 -111 -95q-21 0 -62.5 19.5t-67.5 19.5t-54 -38q-30 12 -48 32q44 94 112 94q20 0 62 -20t62 -20z" />
    <glyph glyph-name="ograve" unicode="&#xf2;" horiz-adv-x="569" 
d="M213 391q-22 -45 -22 -148.5t22 -148.5t72 -45t71.5 45.5t21.5 148.5t-21.5 148t-71.5 45t-72 -45zM44 243q0 122 61 185.5t180 63.5t179.5 -63.5t60.5 -185.5t-60.5 -186t-179.5 -64t-180 64t-61 186zM207 702q34 0 57 -34l80 -119l-34 -33l-117 83q-31 22 -33 56
q0 21 13 34t34 13z" />
    <glyph glyph-name="oacute" unicode="&#xf3;" horiz-adv-x="569" 
d="M213 391q-22 -45 -22 -148.5t22 -148.5t72 -45t71.5 45.5t21.5 148.5t-21.5 148t-71.5 45t-72 -45zM44 243q0 122 61 185.5t180 63.5t179.5 -63.5t60.5 -185.5t-60.5 -186t-179.5 -64t-180 64t-61 186zM359 709q21 0 33.5 -13t12.5 -34q0 -34 -32 -56l-117 -83l-34 33
l80 119q22 34 57 34z" />
    <glyph glyph-name="ocircumflex" unicode="&#xf4;" horiz-adv-x="569" 
d="M213 391q-22 -45 -22 -148.5t22 -148.5t72 -45t71.5 45.5t21.5 148.5t-21.5 148t-71.5 45t-72 -45zM44 243q0 122 61 185.5t180 63.5t179.5 -63.5t60.5 -185.5t-60.5 -186t-179.5 -64t-180 64t-61 186zM230 659q24 27 54 27t54 -27l95 -107l-29 -37l-120 83l-120 -83
l-29 37z" />
    <glyph glyph-name="otilde" unicode="&#xf5;" horiz-adv-x="569" 
d="M213 391q-22 -45 -22 -148.5t22 -148.5t72 -45t71.5 45.5t21.5 148.5t-21.5 148t-71.5 45t-72 -45zM44 243q0 122 61 185.5t180 63.5t179.5 -63.5t60.5 -185.5t-60.5 -186t-179.5 -64t-180 64t-61 186zM350 623q30 0 59 39q30 -11 48 -31q-44 -95 -111 -95
q-20 0 -62 19.5t-68 19.5t-54 -38q-30 12 -48 32q44 94 112 94q20 0 62 -20t62 -20z" />
    <glyph glyph-name="odieresis" unicode="&#xf6;" horiz-adv-x="569" 
d="M213 391q-22 -45 -22 -148.5t22 -148.5t72 -45t71.5 45.5t21.5 148.5t-21.5 148t-71.5 45t-72 -45zM44 243q0 122 61 185.5t180 63.5t179.5 -63.5t60.5 -185.5t-60.5 -186t-179.5 -64t-180 64t-61 186zM268 607q0 -57 -65.5 -57t-65.5 57q0 55 65.5 55t65.5 -55zM432 607
q0 -57 -66 -57t-66 57q0 55 66 55t66 -55z" />
    <glyph glyph-name="divide" unicode="&#xf7;" 
d="M60 238v95h469v-95h-469zM223 120q0 30 21.5 51.5t51.5 21.5t51.5 -21.5t21.5 -51.5t-21.5 -51.5t-51.5 -21.5t-51.5 21.5t-21.5 51.5zM223 451q0 30 21.5 51.5t51.5 21.5t51.5 -21.5t21.5 -51.5t-21.5 -51.5t-51.5 -21.5t-51.5 21.5t-21.5 51.5z" />
    <glyph glyph-name="oslash" unicode="&#xf8;" horiz-adv-x="569" 
d="M101 60q-57 63 -57 184t61 184.5t180 63.5q71 0 119 -22l44 60l61 -52l-40 -54q56 -64 56 -183.5t-60.5 -183.5t-179.5 -64q-69 0 -118 21l-41 -55l-64 48zM191 243q0 -41 2 -59l158 215q-22 37 -69 37t-69 -45t-22 -148zM378 243q0 22 -2 54l-158 -213q22 -35 69.5 -35
t69 45.5t21.5 148.5z" />
    <glyph glyph-name="ugrave" unicode="&#xf9;" horiz-adv-x="597" 
d="M230 -7q-68 0 -109 41t-41 113v207q0 36 -13.5 49.5t-48.5 15.5l3 39q13 3 55 10q96 15 128 24l17 -9v-327q0 -96 62 -96q26 0 50.5 15t39.5 40v239q0 36 -14 49.5t-49 15.5l3 39q13 3 55 10q96 15 128 24l18 -9v-421q22 -19 69 -27l-3 -35h-191l-10 64q-58 -71 -149 -71
zM216 702q34 0 57 -34l80 -119l-34 -33l-117 83q-31 22 -33 56q0 21 13 34t34 13z" />
    <glyph glyph-name="uacute" unicode="&#xfa;" horiz-adv-x="597" 
d="M230 -7q-68 0 -109 41t-41 113v207q0 36 -13.5 49.5t-48.5 15.5l3 39q13 3 55 10q96 15 128 24l17 -9v-327q0 -96 62 -96q26 0 50.5 15t39.5 40v239q0 36 -14 49.5t-49 15.5l3 39q13 3 55 10q96 15 128 24l18 -9v-421q22 -19 69 -27l-3 -35h-191l-10 64q-58 -71 -149 -71
zM368 709q21 0 33.5 -13t12.5 -34q0 -34 -32 -56l-117 -83l-34 33l80 119q22 34 57 34z" />
    <glyph glyph-name="ucircumflex" unicode="&#xfb;" horiz-adv-x="597" 
d="M230 -7q-68 0 -109 41t-41 113v207q0 36 -13.5 49.5t-48.5 15.5l3 39q13 3 55 10q96 15 128 24l17 -9v-327q0 -96 62 -96q26 0 50.5 15t39.5 40v239q0 36 -14 49.5t-49 15.5l3 39q13 3 55 10q96 15 128 24l18 -9v-421q22 -19 69 -27l-3 -35h-191l-10 64q-58 -71 -149 -71
zM239 659q24 27 54 27t54 -27l95 -107l-29 -37l-120 83l-120 -83l-29 37z" />
    <glyph glyph-name="udieresis" unicode="&#xfc;" horiz-adv-x="597" 
d="M230 -7q-68 0 -109 41t-41 113v207q0 36 -13.5 49.5t-48.5 15.5l3 39q13 3 55 10q96 15 128 24l17 -9v-327q0 -96 62 -96q26 0 50.5 15t39.5 40v239q0 36 -14 49.5t-49 15.5l3 39q13 3 55 10q96 15 128 24l18 -9v-421q22 -19 69 -27l-3 -35h-191l-10 64q-58 -71 -149 -71
zM277 607q0 -57 -65.5 -57t-65.5 57q0 55 65.5 55t65.5 -55zM441 607q0 -57 -66 -57t-66 57q0 55 66 55t66 -55z" />
    <glyph glyph-name="yacute" unicode="&#xfd;" horiz-adv-x="531" 
d="M206 -193q-32 -27 -82 -27t-78 20t-28 53.5t16 51.5t43.5 18t48.5 -24q-11 -9 -11 -30q0 -31 27 -31q17 0 31.5 19t33.5 67l30 76h-34l-144 407q-12 33 -62 42l2 35h262l-5 -35q-37 -1 -57 -19l99 -279l110 276q-23 15 -65 22l4 35h186l-4 -35q-44 -2 -52 -24l-213 -528
q-26 -63 -58 -90zM377 709q21 0 33.5 -13t12.5 -34q0 -34 -32 -56l-117 -83l-34 33l80 119q22 34 57 34z" />
    <glyph glyph-name="thorn" unicode="&#xfe;" horiz-adv-x="591" 
d="M83 558q0 37 -13.5 50.5t-48.5 15.5l2 39q143 22 184 34l17 -10v-262q44 67 134.5 67t138 -60t47.5 -181.5t-59.5 -189.5t-166.5 -68q-50 0 -94 15v-153q30 -19 74 -27l-4 -39h-267l4 41q33 7 52 25v703zM315 432q-43 0 -67 -42t-24 -122v-203q27 -19 66 -19
q108 0 108 210q0 176 -83 176z" />
    <glyph glyph-name="ydieresis" unicode="&#xff;" horiz-adv-x="531" 
d="M206 -193q-32 -27 -82 -27t-78 20t-28 53.5t16 51.5t43.5 18t48.5 -24q-11 -9 -11 -30q0 -31 27 -31q17 0 31.5 19t33.5 67l30 76h-34l-144 407q-12 33 -62 42l2 35h262l-5 -35q-37 -1 -57 -19l99 -279l110 276q-23 15 -65 22l4 35h186l-4 -35q-44 -2 -52 -24l-213 -528
q-26 -63 -58 -90zM286 607q0 -57 -65.5 -57t-65.5 57q0 55 65.5 55t65.5 -55zM450 607q0 -57 -66 -57t-66 57q0 55 66 55t66 -55z" />
    <glyph glyph-name="Amacron" unicode="&#x100;" horiz-adv-x="652" 
d="M439 65l-47 143h-206l-48 -138q28 -23 85 -30l-5 -40h-226l6 40q46 2 61 25l213 602h104l215 -593q16 -26 61 -34l-5 -40h-274l6 40q46 7 60 25zM293 511l-85 -240h163zM167 740v68h311v-68h-311z" />
    <glyph glyph-name="amacron" unicode="&#x101;" horiz-adv-x="535" 
d="M172 -7q-69 0 -106 32t-37 93q0 133 197 147l88 6v58q0 70 -16.5 97t-51 27t-53 -14.5t-18.5 -38t22 -40.5q-5 -25 -24 -40t-49 -15t-52 21t-22 52q0 53 50.5 83.5t139.5 30.5q215 0 215 -158v-272q17 -19 60 -27l-4 -35h-180l-10 57q-64 -64 -149 -64zM185 193
q-24 -21 -24 -59q0 -76 60 -76q46 0 93 55v109l-50 -4q-55 -4 -79 -25zM106 552v68h311v-68h-311z" />
    <glyph glyph-name="Abreve" unicode="&#x102;" horiz-adv-x="652" 
d="M439 65l-47 143h-206l-48 -138q28 -23 85 -30l-5 -40h-226l6 40q46 2 61 25l213 602h104l215 -593q16 -26 61 -34l-5 -40h-274l6 40q46 7 60 25zM293 511l-85 -240h163zM324 702q-60 0 -99 37t-44 99q22 11 60 11q11 -69 83 -69t83 69q33 0 59 -10q-5 -62 -43.5 -99.5
t-98.5 -37.5z" />
    <glyph glyph-name="abreve" unicode="&#x103;" horiz-adv-x="535" 
d="M172 -7q-69 0 -106 32t-37 93q0 133 197 147l88 6v58q0 70 -16.5 97t-51 27t-53 -14.5t-18.5 -38t22 -40.5q-5 -25 -24 -40t-49 -15t-52 21t-22 52q0 53 50.5 83.5t139.5 30.5q215 0 215 -158v-272q17 -19 60 -27l-4 -35h-180l-10 57q-64 -64 -149 -64zM185 193
q-24 -21 -24 -59q0 -76 60 -76q46 0 93 55v109l-50 -4q-55 -4 -79 -25zM263 522q-60 0 -99 37t-44 99q22 11 60 11q11 -69 83 -69t83 69q33 0 59 -10q-5 -62 -43.5 -99.5t-98.5 -37.5z" />
    <glyph glyph-name="Aogonek" unicode="&#x104;" horiz-adv-x="652" 
d="M567 0q-51 0 -78 -34.5t-27 -72.5t28 -38q23 0 50 23l26 -35q-39 -47 -105 -47q-39 0 -66.5 22.5t-27.5 54t20 58.5t40 50.5t20 38.5t-8 45l-47 143h-206l-48 -138q28 -23 85 -30l-5 -40h-226l6 40q46 2 61 25l213 602h104l215 -593q16 -26 61 -34l-5 -40h-80zM293 511
l-85 -240h163z" />
    <glyph glyph-name="aogonek" unicode="&#x105;" horiz-adv-x="535" 
d="M446 0q-51 0 -78 -34.5t-27 -72.5t28 -38q23 0 50 23l26 -35q-39 -47 -105 -47q-39 0 -66.5 22.5t-27.5 57t40 81.5t40 68t-6 31q-64 -63 -140 -63q-151 0 -151 125q0 133 197 147l88 6v58q0 70 -16.5 97t-51 27t-53 -14.5t-18.5 -38t22 -40.5q-5 -25 -24 -40t-49 -15
t-52 21t-22 52q0 53 50.5 83.5t139.5 30.5q215 0 215 -158v-272q17 -19 60 -27l-4 -35h-65zM185 193q-24 -21 -24 -59q0 -76 60 -76q46 0 93 55v109l-50 -4q-55 -4 -79 -25z" />
    <glyph glyph-name="Cacute" unicode="&#x106;" horiz-adv-x="573" 
d="M335 -10q-141 0 -214.5 85t-73.5 254t72.5 257t214.5 88q91 0 148 -37t57 -95q0 -36 -23 -61t-52 -25t-50.5 13t-31.5 33q16 27 16 55t-18.5 46t-49.5 18q-118 0 -118 -279q0 -141 37 -212.5t119 -71.5t152 75l33 -32q-47 -53 -104.5 -82t-113.5 -29zM390 899
q21 0 33.5 -13t12.5 -34q0 -34 -32 -56l-117 -83l-34 33l80 119q22 34 57 34z" />
    <glyph glyph-name="cacute" unicode="&#x107;" horiz-adv-x="469" 
d="M464 68q-72 -75 -186 -75t-174 62t-60 183.5t60.5 186t175.5 64.5q77 0 125.5 -28.5t48.5 -73.5q0 -29 -22.5 -49t-50.5 -20t-47.5 12t-25.5 30q12 18 12 38.5t-14 32.5t-35 12q-80 0 -80 -195q0 -107 26.5 -152t89.5 -45t121 53zM360 709q21 0 33.5 -13t12.5 -34
q0 -34 -32 -56l-117 -83l-34 33l80 119q22 34 57 34z" />
    <glyph glyph-name="Ccircumflex" unicode="&#x108;" horiz-adv-x="573" 
d="M335 -10q-141 0 -214.5 85t-73.5 254t72.5 257t214.5 88q91 0 148 -37t57 -95q0 -36 -23 -61t-52 -25t-50.5 13t-31.5 33q16 27 16 55t-18.5 46t-49.5 18q-118 0 -118 -279q0 -141 37 -212.5t119 -71.5t152 75l33 -32q-47 -53 -104.5 -82t-113.5 -29zM261 849
q24 27 54 27t54 -27l95 -107l-29 -37l-120 83l-120 -83l-29 37z" />
    <glyph glyph-name="ccircumflex" unicode="&#x109;" horiz-adv-x="469" 
d="M464 68q-72 -75 -186 -75t-174 62t-60 183.5t60.5 186t175.5 64.5q77 0 125.5 -28.5t48.5 -73.5q0 -29 -22.5 -49t-50.5 -20t-47.5 12t-25.5 30q12 18 12 38.5t-14 32.5t-35 12q-80 0 -80 -195q0 -107 26.5 -152t89.5 -45t121 53zM231 659q24 27 54 27t54 -27l95 -107
l-29 -37l-120 83l-120 -83l-29 37z" />
    <glyph glyph-name="Cdotaccent" unicode="&#x10a;" horiz-adv-x="573" 
d="M335 -10q-141 0 -214.5 85t-73.5 254t72.5 257t214.5 88q91 0 148 -37t57 -95q0 -36 -23 -61t-52 -25t-50.5 13t-31.5 33q16 27 16 55t-18.5 46t-49.5 18q-118 0 -118 -279q0 -141 37 -212.5t119 -71.5t152 75l33 -32q-47 -53 -104.5 -82t-113.5 -29zM394 784
q0 -70 -79.5 -70t-79.5 70t79.5 70t79.5 -70z" />
    <glyph glyph-name="cdotaccent" unicode="&#x10b;" horiz-adv-x="469" 
d="M464 68q-72 -75 -186 -75t-174 62t-60 183.5t60.5 186t175.5 64.5q77 0 125.5 -28.5t48.5 -73.5q0 -29 -22.5 -49t-50.5 -20t-47.5 12t-25.5 30q12 18 12 38.5t-14 32.5t-35 12q-80 0 -80 -195q0 -107 26.5 -152t89.5 -45t121 53zM364 620q0 -70 -79.5 -70t-79.5 70
t79.5 70t79.5 -70z" />
    <glyph glyph-name="Ccaron" unicode="&#x10c;" horiz-adv-x="573" 
d="M335 -10q-141 0 -214.5 85t-73.5 254t72.5 257t214.5 88q91 0 148 -37t57 -95q0 -36 -23 -61t-52 -25t-50.5 13t-31.5 33q16 27 16 55t-18.5 46t-49.5 18q-118 0 -118 -279q0 -141 37 -212.5t119 -71.5t152 75l33 -32q-47 -53 -104.5 -82t-113.5 -29zM368 732
q-24 -27 -54 -27t-54 27l-95 107l29 37l120 -83l120 83l29 -37z" />
    <glyph glyph-name="ccaron" unicode="&#x10d;" horiz-adv-x="469" 
d="M464 68q-72 -75 -186 -75t-174 62t-60 183.5t60.5 186t175.5 64.5q77 0 125.5 -28.5t48.5 -73.5q0 -29 -22.5 -49t-50.5 -20t-47.5 12t-25.5 30q12 18 12 38.5t-14 32.5t-35 12q-80 0 -80 -195q0 -107 26.5 -152t89.5 -45t121 53zM338 542q-24 -27 -54 -27t-54 27
l-95 107l29 37l120 -83l120 83l29 -37z" />
    <glyph glyph-name="Dcaron" unicode="&#x10e;" horiz-adv-x="705" 
d="M260 667q205 0 298 -80t93 -254t-94 -253.5t-303 -79.5h-212l4 41q32 7 56 29v527q-18 17 -60 31l4 39h214zM292 605h-42v-539q9 -4 39 -4q108 0 156.5 65t48.5 207.5t-47 206.5t-155 64zM376 732q-24 -27 -54 -27t-54 27l-95 107l29 37l120 -83l120 83l29 -37z" />
    <glyph glyph-name="dcaron" unicode="&#x10f;" horiz-adv-x="725" 
d="M574 498q19 52 19 87.5t-24 55.5q17 26 49 26t48.5 -14.5t16.5 -36.5q0 -57 -61 -138zM373 65q-43 -72 -136 -72t-140.5 60t-47.5 182t57.5 189.5t163.5 67.5q53 0 99 -24v90q0 37 -15 50.5t-55 15.5l3 39q141 20 191 34l17 -10v-625q21 -19 60 -27l-4 -35h-180zM369 234
v185q-27 19 -65 19q-109 0 -109 -209q0 -176 83 -176q91 0 91 181z" />
    <glyph glyph-name="Dcroat" unicode="&#x110;" horiz-adv-x="709" 
d="M20 292v68h83v237q-18 17 -60 31l4 39h214q205 0 298 -80t93 -254t-94 -253.5t-303 -79.5h-212l4 41q32 7 56 29v222h-83zM293 605h-42v-245h132v-68h-132v-226q9 -4 39 -4q108 0 156.5 65t48.5 207.5t-47 206.5t-155 64z" />
    <glyph glyph-name="dcroat" unicode="&#x111;" horiz-adv-x="597" 
d="M249 513v68h113q-4 23 -19.5 32t-48.5 11l3 39q141 20 191 34l17 -10v-106h55v-68h-55v-451q21 -19 60 -27l-4 -35h-180l-13 65q-44 -72 -136.5 -72t-140 60t-47.5 182t57.5 189.5t163.5 67.5q53 0 99 -24v45h-115zM364 234v185q-27 19 -65 19q-109 0 -109 -209
q0 -176 83 -176q91 0 91 181z" />
    <glyph glyph-name="Emacron" unicode="&#x112;" horiz-adv-x="578" 
d="M531 502q-23 -7 -37.5 -7t-36.5 4q-15 69 -43 107h-168v-237l93 7q18 2 33.5 20t22.5 47h52v-207h-52q-14 40 -27 56t-30 18l-92 8v-256h175q32 48 47 127q21 3 39.5 3t34.5 -3l-10 -189h-494l4 41q39 6 57 25v535q-24 21 -61 29l3 37h486zM150 740v68h311v-68h-311z" />
    <glyph glyph-name="emacron" unicode="&#x113;" horiz-adv-x="531" 
d="M186 243v-16q0 -84 24 -124.5t90 -40.5q84 0 138 55l40 -39q-41 -41 -85.5 -63t-116.5 -22q-116 0 -174.5 65.5t-58.5 182t62 184t176.5 67.5t161.5 -52t53 -155l-28 -42h-282zM280 443q-91 0 -94 -160l168 8q0 80 -16 116t-58 36zM133 552v68h311v-68h-311z" />
    <glyph glyph-name="Ebreve" unicode="&#x114;" horiz-adv-x="578" 
d="M531 502q-23 -7 -37.5 -7t-36.5 4q-15 69 -43 107h-168v-237l93 7q18 2 33.5 20t22.5 47h52v-207h-52q-14 40 -27 56t-30 18l-92 8v-256h175q32 48 47 127q21 3 39.5 3t34.5 -3l-10 -189h-494l4 41q39 6 57 25v535q-24 21 -61 29l3 37h486zM307 702q-60 0 -99 37t-44 99
q22 11 60 11q11 -69 83 -69t83 69q33 0 59 -10q-5 -62 -43.5 -99.5t-98.5 -37.5z" />
    <glyph glyph-name="ebreve" unicode="&#x115;" horiz-adv-x="531" 
d="M186 243v-16q0 -84 24 -124.5t90 -40.5q84 0 138 55l40 -39q-41 -41 -85.5 -63t-116.5 -22q-116 0 -174.5 65.5t-58.5 182t62 184t176.5 67.5t161.5 -52t53 -155l-28 -42h-282zM280 443q-91 0 -94 -160l168 8q0 80 -16 116t-58 36zM290 522q-60 0 -99 37t-44 99
q22 11 60 11q11 -69 83 -69t83 69q33 0 59 -10q-5 -62 -43.5 -99.5t-98.5 -37.5z" />
    <glyph glyph-name="Edotaccent" unicode="&#x116;" horiz-adv-x="578" 
d="M531 502q-23 -7 -37.5 -7t-36.5 4q-15 69 -43 107h-168v-237l93 7q18 2 33.5 20t22.5 47h52v-207h-52q-14 40 -27 56t-30 18l-92 8v-256h175q32 48 47 127q21 3 39.5 3t34.5 -3l-10 -189h-494l4 41q39 6 57 25v535q-24 21 -61 29l3 37h486zM385 784q0 -70 -79.5 -70
t-79.5 70t79.5 70t79.5 -70z" />
    <glyph glyph-name="edotaccent" unicode="&#x117;" horiz-adv-x="531" 
d="M186 243v-16q0 -84 24 -124.5t90 -40.5q84 0 138 55l40 -39q-41 -41 -85.5 -63t-116.5 -22q-116 0 -174.5 65.5t-58.5 182t62 184t176.5 67.5t161.5 -52t53 -155l-28 -42h-282zM280 443q-91 0 -94 -160l168 8q0 80 -16 116t-58 36zM368 620q0 -70 -79.5 -70t-79.5 70
t79.5 70t79.5 -70z" />
    <glyph glyph-name="Eogonek" unicode="&#x118;" horiz-adv-x="578" 
d="M531 502q-23 -7 -37.5 -7t-36.5 4q-15 69 -43 107h-168v-237l93 7q18 2 33.5 20t22.5 47h52v-207h-52q-14 40 -27 56t-30 18l-92 8v-256h175q32 48 47 127q21 3 39.5 3t34.5 -3l-10 -189h-29q-40 0 -66.5 -35.5t-26.5 -72.5t28 -37q23 0 50 23l26 -35q-39 -47 -105 -47
q-39 0 -66.5 22.5t-27.5 60.5q0 31 23 63q9 11 24.5 30.5t21.5 27.5h-346l4 41q39 6 57 25v535q-24 21 -61 29l3 37h486z" />
    <glyph glyph-name="eogonek" unicode="&#x119;" horiz-adv-x="531" 
d="M280 443q-91 0 -94 -160l168 8q0 80 -16 116t-58 36zM305 -6l-29 -1q-116 0 -174.5 65.5t-58.5 182t62 184t176.5 67.5t161.5 -52t53 -155l-28 -42h-282v-16q0 -84 24 -124.5t90 -40.5q84 0 138 55l40 -39q-24 -24 -48.5 -43t-41.5 -35.5t-32.5 -44.5t-15.5 -64t28 -36
q23 0 50 23l26 -35q-39 -47 -105 -47q-39 0 -66.5 22.5t-27.5 60.5q0 36 36 84q21 28 24 31z" />
    <glyph glyph-name="Ecaron" unicode="&#x11a;" horiz-adv-x="578" 
d="M531 502q-23 -7 -37.5 -7t-36.5 4q-15 69 -43 107h-168v-237l93 7q18 2 33.5 20t22.5 47h52v-207h-52q-14 40 -27 56t-30 18l-92 8v-256h175q32 48 47 127q21 3 39.5 3t34.5 -3l-10 -189h-494l4 41q39 6 57 25v535q-24 21 -61 29l3 37h486zM359 732q-24 -27 -54 -27
t-54 27l-95 107l29 37l120 -83l120 83l29 -37z" />
    <glyph glyph-name="ecaron" unicode="&#x11b;" horiz-adv-x="531" 
d="M186 243v-16q0 -84 24 -124.5t90 -40.5q84 0 138 55l40 -39q-41 -41 -85.5 -63t-116.5 -22q-116 0 -174.5 65.5t-58.5 182t62 184t176.5 67.5t161.5 -52t53 -155l-28 -42h-282zM280 443q-91 0 -94 -160l168 8q0 80 -16 116t-58 36zM342 542q-24 -27 -54 -27t-54 27
l-95 107l29 37l120 -83l120 83l29 -37z" />
    <glyph glyph-name="Gcircumflex" unicode="&#x11c;" horiz-adv-x="646" 
d="M584 66q-106 -76 -245.5 -76t-212.5 85.5t-73 253.5t76.5 256.5t225.5 88.5q97 0 158.5 -36.5t61.5 -95.5q0 -36 -23 -61t-52 -25t-50.5 13t-31.5 33q17 28 17 51q0 68 -84 68q-143 0 -143 -279q0 -145 40.5 -214.5t125.5 -69.5q32 0 63 14v181q-19 32 -78 39l5 40l220 8
v-274zM292 849q24 27 54 27t54 -27l95 -107l-29 -37l-120 83l-120 -83l-29 37z" />
    <glyph glyph-name="gcircumflex" unicode="&#x11d;" horiz-adv-x="520" 
d="M202 659q24 27 54 27t54 -27l87 -98q12 6 33.5 6t37 -14.5t15.5 -38.5t-17.5 -48.5t-43.5 -37.5q37 -45 37 -117.5t-56 -118t-151 -45.5h-16l-34 -43q3 -20 58 -20h42q99 0 151 -38.5t52 -112t-61 -113t-177 -39.5t-180 32.5t-64 93.5q0 76 78 128q-15 24 -15 60l87 61
q-61 17 -95 58.5t-34 100.5q0 84 54.5 130.5t144 46.5t142.5 -33q14 12 14 31.5t-17 31.5l-6 -7l-120 83l-120 -83l-29 37zM278 0h-91l-6 -6q-28 -28 -28 -72t28 -64.5t88 -20.5q120 0 120 85q0 78 -111 78zM198.5 220q13.5 -24 54.5 -24t57 25.5t16 93t-17.5 97.5t-54.5 30
t-53 -30t-16 -99t13.5 -93z" />
    <glyph glyph-name="Gbreve" unicode="&#x11e;" horiz-adv-x="646" 
d="M584 66q-106 -76 -245.5 -76t-212.5 85.5t-73 253.5t76.5 256.5t225.5 88.5q97 0 158.5 -36.5t61.5 -95.5q0 -36 -23 -61t-52 -25t-50.5 13t-31.5 33q17 28 17 51q0 68 -84 68q-143 0 -143 -279q0 -145 40.5 -214.5t125.5 -69.5q32 0 63 14v181q-19 32 -78 39l5 40l220 8
v-274zM347 702q-60 0 -99 37t-44 99q22 11 60 11q11 -69 83 -69t83 69q33 0 59 -10q-5 -62 -43.5 -99.5t-98.5 -37.5z" />
    <glyph glyph-name="gbreve" unicode="&#x11f;" horiz-adv-x="520" 
d="M98.5 445.5q54.5 46.5 144 46.5t142.5 -33q14 12 14 34t-28 36q0 16 16.5 27t40.5 11t39.5 -14.5t15.5 -38.5t-17.5 -48.5t-43.5 -37.5q37 -45 37 -117.5t-56 -118t-151 -45.5h-16l-34 -43q3 -20 58 -20h42q99 0 151 -38.5t52 -112t-61 -113t-177 -39.5t-180 32.5
t-64 93.5q0 76 78 128q-15 24 -15 60l87 61q-61 17 -95 58.5t-34 100.5q0 84 54.5 130.5zM278 0h-91l-6 -6q-28 -28 -28 -72t28 -64.5t88 -20.5q120 0 120 85q0 78 -111 78zM198.5 220q13.5 -24 54.5 -24t57 25.5t16 93t-17.5 97.5t-54.5 30t-53 -30t-16 -99t13.5 -93z
M251 522q-60 0 -99 37t-44 99q22 11 60 11q11 -69 83 -69t83 69q33 0 59 -10q-5 -62 -43.5 -99.5t-98.5 -37.5z" />
    <glyph glyph-name="Gdotaccent" unicode="&#x120;" horiz-adv-x="646" 
d="M584 66q-106 -76 -245.5 -76t-212.5 85.5t-73 253.5t76.5 256.5t225.5 88.5q97 0 158.5 -36.5t61.5 -95.5q0 -36 -23 -61t-52 -25t-50.5 13t-31.5 33q17 28 17 51q0 68 -84 68q-143 0 -143 -279q0 -145 40.5 -214.5t125.5 -69.5q32 0 63 14v181q-19 32 -78 39l5 40l220 8
v-274zM425 784q0 -70 -79.5 -70t-79.5 70t79.5 70t79.5 -70z" />
    <glyph glyph-name="gdotaccent" unicode="&#x121;" horiz-adv-x="520" 
d="M98.5 445.5q54.5 46.5 144 46.5t142.5 -33q14 12 14 34t-28 36q0 16 16.5 27t40.5 11t39.5 -14.5t15.5 -38.5t-17.5 -48.5t-43.5 -37.5q37 -45 37 -117.5t-56 -118t-151 -45.5h-16l-34 -43q3 -20 58 -20h42q99 0 151 -38.5t52 -112t-61 -113t-177 -39.5t-180 32.5
t-64 93.5q0 76 78 128q-15 24 -15 60l87 61q-61 17 -95 58.5t-34 100.5q0 84 54.5 130.5zM278 0h-91l-6 -6q-28 -28 -28 -72t28 -64.5t88 -20.5q120 0 120 85q0 78 -111 78zM198.5 220q13.5 -24 54.5 -24t57 25.5t16 93t-17.5 97.5t-54.5 30t-53 -30t-16 -99t13.5 -93z
M335 620q0 -70 -79.5 -70t-79.5 70t79.5 70t79.5 -70z" />
    <glyph glyph-name="uni0122" unicode="&#x122;" horiz-adv-x="646" 
d="M584 66q-106 -76 -245.5 -76t-212.5 85.5t-73 253.5t76.5 256.5t225.5 88.5q97 0 158.5 -36.5t61.5 -95.5q0 -36 -23 -61t-52 -25t-50.5 13t-31.5 33q17 28 17 51q0 68 -84 68q-143 0 -143 -279q0 -145 40.5 -214.5t125.5 -69.5q32 0 63 14v181q-19 32 -78 39l5 40l220 8
v-274zM295 -199q19 52 19 87.5t-24 55.5q17 26 49 26t48.5 -14.5t16.5 -36.5q0 -57 -61 -138z" />
    <glyph glyph-name="uni0123" unicode="&#x123;" horiz-adv-x="520" 
d="M313 700q-17 -51 -17 -87.5t22 -55.5q-17 -26 -47.5 -26t-46.5 14.5t-16 36.5q0 58 60 137zM98.5 445.5q54.5 46.5 144 46.5t142.5 -33q14 12 14 34t-28 36q0 16 16.5 27t40.5 11t39.5 -14.5t15.5 -38.5t-17.5 -48.5t-43.5 -37.5q37 -45 37 -117.5t-56 -118t-151 -45.5
h-16l-34 -43q3 -20 58 -20h42q99 0 151 -38.5t52 -112t-61 -113t-177 -39.5t-180 32.5t-64 93.5q0 76 78 128q-15 24 -15 60l87 61q-61 17 -95 58.5t-34 100.5q0 84 54.5 130.5zM278 0h-91l-6 -6q-28 -28 -28 -72t28 -64.5t88 -20.5q120 0 120 85q0 78 -111 78zM198.5 220
q13.5 -24 54.5 -24t57 25.5t16 93t-17.5 97.5t-54.5 30t-53 -30t-16 -99t13.5 -93z" />
    <glyph glyph-name="Hcircumflex" unicode="&#x124;" horiz-adv-x="722" 
d="M239 373h229v223q-26 22 -69 30l5 41h278l-6 -39q-39 -12 -61 -32v-525q23 -21 75 -32l-7 -39h-276l4 41q33 6 57 30v239h-229v-239q23 -21 75 -32l-7 -39h-276l4 41q33 6 57 30v525q-21 18 -61 32l4 39h279l-6 -41q-43 -8 -69 -30v-223zM303 849q24 27 54 27t54 -27
l95 -107l-29 -37l-120 83l-120 -83l-29 37z" />
    <glyph glyph-name="hcircumflex" unicode="&#x125;" horiz-adv-x="597" 
d="M83 559q0 37 -13.5 50.5t-48.5 15.5l3 39q13 3 54 10q97 15 129 24l18 -10v-259q56 63 142 63q68 0 109 -41t41 -113v-272q23 -19 63 -27l-3 -39h-254l3 39q30 6 49 27v263q0 96 -62 96q-55 0 -88 -54v-304q20 -17 60 -27l-4 -39h-254l4 41q33 7 52 25v492zM228 859
q24 27 54 27t54 -27l95 -107l-29 -37l-120 83l-120 -83l-29 37z" />
    <glyph glyph-name="Hbar" unicode="&#x126;" horiz-adv-x="727" 
d="M33 442v68h61v86q-21 18 -61 32l4 39h279l-6 -41q-43 -8 -69 -30v-86h229v86q-26 22 -69 30l5 41h278l-6 -39q-39 -12 -61 -32v-86h60v-68h-60v-371q23 -21 75 -32l-7 -39h-276l4 41q33 6 57 30v239h-229v-239q23 -21 75 -32l-7 -39h-276l4 41q33 6 57 30v371h-61z
M241 373h229v69h-229v-69z" />
    <glyph glyph-name="hbar" unicode="&#x127;" horiz-adv-x="597" 
d="M12 513v68h69q-4 23 -17.5 32.5t-42.5 11.5l3 39q13 3 54 10q97 15 129 24l18 -10v-107h98v-68h-98v-84q56 63 142 63q68 0 109 -41t41 -113v-272q23 -19 63 -27l-3 -39h-254l3 39q30 6 49 27v263q0 96 -62 96q-55 0 -88 -54v-304q20 -17 60 -27l-4 -39h-254l4 41
q33 7 52 25v446h-71z" />
    <glyph glyph-name="Itilde" unicode="&#x128;" horiz-adv-x="350" 
d="M25 626l5 41h293l-6 -41q-43 -8 -69 -30v-525q20 -19 75 -30l-7 -41h-291l4 41q45 7 72 30v525q-22 22 -76 30zM246 813q30 0 59 39q30 -11 48 -31q-44 -95 -111 -95q-20 0 -62 19.5t-68 19.5t-54 -38q-30 12 -48 32q44 94 112 94q20 0 62 -20t62 -20z" />
    <glyph glyph-name="itilde" unicode="&#x129;" horiz-adv-x="314" 
d="M144 643q40 -20 64 -20t53 39q33 -14 49 -31q-42 -95 -107 -95q-19 0 -59.5 19.5t-65 19.5t-52.5 -38q-33 14 -49 32q42 94 108 94q19 0 59 -20zM93 354q0 36 -13.5 49.5t-48.5 15.5l3 39q13 3 54 10q97 15 129 24l17 -9v-417q25 -19 64 -27l-4 -39h-257l4 41q33 7 52 25
v288z" />
    <glyph glyph-name="Imacron" unicode="&#x12a;" horiz-adv-x="350" 
d="M25 626l5 41h293l-6 -41q-43 -8 -69 -30v-525q20 -19 75 -30l-7 -41h-291l4 41q45 7 72 30v525q-22 22 -76 30zM24 740v68h311v-68h-311z" />
    <glyph glyph-name="imacron" unicode="&#x12b;" horiz-adv-x="314" 
d="M-4 552v68h291v-68h-291zM93 354q0 36 -13.5 49.5t-48.5 15.5l3 39q13 3 54 10q97 15 129 24l17 -9v-417q25 -19 64 -27l-4 -39h-257l4 41q33 7 52 25v288z" />
    <glyph glyph-name="Ibreve" unicode="&#x12c;" horiz-adv-x="350" 
d="M25 626l5 41h293l-6 -41q-43 -8 -69 -30v-525q20 -19 75 -30l-7 -41h-291l4 41q45 7 72 30v525q-22 22 -76 30zM181 702q-60 0 -99 37t-44 99q22 11 60 11q11 -69 83 -69t83 69q33 0 59 -10q-5 -62 -43.5 -99.5t-98.5 -37.5z" />
    <glyph glyph-name="ibreve" unicode="&#x12d;" horiz-adv-x="314" 
d="M93 354q0 36 -13.5 49.5t-48.5 15.5l3 39q13 3 54 10q97 15 129 24l17 -9v-417q25 -19 64 -27l-4 -39h-257l4 41q33 7 52 25v288zM152 522q-60 0 -99 37t-44 99q22 11 60 11q11 -69 83 -69t83 69q33 0 59 -10q-5 -62 -43.5 -99.5t-98.5 -37.5z" />
    <glyph glyph-name="Iogonek" unicode="&#x12e;" horiz-adv-x="350" 
d="M174 0q-37 0 -59.5 -35t-22.5 -72.5t28 -37.5q23 0 50 23l26 -35q-39 -47 -105 -47q-39 0 -66.5 22.5t-27.5 57.5t26 71t52 68.5t26 55.5v525q-22 22 -76 30l5 41h293l-6 -41q-43 -8 -69 -30v-525q20 -19 75 -30l-7 -41h-142z" />
    <glyph glyph-name="iogonek" unicode="&#x12f;" horiz-adv-x="314" 
d="M93 66v288q0 36 -13.5 49.5t-48.5 15.5l3 39q13 3 54 10q97 15 129 24l17 -9v-417q25 -19 64 -27l-4 -39h-84q-51 0 -78 -34.5t-27 -72.5t28 -38q23 0 50 23l26 -35q-39 -47 -105 -47q-39 0 -66.5 22.5t-27.5 60.5q0 37 42 80q15 16 28 44.5t13 62.5zM245 620
q0 -70 -79.5 -70t-79.5 70t79.5 70t79.5 -70z" />
    <glyph glyph-name="Idotaccent" unicode="&#x130;" horiz-adv-x="350" 
d="M25 626l5 41h293l-6 -41q-43 -8 -69 -30v-525q20 -19 75 -30l-7 -41h-291l4 41q45 7 72 30v525q-22 22 -76 30zM259 784q0 -70 -79.5 -70t-79.5 70t79.5 70t79.5 -70z" />
    <glyph glyph-name="dotlessi" unicode="&#x131;" horiz-adv-x="314" 
d="M93 354q0 36 -13.5 49.5t-48.5 15.5l3 39q13 3 54 10q97 15 129 24l17 -9v-417q25 -19 64 -27l-4 -39h-257l4 41q33 7 52 25v288z" />
    <glyph glyph-name="IJ" unicode="&#x132;" horiz-adv-x="690" 
d="M24 626l5 41h293l-6 -41q-43 -8 -69 -30v-525q20 -19 75 -30l-7 -41h-291l4 41q45 7 72 30v525q-22 22 -76 30zM590 16q0 -96 -58.5 -151t-169.5 -83l-21 55q102 53 102 164v595q-22 22 -76 30l5 41h293l-6 -41q-43 -8 -69 -30v-580z" />
    <glyph glyph-name="ij" unicode="&#x133;" horiz-adv-x="617" 
d="M245 620q0 -70 -79.5 -70t-79.5 70t79.5 70t79.5 -70zM552 620q0 -70 -79.5 -70t-79.5 70t79.5 70t79.5 -70zM248 -7q-71 0 -113 41t-42 113v207q0 36 -13.5 49.5t-48.5 15.5l3 39q13 3 54 10q97 15 129 24l17 -9v-327q0 -96 72 -96q62 0 94 55v239q0 36 -14 49.5
t-49 15.5l3 39q13 3 54 10q97 15 129 24l18 -9v-516q0 -85 -26 -128q-17 -28 -52.5 -42.5t-81.5 -14.5t-82.5 22t-36.5 62q0 28 17.5 45t46.5 17t45 -25q-15 -15 -15 -34q0 -37 24 -37q14 0 23 17.5t9 46t-5 77.5t-5 91q-59 -71 -154 -71z" />
    <glyph glyph-name="Jcircumflex" unicode="&#x134;" horiz-adv-x="341" 
d="M241 16q0 -96 -58.5 -151t-169.5 -83l-21 55q102 53 102 164v595q-22 22 -76 30l5 41h293l-6 -41q-43 -8 -69 -30v-580zM113 849q24 27 54 27t54 -27l95 -107l-29 -37l-120 83l-120 -83l-29 37z" />
    <glyph glyph-name="jcircumflex" unicode="&#x135;" horiz-adv-x="302" 
d="M227 -33q0 -85 -26 -128q-17 -28 -52.5 -42.5t-81.5 -14.5t-82.5 22t-36.5 62q0 28 17.5 45t46.5 17t45 -25q-15 -15 -15 -34q0 -37 24 -37q14 0 23 17.5t9 46t-6 76.5t-6 90v292q0 36 -13.5 49.5t-48.5 15.5l3 39q13 3 55 10q96 15 128 24l17 -9v-516zM91 659
q24 27 54 27t54 -27l95 -107l-29 -37l-120 83l-120 -83l-29 37z" />
    <glyph glyph-name="uni0136" unicode="&#x136;" horiz-adv-x="682" 
d="M301 -199q19 52 19 87.5t-24 55.5q17 26 49 26t48.5 -14.5t16.5 -36.5q0 -57 -61 -138zM314 39l-7 -39h-276l4 41q33 6 57 30v525q-21 18 -61 32l4 39h279l-6 -41q-43 -8 -69 -30v-525q23 -21 75 -32zM463 581q9 11 9 22t-15 18t-37 7l-6 39h250l-6 -39q-56 -3 -88 -39
l-172 -191l197 -322q32 -26 86 -35l-7 -41h-228q-1 32 -18 58l-175 290z" />
    <glyph glyph-name="uni0137" unicode="&#x137;" 
d="M245 -199q19 52 19 87.5t-24 55.5q17 26 49 26t48.5 -14.5t16.5 -36.5q0 -57 -61 -138zM379 416q0 29 -51 29l8 39h233l-8 -39q-56 -3 -88 -39l-95 -94l151 -236q28 -26 71 -35l-7 -41h-188q-1 30 -18 58l-102 161l-54 -54v-99q23 -19 63 -27l-3 -39h-258l4 41
q34 7 52 25v492q0 37 -13.5 50.5t-48.5 15.5l3 39q13 3 54 9q97 16 129 25l18 -10v-424l140 135q8 10 8 18z" />
    <glyph glyph-name="kgreenlandic" unicode="&#x138;" horiz-adv-x="598" 
d="M382 416q0 29 -51 29l8 39h233l-8 -39q-56 -3 -88 -39l-95 -94l151 -236q28 -26 71 -35l-7 -41h-188q-1 30 -18 58l-102 161l-54 -54v-99q23 -19 63 -27l-3 -39h-258l4 41q34 7 52 25v288q0 37 -13.5 50.5t-48.5 15.5l3 39q13 3 55 9q96 16 128 25l18 -10v-220l140 135
q8 10 8 18z" />
    <glyph glyph-name="Lacute" unicode="&#x139;" horiz-adv-x="551" 
d="M246 62h175q32 48 47 127q20 3 39 3t35 -3l-10 -189h-494l4 41q39 6 57 25v530q-16 14 -62 30l5 41h279l-6 -41q-43 -8 -69 -30v-534zM249 899q21 0 33.5 -13t12.5 -34q0 -34 -32 -56l-117 -83l-34 33l80 119q22 34 57 34z" />
    <glyph glyph-name="lacute" unicode="&#x13a;" horiz-adv-x="308" 
d="M83 558q0 37 -13.5 50.5t-48.5 15.5l3 39q13 3 54 9q97 16 129 25l18 -10v-621q23 -19 63 -27l-3 -39h-258l4 41q33 7 52 25v492zM224 909q21 0 33.5 -13t12.5 -34q0 -34 -32 -56l-117 -83l-34 33l80 119q22 34 57 34z" />
    <glyph glyph-name="uni013B" unicode="&#x13b;" horiz-adv-x="551" 
d="M224 -199q19 52 19 87.5t-24 55.5q17 26 49 26t48.5 -14.5t16.5 -36.5q0 -57 -61 -138zM246 62h175q32 48 47 127q20 3 39 3t35 -3l-10 -189h-494l4 41q39 6 57 25v530q-16 14 -62 30l5 41h279l-6 -41q-43 -8 -69 -30v-534z" />
    <glyph glyph-name="uni013C" unicode="&#x13c;" horiz-adv-x="308" 
d="M102 -199q19 52 19 87.5t-24 55.5q17 26 49 26t48.5 -14.5t16.5 -36.5q0 -57 -61 -138zM83 558q0 37 -13.5 50.5t-48.5 15.5l3 39q13 3 54 9q97 16 129 25l18 -10v-621q23 -19 63 -27l-3 -39h-258l4 41q33 7 52 25v492z" />
    <glyph glyph-name="Lcaron" unicode="&#x13d;" horiz-adv-x="551" 
d="M246 62h175q32 48 47 127q20 3 39 3t35 -3l-10 -189h-494l4 41q39 6 57 25v530q-16 14 -62 30l5 41h279l-6 -41q-43 -8 -69 -30v-534zM396 503q19 52 19 87.5t-24 55.5q17 26 49 26t48.5 -14.5t16.5 -36.5q0 -57 -61 -138z" />
    <glyph glyph-name="lcaron" unicode="&#x13e;" horiz-adv-x="436" 
d="M284 498q19 52 19 87.5t-24 55.5q17 26 49 26t48.5 -14.5t16.5 -36.5q0 -57 -61 -138zM77 558q0 37 -13.5 50.5t-48.5 15.5l3 39q13 3 54 9q97 16 129 25l18 -10v-621q23 -19 63 -27l-3 -39h-258l4 41q33 7 52 25v492z" />
    <glyph glyph-name="Ldot" unicode="&#x13f;" horiz-adv-x="671" 
d="M246 62h175q32 48 47 127q20 3 39 3t35 -3l-10 -189h-494l4 41q39 6 57 25v530q-16 14 -62 30l5 41h279l-6 -41q-43 -8 -69 -30v-534zM509 358q0 -70 -79.5 -70t-79.5 70t79.5 70t79.5 -70z" />
    <glyph glyph-name="ldot" unicode="&#x140;" horiz-adv-x="443" 
d="M421 358q0 -70 -79.5 -70t-79.5 70t79.5 70t79.5 -70zM83 558q0 37 -13.5 50.5t-48.5 15.5l3 39q13 3 54 9q97 16 129 25l18 -10v-621q23 -19 63 -27l-3 -39h-258l4 41q33 7 52 25v492z" />
    <glyph glyph-name="Lslash" unicode="&#x141;" horiz-adv-x="556" 
d="M246 62h175q32 48 47 127q20 3 39 3t35 -3l-10 -189h-494l4 41q39 6 57 25v180l-54 -30l-33 56l87 49v275q-16 14 -62 30l5 41h279l-6 -41q-43 -8 -69 -30v-193l97 55l32 -55l-129 -73v-268z" />
    <glyph glyph-name="lslash" unicode="&#x142;" horiz-adv-x="342" 
d="M100 558q0 37 -13.5 50.5t-48.5 15.5l3 39q13 3 55 9q96 16 128 25l18 -10v-273l60 36l32 -55l-92 -55v-274q23 -19 63 -27l-3 -39h-258l4 41q33 7 52 25v190l-67 -40l-33 56l100 59v227z" />
    <glyph glyph-name="Nacute" unicode="&#x143;" horiz-adv-x="679" 
d="M595 0h-152l-264 460v-389q23 -21 75 -32l-7 -39h-216l4 41q33 6 57 30v525q-21 18 -61 32l4 39h197l276 -484v413q-26 22 -69 30l5 41h218l-6 -39q-39 -12 -61 -32v-596zM419 899q21 0 33.5 -13t12.5 -34q0 -34 -32 -56l-117 -83l-34 33l80 119q22 34 57 34z" />
    <glyph glyph-name="nacute" unicode="&#x144;" horiz-adv-x="604" 
d="M382 329q0 96 -62 96q-26 0 -50.5 -15t-38.5 -40v-304q23 -18 60 -27l-4 -39h-253l3 41q32 6 53 25v288q0 36 -14 49.5t-49 15.5l3 39q150 28 171 34l18 -9l8 -58q57 67 147 67q68 0 108.5 -41t40.5 -113v-272q25 -19 64 -27l-4 -39h-253l3 39q30 6 49 27v263zM393 709
q21 0 33.5 -13t12.5 -34q0 -34 -32 -56l-117 -83l-34 33l80 119q22 34 57 34z" />
    <glyph glyph-name="uni0145" unicode="&#x145;" horiz-adv-x="679" 
d="M295 -199q19 52 19 87.5t-24 55.5q17 26 49 26t48.5 -14.5t16.5 -36.5q0 -57 -61 -138zM595 0h-152l-264 460v-389q23 -21 75 -32l-7 -39h-216l4 41q33 6 57 30v525q-21 18 -61 32l4 39h197l276 -484v413q-26 22 -69 30l5 41h218l-6 -39q-39 -12 -61 -32v-596z" />
    <glyph glyph-name="uni0146" unicode="&#x146;" horiz-adv-x="604" 
d="M255 -199q19 52 19 87.5t-24 55.5q17 26 49 26t48.5 -14.5t16.5 -36.5q0 -57 -61 -138zM382 329q0 96 -62 96q-26 0 -50.5 -15t-38.5 -40v-304q23 -18 60 -27l-4 -39h-253l3 41q32 6 53 25v288q0 36 -14 49.5t-49 15.5l3 39q150 28 171 34l18 -9l8 -58q57 67 147 67
q68 0 108.5 -41t40.5 -113v-272q25 -19 64 -27l-4 -39h-253l3 39q30 6 49 27v263z" />
    <glyph glyph-name="Ncaron" unicode="&#x147;" horiz-adv-x="679" 
d="M595 0h-152l-264 460v-389q23 -21 75 -32l-7 -39h-216l4 41q33 6 57 30v525q-21 18 -61 32l4 39h197l276 -484v413q-26 22 -69 30l5 41h218l-6 -39q-39 -12 -61 -32v-596zM397 732q-24 -27 -54 -27t-54 27l-95 107l29 37l120 -83l120 83l29 -37z" />
    <glyph glyph-name="ncaron" unicode="&#x148;" horiz-adv-x="604" 
d="M382 329q0 96 -62 96q-26 0 -50.5 -15t-38.5 -40v-304q23 -18 60 -27l-4 -39h-253l3 41q32 6 53 25v288q0 36 -14 49.5t-49 15.5l3 39q150 28 171 34l18 -9l8 -58q57 67 147 67q68 0 108.5 -41t40.5 -113v-272q25 -19 64 -27l-4 -39h-253l3 39q30 6 49 27v263zM371 542
q-24 -27 -54 -27t-54 27l-95 107l29 37l120 -83l120 83l29 -37z" />
    <glyph glyph-name="napostrophe" unicode="&#x149;" horiz-adv-x="743" 
d="M521 329q0 96 -62 96q-26 0 -50.5 -15t-38.5 -40v-304q22 -18 60 -27l-4 -39h-253l3 41q32 6 53 25v288q0 36 -14 49.5t-49 15.5l3 39q150 28 171 34l18 -9l8 -58q57 67 147 67q68 0 108.5 -41t40.5 -113v-272q25 -19 64 -27l-4 -39h-253l3 39q30 6 49 27v263zM70 509
q17 51 17 87.5t-22 55.5q17 26 47.5 26t46.5 -14.5t16 -36.5q0 -58 -60 -137z" />
    <glyph glyph-name="Eng" unicode="&#x14a;" horiz-adv-x="679" 
d="M595 -33q0 -85 -26 -128q-17 -28 -52.5 -42.5t-81.5 -14.5t-82.5 22t-36.5 62q0 28 17.5 45t46.5 17t45 -25q-14 -14 -14 -36q0 -36 34 -36q19 0 32.5 15.5t13.5 43t-9 110.5h-39l-264 460v-389q23 -21 75 -32l-7 -39h-216l4 41q33 6 57 30v525q-21 18 -61 32l4 39h197
l276 -484v413q-26 22 -69 30l5 41h218l-6 -39q-39 -12 -61 -32v-629z" />
    <glyph glyph-name="eng" unicode="&#x14b;" horiz-adv-x="599" 
d="M379 140v189q0 96 -62 96q-26 0 -50.5 -15t-38.5 -40v-304q22 -18 60 -27l-4 -39h-253l3 41q32 6 53 25v288q0 36 -14 49.5t-49 15.5l3 39q150 28 171 34l18 -9l8 -58q57 67 147 67q68 0 108.5 -41t40.5 -113v-317q0 -85 -26 -128q-17 -28 -52.5 -42.5t-81.5 -14.5
t-82.5 22t-36.5 62q0 28 17.5 45t46.5 17t45 -25q-14 -14 -14 -36q0 -36 34 -36q15 0 25.5 15.5t10.5 48t-13.5 88t-13.5 103.5z" />
    <glyph glyph-name="Omacron" unicode="&#x14c;" horiz-adv-x="695" 
d="M245.5 553.5q-31.5 -66.5 -31.5 -219t31.5 -219.5t102 -67t101.5 67t31 219.5t-31 219t-101.5 66.5t-102 -66.5zM124.5 78q-75.5 88 -75.5 256.5t75.5 256t223.5 87.5t223 -87.5t75 -256t-75 -256.5t-223 -88t-223.5 88zM191 740v68h311v-68h-311z" />
    <glyph glyph-name="omacron" unicode="&#x14d;" horiz-adv-x="569" 
d="M213 391q-22 -45 -22 -148.5t22 -148.5t72 -45t71.5 45.5t21.5 148.5t-21.5 148t-71.5 45t-72 -45zM44 243q0 122 61 185.5t180 63.5t179.5 -63.5t60.5 -185.5t-60.5 -186t-179.5 -64t-180 64t-61 186zM128 552v68h311v-68h-311z" />
    <glyph glyph-name="Obreve" unicode="&#x14e;" horiz-adv-x="695" 
d="M245.5 553.5q-31.5 -66.5 -31.5 -219t31.5 -219.5t102 -67t101.5 67t31 219.5t-31 219t-101.5 66.5t-102 -66.5zM124.5 78q-75.5 88 -75.5 256.5t75.5 256t223.5 87.5t223 -87.5t75 -256t-75 -256.5t-223 -88t-223.5 88zM348 702q-60 0 -99 37t-44 99q22 11 60 11
q11 -69 83 -69t83 69q33 0 59 -10q-5 -62 -43.5 -99.5t-98.5 -37.5z" />
    <glyph glyph-name="obreve" unicode="&#x14f;" horiz-adv-x="569" 
d="M213 391q-22 -45 -22 -148.5t22 -148.5t72 -45t71.5 45.5t21.5 148.5t-21.5 148t-71.5 45t-72 -45zM44 243q0 122 61 185.5t180 63.5t179.5 -63.5t60.5 -185.5t-60.5 -186t-179.5 -64t-180 64t-61 186zM285 522q-60 0 -99 37t-44 99q22 11 60 11q11 -69 83 -69t83 69
q33 0 59 -10q-5 -62 -43.5 -99.5t-98.5 -37.5z" />
    <glyph glyph-name="Ohungarumlaut" unicode="&#x150;" horiz-adv-x="695" 
d="M245.5 553.5q-31.5 -66.5 -31.5 -219t31.5 -219.5t102 -67t101.5 67t31 219.5t-31 219t-101.5 66.5t-102 -66.5zM124.5 78q-75.5 88 -75.5 256.5t75.5 256t223.5 87.5t223 -87.5t75 -256t-75 -256.5t-223 -88t-223.5 88zM347 904q21 0 33.5 -13t12.5 -34q0 -34 -32 -56
l-112 -88l-34 33l75 124q22 34 57 34zM506 899q21 0 33.5 -13t12.5 -34q0 -34 -32 -56l-117 -83l-34 33l80 119q22 34 57 34z" />
    <glyph glyph-name="ohungarumlaut" unicode="&#x151;" horiz-adv-x="569" 
d="M213 391q-22 -45 -22 -148.5t22 -148.5t72 -45t71.5 45.5t21.5 148.5t-21.5 148t-71.5 45t-72 -45zM44 243q0 122 61 185.5t180 63.5t179.5 -63.5t60.5 -185.5t-60.5 -186t-179.5 -64t-180 64t-61 186zM284 714q21 0 33.5 -13t12.5 -34q0 -34 -32 -56l-112 -88l-34 33
l75 124q22 34 57 34zM443 709q21 0 33.5 -13t12.5 -34q0 -34 -32 -56l-117 -83l-34 33l80 119q22 34 57 34z" />
    <glyph glyph-name="OE" unicode="&#x152;" horiz-adv-x="952" 
d="M913 502q-23 -7 -37.5 -7t-36.5 4q-15 69 -43 107h-168v-237l93 7q18 2 33.5 20t22.5 47h52v-207h-52q-14 40 -27 56t-30 18l-92 8v-256h175q32 48 47 127q21 3 39.5 3t34.5 -3l-10 -189h-492q-45 -10 -91 -10q-148 0 -223.5 88t-75.5 256.5t75.5 256t223.5 87.5
q51 0 95 -11h483zM228.5 553.5q-31.5 -66.5 -31.5 -219t31.5 -219.5t102 -67t101.5 67t31 219.5t-31 219t-101.5 66.5t-102 -66.5z" />
    <glyph glyph-name="oe" unicode="&#x153;" horiz-adv-x="857" 
d="M514 243v-16q0 -84 24 -124.5t90 -40.5q84 0 138 55l40 -39q-41 -41 -85.5 -63t-116.5 -22q-104 0 -162 56q-59 -56 -173 -56t-175 64t-61 186t61 185.5t176.5 63.5t174.5 -59q61 59 170 59t156 -52t53 -155l-28 -42h-282zM202 391q-22 -45 -22 -148.5t22 -148.5t72 -45
t71.5 45.5t21.5 148.5t-21.5 148t-71.5 45t-72 -45zM608 443q-91 0 -94 -160l168 8q0 80 -16 116t-58 36z" />
    <glyph glyph-name="Racute" unicode="&#x154;" horiz-adv-x="662" 
d="M324 667q256 0 256 -176q0 -128 -130 -171q32 -22 52 -66l75 -178q10 -23 61 -35l-7 -41h-182l-97 262q-13 32 -54 38q-17 0 -41 2h-11v-231q21 -21 75 -32l-7 -39h-276l4 41q34 7 57 30v525q-19 18 -61 32l4 39h282zM425 489q0 56 -30 86.5t-77 30.5t-72 -4v-239h65
q114 0 114 126zM381 899q21 0 33.5 -13t12.5 -34q0 -34 -32 -56l-117 -83l-34 33l80 119q22 34 57 34z" />
    <glyph glyph-name="racute" unicode="&#x155;" horiz-adv-x="461" 
d="M90 354q0 36 -14 49.5t-49 15.5l3 39q150 28 171 34l18 -9l8 -66q51 74 129 74q39 0 67.5 -26.5t28.5 -64t-20.5 -58t-49.5 -20.5t-47 25q14 17 14 33t-13.5 26t-32.5 10t-39.5 -17.5t-32.5 -45.5v-287q23 -18 60 -27l-4 -39h-253l3 41q32 6 53 25v288zM331 709
q21 0 33.5 -13t12.5 -34q0 -34 -32 -56l-117 -83l-34 33l80 119q22 34 57 34z" />
    <glyph glyph-name="uni0156" unicode="&#x156;" horiz-adv-x="662" 
d="M301 -199q19 52 19 87.5t-24 55.5q17 26 49 26t48.5 -14.5t16.5 -36.5q0 -57 -61 -138zM324 667q256 0 256 -176q0 -128 -130 -171q32 -22 52 -66l75 -178q10 -23 61 -35l-7 -41h-182l-97 262q-13 32 -54 38q-17 0 -41 2h-11v-231q21 -21 75 -32l-7 -39h-276l4 41
q34 7 57 30v525q-19 18 -61 32l4 39h282zM425 489q0 56 -30 86.5t-77 30.5t-72 -4v-239h65q114 0 114 126z" />
    <glyph glyph-name="uni0157" unicode="&#x157;" horiz-adv-x="461" 
d="M100 -199q19 52 19 87.5t-24 55.5q17 26 49 26t48.5 -14.5t16.5 -36.5q0 -57 -61 -138zM90 354q0 36 -14 49.5t-49 15.5l3 39q150 28 171 34l18 -9l8 -66q51 74 129 74q39 0 67.5 -26.5t28.5 -64t-20.5 -58t-49.5 -20.5t-47 25q14 17 14 33t-13.5 26t-32.5 10
t-39.5 -17.5t-32.5 -45.5v-287q23 -18 60 -27l-4 -39h-253l3 41q32 6 53 25v288z" />
    <glyph glyph-name="Rcaron" unicode="&#x158;" horiz-adv-x="662" 
d="M324 667q256 0 256 -176q0 -128 -130 -171q32 -22 52 -66l75 -178q10 -23 61 -35l-7 -41h-182l-97 262q-13 32 -54 38q-17 0 -41 2h-11v-231q21 -21 75 -32l-7 -39h-276l4 41q34 7 57 30v525q-19 18 -61 32l4 39h282zM425 489q0 56 -30 86.5t-77 30.5t-72 -4v-239h65
q114 0 114 126zM359 732q-24 -27 -54 -27t-54 27l-95 107l29 37l120 -83l120 83l29 -37z" />
    <glyph glyph-name="rcaron" unicode="&#x159;" horiz-adv-x="461" 
d="M90 354q0 36 -14 49.5t-49 15.5l3 39q150 28 171 34l18 -9l8 -66q51 74 129 74q39 0 67.5 -26.5t28.5 -64t-20.5 -58t-49.5 -20.5t-47 25q14 17 14 33t-13.5 26t-32.5 10t-39.5 -17.5t-32.5 -45.5v-287q23 -18 60 -27l-4 -39h-253l3 41q32 6 53 25v288zM309 542
q-24 -27 -54 -27t-54 27l-95 107l29 37l120 -83l120 83l29 -37z" />
    <glyph glyph-name="Sacute" unicode="&#x15a;" horiz-adv-x="513" 
d="M168 64q44 -16 84 -16t65 25.5t25 62t-16.5 63t-42.5 44.5t-57.5 35t-63 36.5t-57.5 42t-42.5 57.5t-16.5 78q0 79 62.5 131t157.5 52q46 0 105.5 -14.5t98.5 -35.5l-14 -138q-23 -7 -36.5 -7t-35.5 4q-13 75 -39.5 107.5t-71 32.5t-69.5 -23t-25 -55.5t22.5 -58
t56.5 -45t73.5 -45.5t73.5 -52.5t56.5 -69t22.5 -92.5q0 -88 -65 -139t-176 -51q-47 0 -111.5 16.5t-86.5 34.5v152q40 14 91 17q6 -88 32 -149zM338 899q21 0 33.5 -13t12.5 -34q0 -34 -32 -56l-117 -83l-34 33l80 119q22 34 57 34z" />
    <glyph glyph-name="sacute" unicode="&#x15b;" horiz-adv-x="459" 
d="M236 448q-29 0 -47 -19t-18 -47.5t24 -47t92 -42.5q135 -48 135 -150q0 -71 -54 -110.5t-151 -39.5q-39 0 -93.5 16.5t-83.5 36.5v110l103 15q1 -33 7.5 -69.5t13.5 -49.5q28 -9 56.5 -9t48.5 19t20 48q0 57 -87.5 86.5t-124 67.5t-36.5 98.5t51.5 96t143.5 35.5
q44 0 88 -8.5t66 -16.5l21 -8l-10 -125h-78q0 48 -22 80.5t-65 32.5zM314 709q21 0 33.5 -13t12.5 -34q0 -34 -32 -56l-117 -83l-34 33l80 119q22 34 57 34z" />
    <glyph glyph-name="Scircumflex" unicode="&#x15c;" horiz-adv-x="513" 
d="M168 64q44 -16 84 -16t65 25.5t25 62t-16.5 63t-42.5 44.5t-57.5 35t-63 36.5t-57.5 42t-42.5 57.5t-16.5 78q0 79 62.5 131t157.5 52q46 0 105.5 -14.5t98.5 -35.5l-14 -138q-23 -7 -36.5 -7t-35.5 4q-13 75 -39.5 107.5t-71 32.5t-69.5 -23t-25 -55.5t22.5 -58
t56.5 -45t73.5 -45.5t73.5 -52.5t56.5 -69t22.5 -92.5q0 -88 -65 -139t-176 -51q-47 0 -111.5 16.5t-86.5 34.5v152q40 14 91 17q6 -88 32 -149zM209 849q24 27 54 27t54 -27l95 -107l-29 -37l-120 83l-120 -83l-29 37z" />
    <glyph glyph-name="scircumflex" unicode="&#x15d;" horiz-adv-x="459" 
d="M236 448q-29 0 -47 -19t-18 -47.5t24 -47t92 -42.5q135 -48 135 -150q0 -71 -54 -110.5t-151 -39.5q-39 0 -93.5 16.5t-83.5 36.5v110l103 15q1 -33 7.5 -69.5t13.5 -49.5q28 -9 56.5 -9t48.5 19t20 48q0 57 -87.5 86.5t-124 67.5t-36.5 98.5t51.5 96t143.5 35.5
q44 0 88 -8.5t66 -16.5l21 -8l-10 -125h-78q0 48 -22 80.5t-65 32.5zM185 659q24 27 54 27t54 -27l95 -107l-29 -37l-120 83l-120 -83l-29 37z" />
    <glyph glyph-name="Scedilla" unicode="&#x15e;" horiz-adv-x="513" 
d="M168 64q44 -16 84 -16t65 25.5t25 62t-16.5 63t-42.5 44.5t-57.5 35t-63 36.5t-57.5 42t-42.5 57.5t-16.5 78q0 79 62.5 131t157.5 52q46 0 105.5 -14.5t98.5 -35.5l-14 -138q-23 -7 -36.5 -7t-35.5 4q-13 75 -39.5 107.5t-71 32.5t-69.5 -23t-25 -55.5t22.5 -58
t56.5 -45t73.5 -45.5t73.5 -52.5t56.5 -69t22.5 -92.5q0 -76 -49 -125t-136 -61l-6 -36q34 -10 51.5 -28t17.5 -54t-30.5 -62.5t-79 -26.5t-75 24.5t-26.5 49t12.5 37t30 12.5t35.5 -9q-9 -10 -9 -28t8.5 -31t23.5 -13q36 0 36 44.5t-59 50.5l-21 24l35 42
q-47 0 -111.5 16.5t-86.5 34.5v152q40 14 91 17q6 -88 32 -149z" />
    <glyph glyph-name="scedilla" unicode="&#x15f;" horiz-adv-x="459" 
d="M164 51q28 -9 56.5 -9t48.5 19t20 48q0 57 -87.5 86.5t-124 67.5t-36.5 98.5t51.5 96t143.5 35.5q44 0 88 -8.5t66 -16.5l21 -8l-10 -125h-78q0 48 -22 80.5t-65 32.5q-29 0 -47 -19t-18 -47.5t24 -47t92 -42.5q135 -48 135 -150q0 -61 -39 -98.5t-111 -47.5l-6 -35
q34 -10 51.5 -28t17.5 -54t-30.5 -62.5t-79 -26.5t-75 24.5t-26.5 49t13 37t30 12.5t35 -9q-9 -10 -9 -28t8.5 -31t23.5 -13q36 0 36 44.5t-59 50.5l-21 24l34 41q-39 1 -93 17t-82 36v110l103 15q1 -33 7.5 -69.5t13.5 -49.5z" />
    <glyph glyph-name="Scaron" unicode="&#x160;" horiz-adv-x="513" 
d="M168 64q44 -16 84 -16t65 25.5t25 62t-16.5 63t-42.5 44.5t-57.5 35t-63 36.5t-57.5 42t-42.5 57.5t-16.5 78q0 79 62.5 131t157.5 52q46 0 105.5 -14.5t98.5 -35.5l-14 -138q-23 -7 -36.5 -7t-35.5 4q-13 75 -39.5 107.5t-71 32.5t-69.5 -23t-25 -55.5t22.5 -58
t56.5 -45t73.5 -45.5t73.5 -52.5t56.5 -69t22.5 -92.5q0 -88 -65 -139t-176 -51q-47 0 -111.5 16.5t-86.5 34.5v152q40 14 91 17q6 -88 32 -149zM316 732q-24 -27 -54 -27t-54 27l-95 107l29 37l120 -83l120 83l29 -37z" />
    <glyph glyph-name="scaron" unicode="&#x161;" horiz-adv-x="459" 
d="M236 448q-29 0 -47 -19t-18 -47.5t24 -47t92 -42.5q135 -48 135 -150q0 -71 -54 -110.5t-151 -39.5q-39 0 -93.5 16.5t-83.5 36.5v110l103 15q1 -33 7.5 -69.5t13.5 -49.5q28 -9 56.5 -9t48.5 19t20 48q0 57 -87.5 86.5t-124 67.5t-36.5 98.5t51.5 96t143.5 35.5
q44 0 88 -8.5t66 -16.5l21 -8l-10 -125h-78q0 48 -22 80.5t-65 32.5zM292 542q-24 -27 -54 -27t-54 27l-95 107l29 37l120 -83l120 83l29 -37z" />
    <glyph glyph-name="uni0162" unicode="&#x162;" horiz-adv-x="639" 
d="M261 -199q19 52 19 87.5t-24 55.5q17 26 49 26t48.5 -14.5t16.5 -36.5q0 -57 -61 -138zM107 483q-18 -3 -35.5 -3t-33.5 3v188q147 -4 327 -4t236 4v-188q-17 -3 -34 -3t-35 3q-8 70 -36 115q-50 7 -103 8v-535q21 -20 75 -30l-7 -41h-291l4 41q43 6 72 30v534
q-22 -1 -101 -6q-36 -50 -38 -116z" />
    <glyph glyph-name="uni0163" unicode="&#x163;" horiz-adv-x="365" 
d="M140 -200q19 52 19 87.5t-24 55.5q17 26 49 26t48.5 -14.5t16.5 -36.5q0 -57 -61 -138zM202 -4q-54 0 -88 29t-34 88v300h-71v46q104 39 149 125h65v-106h128v-65h-129v-292q0 -53 48 -53q36 0 72 25l20 -35q-69 -62 -160 -62z" />
    <glyph glyph-name="Tcaron" unicode="&#x164;" horiz-adv-x="639" 
d="M107 483q-18 -3 -35.5 -3t-33.5 3v188q147 -4 327 -4t236 4v-188q-17 -3 -34 -3t-35 3q-8 70 -36 115q-50 7 -103 8v-535q21 -20 75 -30l-7 -41h-291l4 41q43 6 72 30v534q-22 -1 -101 -6q-36 -50 -38 -116zM373 732q-24 -27 -54 -27t-54 27l-95 107l29 37l120 -83
l120 83l29 -37z" />
    <glyph glyph-name="tcaron" unicode="&#x165;" horiz-adv-x="498" 
d="M354 498q19 52 19 87.5t-24 55.5q17 26 49 26t48.5 -14.5t16.5 -36.5q0 -57 -61 -138zM192 -4q-54 0 -88 29t-34 88v300h-71v46q104 39 149 125h65v-106h128v-65h-129v-292q0 -53 48 -53q36 0 72 25l20 -35q-69 -62 -160 -62z" />
    <glyph glyph-name="Tbar" unicode="&#x166;" horiz-adv-x="639" 
d="M124 294v68h122v243q-22 -1 -101 -6q-36 -50 -38 -116q-18 -3 -35.5 -3t-33.5 3v188q147 -4 327 -4t236 4v-188q-17 -3 -34 -3t-35 3q-8 70 -36 115q-50 7 -103 8v-244h122v-68h-122v-223q21 -20 75 -30l-7 -41h-291l4 41q43 6 72 30v223h-122z" />
    <glyph glyph-name="tbar" unicode="&#x167;" horiz-adv-x="376" 
d="M23 228v68h62v117h-71v46q104 39 149 125h65v-106h128v-65h-129v-117h116v-68h-116v-107q0 -53 48 -53q36 0 72 25l20 -35q-69 -62 -160 -62q-54 0 -88 29t-34 88v115h-62z" />
    <glyph glyph-name="Utilde" unicode="&#x168;" horiz-adv-x="676" 
d="M225 208q0 -148 140 -148q129 0 129 163v375q-19 15 -76 28l5 41h238l-6 -39q-43 -13 -66 -32v-351q0 -93 -24 -145.5t-83.5 -79.5t-137.5 -27q-266 0 -266 215v388q-21 21 -76 30l5 41h293l-6 -41q-44 -9 -69 -30v-388zM408 813q30 0 59 39q30 -11 48 -31
q-44 -95 -111 -95q-20 0 -62 19.5t-68 19.5t-54 -38q-30 12 -48 32q44 94 112 94q20 0 62 -20t62 -20z" />
    <glyph glyph-name="utilde" unicode="&#x169;" horiz-adv-x="597" 
d="M230 -7q-68 0 -109 41t-41 113v207q0 36 -13.5 49.5t-48.5 15.5l3 39q13 3 55 10q96 15 128 24l17 -9v-327q0 -96 62 -96q26 0 50.5 15t39.5 40v239q0 36 -14 49.5t-49 15.5l3 39q13 3 55 10q96 15 128 24l18 -9v-421q22 -19 69 -27l-3 -35h-191l-10 64q-58 -71 -149 -71
zM297 643q41 -20 66.5 -20t54.5 39q30 -11 48 -31q-44 -95 -111 -95q-21 0 -62.5 19.5t-67 19.5t-54.5 -38q-30 12 -48 32q44 94 112 94q21 0 62 -20z" />
    <glyph glyph-name="Umacron" unicode="&#x16a;" horiz-adv-x="676" 
d="M225 208q0 -148 140 -148q129 0 129 163v375q-19 15 -76 28l5 41h238l-6 -39q-43 -13 -66 -32v-351q0 -93 -24 -145.5t-83.5 -79.5t-137.5 -27q-266 0 -266 215v388q-21 21 -76 30l5 41h293l-6 -41q-44 -9 -69 -30v-388zM186 740v68h311v-68h-311z" />
    <glyph glyph-name="umacron" unicode="&#x16b;" horiz-adv-x="597" 
d="M230 -7q-68 0 -109 41t-41 113v207q0 36 -13.5 49.5t-48.5 15.5l3 39q13 3 55 10q96 15 128 24l17 -9v-327q0 -96 62 -96q26 0 50.5 15t39.5 40v239q0 36 -14 49.5t-49 15.5l3 39q13 3 55 10q96 15 128 24l18 -9v-421q22 -19 69 -27l-3 -35h-191l-10 64q-58 -71 -149 -71
zM137 552v68h311v-68h-311z" />
    <glyph glyph-name="Ubreve" unicode="&#x16c;" horiz-adv-x="676" 
d="M225 208q0 -148 140 -148q129 0 129 163v375q-19 15 -76 28l5 41h238l-6 -39q-43 -13 -66 -32v-351q0 -93 -24 -145.5t-83.5 -79.5t-137.5 -27q-266 0 -266 215v388q-21 21 -76 30l5 41h293l-6 -41q-44 -9 -69 -30v-388zM343 702q-60 0 -99 37t-44 99q22 11 60 11
q11 -69 83 -69t83 69q33 0 59 -10q-5 -62 -43.5 -99.5t-98.5 -37.5z" />
    <glyph glyph-name="ubreve" unicode="&#x16d;" horiz-adv-x="597" 
d="M230 -7q-68 0 -109 41t-41 113v207q0 36 -13.5 49.5t-48.5 15.5l3 39q13 3 55 10q96 15 128 24l17 -9v-327q0 -96 62 -96q26 0 50.5 15t39.5 40v239q0 36 -14 49.5t-49 15.5l3 39q13 3 55 10q96 15 128 24l18 -9v-421q22 -19 69 -27l-3 -35h-191l-10 64q-58 -71 -149 -71
zM294 522q-60 0 -99 37t-44 99q22 11 60 11q11 -69 83 -69t83 69q33 0 59 -10q-5 -62 -43.5 -99.5t-98.5 -37.5z" />
    <glyph glyph-name="Uring" unicode="&#x16e;" horiz-adv-x="676" 
d="M225 208q0 -148 140 -148q129 0 129 163v375q-19 15 -76 28l5 41h238l-6 -39q-43 -13 -66 -32v-351q0 -93 -24 -145.5t-83.5 -79.5t-137.5 -27q-266 0 -266 215v388q-21 21 -76 30l5 41h293l-6 -41q-44 -9 -69 -30v-388zM231 806q0 44 30.5 73.5t81.5 29.5t82 -29.5
t31 -73.5t-31 -73t-82 -29t-81.5 29t-30.5 73zM303 806.5q0 -55.5 40.5 -55.5t40.5 55.5t-40.5 55.5t-40.5 -55.5z" />
    <glyph glyph-name="uring" unicode="&#x16f;" horiz-adv-x="597" 
d="M230 -7q-68 0 -109 41t-41 113v207q0 36 -13.5 49.5t-48.5 15.5l3 39q13 3 55 10q96 15 128 24l17 -9v-327q0 -96 62 -96q26 0 50.5 15t39.5 40v239q0 36 -14 49.5t-49 15.5l3 39q13 3 55 10q96 15 128 24l18 -9v-421q22 -19 69 -27l-3 -35h-191l-10 64q-58 -71 -149 -71
zM182 616q0 44 30.5 73.5t81.5 29.5t82 -29.5t31 -73.5t-31 -73t-82 -29t-81.5 29t-30.5 73zM254 616.5q0 -55.5 40.5 -55.5t40.5 55.5t-40.5 55.5t-40.5 -55.5z" />
    <glyph glyph-name="Uhungarumlaut" unicode="&#x170;" horiz-adv-x="676" 
d="M225 208q0 -148 140 -148q129 0 129 163v375q-19 15 -76 28l5 41h238l-6 -39q-43 -13 -66 -32v-351q0 -93 -24 -145.5t-83.5 -79.5t-137.5 -27q-266 0 -266 215v388q-21 21 -76 30l5 41h293l-6 -41q-44 -9 -69 -30v-388zM342 904q21 0 33.5 -13t12.5 -34q0 -34 -32 -56
l-112 -88l-34 33l75 124q22 34 57 34zM501 899q21 0 33.5 -13t12.5 -34q0 -34 -32 -56l-117 -83l-34 33l80 119q22 34 57 34z" />
    <glyph glyph-name="uhungarumlaut" unicode="&#x171;" horiz-adv-x="597" 
d="M230 -7q-68 0 -109 41t-41 113v207q0 36 -13.5 49.5t-48.5 15.5l3 39q13 3 55 10q96 15 128 24l17 -9v-327q0 -96 62 -96q26 0 50.5 15t39.5 40v239q0 36 -14 49.5t-49 15.5l3 39q13 3 55 10q96 15 128 24l18 -9v-421q22 -19 69 -27l-3 -35h-191l-10 64q-58 -71 -149 -71
zM293 714q21 0 33.5 -13t12.5 -34q0 -34 -32 -56l-112 -88l-34 33l75 124q22 34 57 34zM452 709q21 0 33.5 -13t12.5 -34q0 -34 -32 -56l-117 -83l-34 33l80 119q22 34 57 34z" />
    <glyph glyph-name="Uogonek" unicode="&#x172;" horiz-adv-x="676" 
d="M225 208q0 -77 33.5 -118.5t96.5 -41.5q129 0 129 160v390q-23 18 -66 28l5 41h238l-6 -39q-43 -13 -66 -32v-388q0 -177 -170 -208q-39 -13 -60 -43t-21 -66t28 -36q23 0 50 23l26 -35q-39 -47 -105 -47q-39 0 -66.5 22.5t-27.5 60.5q0 36 36 84q21 28 24 31
q-225 15 -225 214v388q-21 21 -76 30l5 41h293l-6 -41q-44 -9 -69 -30v-388z" />
    <glyph glyph-name="uogonek" unicode="&#x173;" horiz-adv-x="597" 
d="M507 0q-51 0 -78 -34.5t-27 -72.5t28 -38q23 0 50 23l26 -35q-39 -47 -105 -47q-39 0 -66.5 22.5t-27.5 54t20 58.5t40 50.5t20 44t-8 38.5q-58 -71 -149 -71q-68 0 -109 41t-41 113v207q0 36 -13.5 49.5t-48.5 15.5l3 39q13 3 55 10q96 15 128 24l17 -9v-327
q0 -96 62 -96q26 0 50.5 15t39.5 40v239q0 36 -14 49.5t-49 15.5l3 39q13 3 55 10q96 15 128 24l18 -9v-421q22 -19 69 -27l-3 -35h-73z" />
    <glyph glyph-name="Wcircumflex" unicode="&#x174;" horiz-adv-x="961" 
d="M470 667h88l138 -482l126 411q-25 24 -80 31l5 40h221l-5 -40q-47 -2 -62 -25l-200 -602h-101l-128 430l-139 -430h-101l-171 593q-14 24 -60 34l5 40h274l-6 -40q-41 -2 -63 -22l117 -420zM460 849q24 27 54 27t54 -27l95 -107l-29 -37l-120 83l-120 -83l-29 37z" />
    <glyph glyph-name="wcircumflex" unicode="&#x175;" horiz-adv-x="798" 
d="M294 0h-103l-132 418q-15 23 -57 31l2 35h262l-5 -35q-36 -2 -59 -21l78 -274l113 330h90l95 -331l93 274q-23 15 -64 22l4 35h186l-4 -35q-38 -2 -54 -28l-147 -421h-103l-91 298zM382 659q24 27 54 27t54 -27l95 -107l-29 -37l-120 83l-120 -83l-29 37z" />
    <glyph glyph-name="Ycircumflex" unicode="&#x176;" horiz-adv-x="604" 
d="M65 593q-13 24 -60 34l5 40h271l-6 -40q-42 -2 -62 -22l119 -248l122 240q-26 23 -80 30l5 40h224l-5 -40q-44 -2 -60 -22l-171 -337v-197q23 -21 75 -32l-7 -39h-276l4 41q39 6 57 25v203zM270 849q24 27 54 27t54 -27l95 -107l-29 -37l-120 83l-120 -83l-29 37z" />
    <glyph glyph-name="ycircumflex" unicode="&#x177;" horiz-adv-x="531" 
d="M206 -193q-32 -27 -82 -27t-78 20t-28 53.5t16 51.5t43.5 18t48.5 -24q-11 -9 -11 -30q0 -31 27 -31q17 0 31.5 19t33.5 67l30 76h-34l-144 407q-12 33 -62 42l2 35h262l-5 -35q-37 -1 -57 -19l99 -279l110 276q-23 15 -65 22l4 35h186l-4 -35q-44 -2 -52 -24l-213 -528
q-26 -63 -58 -90zM248 659q24 27 54 27t54 -27l95 -107l-29 -37l-120 83l-120 -83l-29 37z" />
    <glyph glyph-name="Ydieresis" unicode="&#x178;" horiz-adv-x="604" 
d="M65 593q-13 24 -60 34l5 40h271l-6 -40q-42 -2 -62 -22l119 -248l122 240q-26 23 -80 30l5 40h224l-5 -40q-44 -2 -60 -22l-171 -337v-197q23 -21 75 -32l-7 -39h-276l4 41q39 6 57 25v203zM308 774q0 -57 -65.5 -57t-65.5 57q0 55 65.5 55t65.5 -55zM472 774
q0 -57 -66 -57t-66 57q0 55 66 55t66 -55z" />
    <glyph glyph-name="Zacute" unicode="&#x179;" horiz-adv-x="566" 
d="M526 -2l-265 2q-192 0 -229 -2l-4 47l326 564h-193q-20 -25 -36 -124q-16 -3 -37.5 -3t-47.5 8l-12 147l37 32q46 -2 215 -2t245 2l10 -38l-335 -572h208q32 46 52 131q16 4 39 4t36 -3zM384 898q21 0 33.5 -13t12.5 -34q0 -34 -32 -56l-117 -83l-34 33l80 119
q22 34 57 34z" />
    <glyph glyph-name="zacute" unicode="&#x17a;" horiz-adv-x="479" 
d="M438 -1q-124 1 -234 1t-162 -2l-4 44l239 388h-116q-12 -22 -22 -90q-24 -4 -44.5 -4t-47.5 9l-9 111l37 30q34 -2 168.5 -2t191.5 2l10 -37l-246 -393h126q19 31 34 98q25 6 42 6t44 -5zM338 709q21 0 33.5 -13t12.5 -34q0 -34 -32 -56l-117 -83l-34 33l80 119
q22 34 57 34z" />
    <glyph glyph-name="Zdotaccent" unicode="&#x17b;" horiz-adv-x="566" 
d="M526 -2l-265 2q-192 0 -229 -2l-4 47l326 564h-193q-20 -25 -36 -124q-16 -3 -37.5 -3t-47.5 8l-12 147l37 32q46 -2 215 -2t245 2l10 -38l-335 -572h208q32 46 52 131q16 4 39 4t36 -3zM388 784q0 -70 -79.5 -70t-79.5 70t79.5 70t79.5 -70z" />
    <glyph glyph-name="zdotaccent" unicode="&#x17c;" horiz-adv-x="479" 
d="M438 -1q-124 1 -234 1t-162 -2l-4 44l239 388h-116q-12 -22 -22 -90q-24 -4 -44.5 -4t-47.5 9l-9 111l37 30q34 -2 168.5 -2t191.5 2l10 -37l-246 -393h126q19 31 34 98q25 6 42 6t44 -5zM342 620q0 -70 -79.5 -70t-79.5 70t79.5 70t79.5 -70z" />
    <glyph glyph-name="Zcaron" unicode="&#x17d;" horiz-adv-x="566" 
d="M526 -2l-265 2q-192 0 -229 -2l-4 47l326 564h-193q-20 -25 -36 -124q-16 -3 -37.5 -3t-47.5 8l-12 147l37 32q46 -2 215 -2t245 2l10 -38l-335 -572h208q32 46 52 131q16 4 39 4t36 -3zM362 731q-24 -27 -54 -27t-54 27l-95 107l29 37l120 -83l120 83l29 -37z" />
    <glyph glyph-name="zcaron" unicode="&#x17e;" horiz-adv-x="479" 
d="M438 -1q-124 1 -234 1t-162 -2l-4 44l239 388h-116q-12 -22 -22 -90q-24 -4 -44.5 -4t-47.5 9l-9 111l37 30q34 -2 168.5 -2t191.5 2l10 -37l-246 -393h126q19 31 34 98q25 6 42 6t44 -5zM316 542q-24 -27 -54 -27t-54 27l-95 107l29 37l120 -83l120 83l29 -37z" />
    <glyph glyph-name="longs" unicode="&#x17f;" horiz-adv-x="321" 
d="M397 562h-73q-7 59 -21 83.5t-40.5 24.5t-42 -22.5t-15.5 -49t10 -65t10 -55.5v-416q21 -17 81 -28l-3 -34h-289l4 36q42 7 66 26v353h-79l-5 40q51 8 84 23v44q0 83 51.5 135t127 52t134.5 -37v-110z" />
    <glyph glyph-name="florin" unicode="&#x192;" horiz-adv-x="597" 
d="M190 431v91q0 81 51 134t134 53q50 0 94 -23.5t44 -70.5q0 -33 -18.5 -50t-42 -17t-40.5 11.5t-21 31.5q20 17 20 40q0 39 -42 39q-31 0 -44.5 -24t-13.5 -49t10 -87t10 -79h94q7 -15 11 -48l-8 -15h-97v-381q0 -85 -26 -128q-17 -28 -52.5 -42.5t-88.5 -14.5t-97.5 25
t-44.5 65t20 59.5t57 19.5t50 -36q-18 -18 -18 -45q0 -38 39 -38q14 0 23 17.5t9 46.5t-6 79.5t-6 97.5v275h-77q-5 26 -6 50l14 13h69z" />
    <glyph glyph-name="Aringacute" unicode="&#x1fa;" horiz-adv-x="652" 
d="M257 625q-46 29 -46 76t31 75t81.5 28t81.5 -28t31 -74.5t-46 -75.5l201 -552q16 -26 61 -34l-5 -40h-274l6 40q46 7 60 25l-47 143h-206l-48 -138q28 -23 85 -30l-5 -40h-226l6 40q46 2 61 25zM293 511l-85 -240h163zM385 945q40 0 40 -38q0 -33 -52 -56l-126 -56
l-22 30l112 100q21 20 48 20zM283 706.5q0 -50.5 40.5 -50.5t40.5 50.5t-40.5 50.5t-40.5 -50.5z" />
    <glyph glyph-name="aringacute" unicode="&#x1fb;" horiz-adv-x="535" 
d="M183 488q-32 27 -32 72.5t30.5 75t81.5 29.5t82 -29.5t31 -77t-41 -77.5q120 -30 120 -147v-272q17 -19 60 -27l-4 -35h-180l-10 57q-64 -64 -149 -64q-69 0 -106 32t-37 93q0 133 197 147l88 6v58q0 70 -16.5 97t-51 27t-53 -14.5t-18.5 -38t22 -40.5q-5 -25 -24 -40
t-49 -15t-52 21t-22 58t35 66t98 38zM185 193q-24 -21 -24 -59q0 -76 60 -76q46 0 93 55v109l-50 -4q-55 -4 -79 -25zM337 863q21 0 33.5 -13t12.5 -34q0 -34 -32 -56l-117 -83l-34 33l80 119q22 34 57 34zM223 562.5q0 -55.5 40.5 -55.5t40.5 55.5t-40.5 55.5t-40.5 -55.5z
" />
    <glyph glyph-name="AEacute" unicode="&#x1fc;" horiz-adv-x="880" 
d="M832 502q-23 -7 -37.5 -7t-36.5 4q-15 69 -43 107h-153v-237l78 7q18 2 33.5 20t22.5 47h52v-207h-52q-14 40 -27 56t-30 18l-77 8v-256h160q32 48 47 127q21 3 39 3t35 -3l-10 -189h-479l4 41q39 6 57 25v142h-198l-71 -140q26 -21 82 -28l-5 -40h-226l6 40q51 2 64 31
l308 596h453zM415 271v325l-166 -325h166zM633 889q21 0 33.5 -13t12.5 -34q0 -34 -32 -56l-117 -83l-34 33l80 119q22 34 57 34z" />
    <glyph glyph-name="aeacute" unicode="&#x1fd;" horiz-adv-x="794" 
d="M458 243v-16q0 -84 24 -124.5t90 -40.5q84 0 138 55l40 -39q-41 -41 -85.5 -63t-116.5 -22q-130 0 -190 84q-29 -36 -80 -60t-113 -24t-99 32t-37 93q0 133 197 147l88 6v58q0 70 -16.5 97t-51 27t-53 -14.5t-18.5 -38t22 -40.5q-5 -25 -24 -40t-49 -15t-52 21t-22 52
q0 53 50.5 83.5t150 30.5t154.5 -43q58 43 160.5 43t149.5 -52t53 -155l-28 -42h-282zM552 443q-91 0 -94 -160l168 8q0 80 -16 116t-58 36zM185 193q-24 -21 -24 -59q0 -76 60 -76q46 0 93 55v109l-50 -4q-55 -4 -79 -25zM475 709q21 0 33.5 -13t12.5 -34q0 -34 -32 -56
l-117 -83l-34 33l80 119q22 34 57 34z" />
    <glyph glyph-name="Oslashacute" unicode="&#x1fe;" horiz-adv-x="695" 
d="M422 899q21 0 33.5 -13t12.5 -34q0 -34 -32 -56l-117 -83l-34 33l80 119q22 34 57 34zM114 90q-65 88 -65 250.5t75.5 250t223.5 87.5q99 0 169 -42l45 61l64 -48l-49 -66q69 -87 69 -252t-75 -253t-223 -88q-106 0 -175 45l-56 -76l-64 48zM480 335q0 56 -5 109
l-235 -318q32 -78 105 -78t104 67t31 220zM214 335q0 -64 4 -104l234 316q-31 73 -103 73t-103.5 -66.5t-31.5 -218.5z" />
    <glyph glyph-name="oslashacute" unicode="&#x1ff;" horiz-adv-x="569" 
d="M359 709q21 0 33.5 -13t12.5 -34q0 -34 -32 -56l-117 -83l-34 33l80 119q22 34 57 34zM101 60q-57 63 -57 184t61 184.5t180 63.5q71 0 119 -22l44 60l61 -52l-40 -54q56 -64 56 -183.5t-60.5 -183.5t-179.5 -64q-69 0 -118 21l-41 -55l-64 48zM191 243q0 -41 2 -59
l158 215q-22 37 -69 37t-69 -45t-22 -148zM378 243q0 22 -2 54l-158 -213q22 -35 69.5 -35t69 45.5t21.5 148.5z" />
    <glyph glyph-name="dotlessj" unicode="&#x237;" horiz-adv-x="302" 
d="M227 -33q0 -85 -26 -128q-17 -28 -52.5 -42.5t-81.5 -14.5t-82.5 22t-36.5 62q0 28 17.5 45t46.5 17t45 -25q-15 -15 -15 -34q0 -37 24 -37q14 0 23 17.5t9 46t-6 76.5t-6 90v292q0 36 -13.5 49.5t-48.5 15.5l3 39q13 3 55 10q96 15 128 24l17 -9v-516z" />
    <glyph glyph-name="circumflex" unicode="&#x2c6;" horiz-adv-x="285" 
d="M135 675q24 27 54 27t54 -27l95 -107l-29 -37l-120 83l-120 -83l-29 37z" />
    <glyph glyph-name="caron" unicode="&#x2c7;" horiz-adv-x="285" 
d="M243 558q-24 -27 -54 -27t-54 27l-95 107l29 37l120 -83l120 83l29 -37z" />
    <glyph glyph-name="uni02C9" unicode="&#x2c9;" horiz-adv-x="391" 
d="M40 558v68h311v-68h-311z" />
    <glyph glyph-name="breve" unicode="&#x2d8;" horiz-adv-x="285" 
d="M173 527q-60 0 -99 37t-44 99q22 11 60 11q11 -69 83 -69t83 69q33 0 59 -10q-5 -62 -43.5 -99.5t-98.5 -37.5z" />
    <glyph glyph-name="dotaccent" unicode="&#x2d9;" horiz-adv-x="285" 
d="M189 608q0 -70 -79.5 -70t-79.5 70t79.5 70t79.5 -70z" />
    <glyph glyph-name="ring" unicode="&#x2da;" horiz-adv-x="285" 
d="M40 632q0 44 30.5 73.5t81.5 29.5t82 -29.5t31 -73.5t-31 -73t-82 -29t-81.5 29t-30.5 73zM112 632.5q0 -55.5 40.5 -55.5t40.5 55.5t-40.5 55.5t-40.5 -55.5z" />
    <glyph glyph-name="ogonek" unicode="&#x2db;" horiz-adv-x="285" 
d="M177.5 -43q-21.5 -30 -21.5 -66t28 -36q23 0 50 23l26 -35q-39 -47 -105 -47q-39 0 -66.5 22.5t-27.5 60.5q0 22 9.5 41.5t33.5 51t27 36.5l107 -8q-39 -13 -60.5 -43z" />
    <glyph glyph-name="tilde" unicode="&#x2dc;" horiz-adv-x="285" 
d="M268 639q30 0 59 39q30 -11 48 -31q-44 -95 -111 -95q-20 0 -62 19.5t-68 19.5t-54 -38q-30 12 -48 32q44 94 112 94q20 0 62 -20t62 -20z" />
    <glyph glyph-name="hungarumlaut" unicode="&#x2dd;" horiz-adv-x="285" 
d="M172 722q21 0 33.5 -13t12.5 -34q0 -34 -32 -56l-112 -88l-34 33l75 124q22 34 57 34zM331 717q21 0 33.5 -13t12.5 -34q0 -34 -32 -56l-117 -83l-34 33l80 119q22 34 57 34z" />
    <glyph glyph-name="Wgrave" unicode="&#x1e80;" horiz-adv-x="961" 
d="M470 667h88l138 -482l126 411q-25 24 -80 31l5 40h221l-5 -40q-47 -2 -62 -25l-200 -602h-101l-128 430l-139 -430h-101l-171 593q-14 24 -60 34l5 40h274l-6 -40q-41 -2 -63 -22l117 -420zM437 892q34 0 57 -34l80 -119l-34 -33l-117 83q-31 22 -33 56q0 21 13 34t34 13
z" />
    <glyph glyph-name="wgrave" unicode="&#x1e81;" horiz-adv-x="798" 
d="M294 0h-103l-132 418q-15 23 -57 31l2 35h262l-5 -35q-36 -2 -59 -21l78 -274l113 330h90l95 -331l93 274q-23 15 -64 22l4 35h186l-4 -35q-38 -2 -54 -28l-147 -421h-103l-91 298zM359 702q34 0 57 -34l80 -119l-34 -33l-117 83q-31 22 -33 56q0 21 13 34t34 13z" />
    <glyph glyph-name="Wacute" unicode="&#x1e82;" horiz-adv-x="961" 
d="M470 667h88l138 -482l126 411q-25 24 -80 31l5 40h221l-5 -40q-47 -2 -62 -25l-200 -602h-101l-128 430l-139 -430h-101l-171 593q-14 24 -60 34l5 40h274l-6 -40q-41 -2 -63 -22l117 -420zM589 899q21 0 33.5 -13t12.5 -34q0 -34 -32 -56l-117 -83l-34 33l80 119
q22 34 57 34z" />
    <glyph glyph-name="wacute" unicode="&#x1e83;" horiz-adv-x="798" 
d="M294 0h-103l-132 418q-15 23 -57 31l2 35h262l-5 -35q-36 -2 -59 -21l78 -274l113 330h90l95 -331l93 274q-23 15 -64 22l4 35h186l-4 -35q-38 -2 -54 -28l-147 -421h-103l-91 298zM511 709q21 0 33.5 -13t12.5 -34q0 -34 -32 -56l-117 -83l-34 33l80 119q22 34 57 34z
" />
    <glyph glyph-name="Wdieresis" unicode="&#x1e84;" horiz-adv-x="961" 
d="M470 667h88l138 -482l126 411q-25 24 -80 31l5 40h221l-5 -40q-47 -2 -62 -25l-200 -602h-101l-128 430l-139 -430h-101l-171 593q-14 24 -60 34l5 40h274l-6 -40q-41 -2 -63 -22l117 -420zM498 774q0 -57 -65.5 -57t-65.5 57q0 55 65.5 55t65.5 -55zM662 774
q0 -57 -66 -57t-66 57q0 55 66 55t66 -55z" />
    <glyph glyph-name="wdieresis" unicode="&#x1e85;" horiz-adv-x="798" 
d="M294 0h-103l-132 418q-15 23 -57 31l2 35h262l-5 -35q-36 -2 -59 -21l78 -274l113 330h90l95 -331l93 274q-23 15 -64 22l4 35h186l-4 -35q-38 -2 -54 -28l-147 -421h-103l-91 298zM420 607q0 -57 -65.5 -57t-65.5 57q0 55 65.5 55t65.5 -55zM584 607q0 -57 -66 -57
t-66 57q0 55 66 55t66 -55z" />
    <glyph glyph-name="Etilde" unicode="&#x1ebc;" horiz-adv-x="578" 
d="M531 502q-23 -7 -37.5 -7t-36.5 4q-15 69 -43 107h-168v-237l93 7q18 2 33.5 20t22.5 47h52v-207h-52q-14 40 -27 56t-30 18l-92 8v-256h175q32 48 47 127q21 3 39.5 3t34.5 -3l-10 -189h-494l4 41q39 6 57 25v535q-24 21 -61 29l3 37h486zM372 813q30 0 59 39
q30 -11 48 -31q-44 -95 -111 -95q-20 0 -62 19.5t-68 19.5t-54 -38q-30 12 -48 32q44 94 112 94q20 0 62 -20t62 -20z" />
    <glyph glyph-name="etilde" unicode="&#x1ebd;" horiz-adv-x="531" 
d="M186 243v-16q0 -84 24 -124.5t90 -40.5q84 0 138 55l40 -39q-41 -41 -85.5 -63t-116.5 -22q-116 0 -174.5 65.5t-58.5 182t62 184t176.5 67.5t161.5 -52t53 -155l-28 -42h-282zM280 443q-91 0 -94 -160l168 8q0 80 -16 116t-58 36zM293 643q41 -20 66.5 -20t54.5 39
q30 -11 48 -31q-44 -95 -111 -95q-21 0 -62.5 19.5t-67.5 19.5t-54 -38q-30 12 -48 32q44 94 112 94q21 0 62 -20z" />
    <glyph glyph-name="Ygrave" unicode="&#x1ef2;" horiz-adv-x="604" 
d="M65 593q-13 24 -60 34l5 40h271l-6 -40q-42 -2 -62 -22l119 -248l122 240q-26 23 -80 30l5 40h224l-5 -40q-44 -2 -60 -22l-171 -337v-197q23 -21 75 -32l-7 -39h-276l4 41q39 6 57 25v203zM247 892q34 0 57 -34l80 -119l-34 -33l-117 83q-31 22 -33 56q0 21 13 34t34 13
z" />
    <glyph glyph-name="ygrave" unicode="&#x1ef3;" horiz-adv-x="531" 
d="M206 -193q-32 -27 -82 -27t-78 20t-28 53.5t16 51.5t43.5 18t48.5 -24q-11 -9 -11 -30q0 -31 27 -31q17 0 31.5 19t33.5 67l30 76h-34l-144 407q-12 33 -62 42l2 35h262l-5 -35q-37 -1 -57 -19l99 -279l110 276q-23 15 -65 22l4 35h186l-4 -35q-44 -2 -52 -24l-213 -528
q-26 -63 -58 -90zM225 702q34 0 57 -34l80 -119l-34 -33l-117 83q-31 22 -33 56q0 21 13 34t34 13z" />
    <glyph glyph-name="Ytilde" unicode="&#x1ef8;" horiz-adv-x="604" 
d="M65 593q-13 24 -60 34l5 40h271l-6 -40q-42 -2 -62 -22l119 -248l122 240q-26 23 -80 30l5 40h224l-5 -40q-44 -2 -60 -22l-171 -337v-197q23 -21 75 -32l-7 -39h-276l4 41q39 6 57 25v203zM390 813q30 0 59 39q30 -11 48 -31q-44 -95 -111 -95q-20 0 -62 19.5t-68 19.5
t-54 -38q-30 12 -48 32q44 94 112 94q20 0 62 -20t62 -20z" />
    <glyph glyph-name="ytilde" unicode="&#x1ef9;" horiz-adv-x="531" 
d="M206 -193q-32 -27 -82 -27t-78 20t-28 53.5t16 51.5t43.5 18t48.5 -24q-11 -9 -11 -30q0 -31 27 -31q17 0 31.5 19t33.5 67l30 76h-34l-144 407q-12 33 -62 42l2 35h262l-5 -35q-37 -1 -57 -19l99 -279l110 276q-23 15 -65 22l4 35h186l-4 -35q-44 -2 -52 -24l-213 -528
q-26 -63 -58 -90zM368 623q30 0 59 39q30 -11 48 -31q-44 -95 -111 -95q-20 0 -62 19.5t-68 19.5t-54 -38q-30 12 -48 32q44 94 112 94q20 0 62 -20t62 -20z" />
    <glyph glyph-name="endash" unicode="&#x2013;" horiz-adv-x="500" 
d="M38 220v95h424v-95h-424z" />
    <glyph glyph-name="emdash" unicode="&#x2014;" horiz-adv-x="1000" 
d="M44 220v95h912v-95h-912z" />
    <glyph glyph-name="afii00208" unicode="&#x2015;" horiz-adv-x="750" 
d="M44 220v95h912v-95h-912z" />
    <glyph glyph-name="underscoredbl" unicode="&#x2017;" horiz-adv-x="371" 
d="M371 -92h-371v74h371v-74zM371 -190h-371v74h371v-74z" />
    <glyph glyph-name="quoteleft" unicode="&#x2018;" horiz-adv-x="235" 
d="M127 585q0 -30 26 -30q8 0 20 5q22 -21 22 -49.5t-19.5 -48t-55 -19.5t-56.5 23.5t-21 63.5q0 106 112 175l33 -36q-61 -43 -61 -84z" />
    <glyph glyph-name="quoteright" unicode="&#x2019;" horiz-adv-x="235" 
d="M111 563q0 30 -26 30q-8 0 -20 -5q-22 21 -22 49.5t19.5 48t55 19.5t56.5 -23.5t21 -63.5q0 -106 -112 -175l-33 36q61 43 61 84z" />
    <glyph glyph-name="quotesinglbase" unicode="&#x201a;" horiz-adv-x="232" 
d="M109 -15q0 30 -26 30q-8 0 -20 -5q-22 21 -22 49.5t19.5 48t55 19.5t56.5 -23.5t21 -63.5q0 -106 -112 -175l-33 36q61 43 61 84z" />
    <glyph glyph-name="quotereversed" unicode="&#x201b;" horiz-adv-x="221" 
d="M43 618q0 40 21 63.5t56.5 23.5t55 -19.5t19.5 -48t-22 -49.5q-12 5 -20 5q-26 0 -26 -30q0 -41 61 -84l-33 -36q-112 69 -112 175z" />
    <glyph glyph-name="quotedblleft" unicode="&#x201c;" horiz-adv-x="398" 
d="M127 585q0 -30 26 -30q8 0 20 5q22 -21 22 -49.5t-19.5 -48t-55 -19.5t-56.5 23.5t-21 63.5q0 106 112 175l33 -36q-61 -43 -61 -84zM305 585q0 -30 26 -30q8 0 20 5q22 -21 22 -49.5t-19.5 -48t-55 -19.5t-56.5 23.5t-21 63.5q0 106 112 175l33 -36q-61 -43 -61 -84z
" />
    <glyph glyph-name="quotedblright" unicode="&#x201d;" horiz-adv-x="398" 
d="M269 563q0 30 -26 30q-8 0 -20 -5q-22 21 -22 49.5t19.5 48t55 19.5t56.5 -23.5t21 -63.5q0 -106 -112 -175l-33 36q61 43 61 84zM91 563q0 30 -26 30q-8 0 -20 -5q-22 21 -22 49.5t19.5 48t55 19.5t56.5 -23.5t21 -63.5q0 -106 -112 -175l-33 36q61 43 61 84z" />
    <glyph glyph-name="quotedblbase" unicode="&#x201e;" horiz-adv-x="395" 
d="M275 -15q0 30 -26 30q-8 0 -20 -5q-22 21 -22 49.5t19.5 48t55 19.5t56.5 -23.5t21 -63.5q0 -106 -112 -175l-33 36q61 43 61 84zM97 -15q0 30 -26 30q-8 0 -20 -5q-22 21 -22 49.5t19.5 48t55 19.5t56.5 -23.5t21 -63.5q0 -106 -112 -175l-33 36q61 43 61 84z" />
    <glyph glyph-name="dagger" unicode="&#x2020;" horiz-adv-x="517" 
d="M161 462.5q-34 -11.5 -49.5 -11.5t-28.5 14.5t-13 37t13 37t27.5 14.5t47.5 -12t73 -15q-3 22 -16.5 50t-13.5 46t16 35t39.5 17t41 -17.5t17.5 -35t-13.5 -46t-17.5 -49.5q28 2 63.5 14.5t54.5 12.5t32 -14.5t13 -37t-13 -37t-32.5 -14.5t-54.5 12.5t-63 15.5
q10 -42 40 -81l10 -13q-52 -258 -52 -385h-49q0 136 -53 383q41 42 50 95q-35 -4 -69 -15.5z" />
    <glyph glyph-name="daggerdbl" unicode="&#x2021;" horiz-adv-x="517" 
d="M285 473q5 -22 29 -54q-32 -41 -32 -87t20 -82l7 -12q-19 -20 -24 -55q26 3 59.5 18t54 15t34.5 -15.5t14 -40.5t-14 -40.5t-35 -15.5t-55 14.5t-59 17.5q4 -23 17.5 -53t13.5 -48.5t-17 -35t-41 -16.5t-40 16.5t-16 35t13.5 48.5t16.5 52q-35 -4 -67.5 -17.5t-49 -13.5
t-30.5 15.5t-14 40.5t14 40.5t30 15.5t47.5 -15t67.5 -18q-6 25 -27 55q31 45 31 94q0 24 -6.5 45.5t-13.5 31.5l-7 10q18 19 23 54q-34 -4 -66 -18t-48 -14t-30.5 16t-14.5 40.5t14.5 40.5t30 16t47.5 -14.5t69 -17.5q-3 23 -16.5 53t-13.5 48.5t16 35t40 16.5t41 -17
t17 -35.5t-13.5 -48.5t-17.5 -52q26 3 60 17.5t54 14.5t34.5 -16t14.5 -40.5t-14.5 -40.5t-34.5 -16t-53.5 14t-59.5 18z" />
    <glyph glyph-name="bullet" unicode="&#x2022;" horiz-adv-x="443" 
d="M222 148q-58 0 -89 38t-31 102t31 101.5t89 37.5t88.5 -38t30.5 -102.5t-30.5 -101.5t-88.5 -37z" />
    <glyph glyph-name="ellipsis" unicode="&#x2026;" horiz-adv-x="772" 
d="M155 149q70 0 70 -76.5t-70 -76.5q-35 0 -52.5 20.5t-17.5 55.5q0 77 70 77zM387 149q70 0 70 -76.5t-70 -76.5q-35 0 -52.5 20.5t-17.5 55.5q0 77 70 77zM619 149q70 0 70 -76.5t-70 -76.5q-35 0 -52.5 20.5t-17.5 55.5q0 77 70 77z" />
    <glyph glyph-name="perthousand" unicode="&#x2030;" horiz-adv-x="1380" 
d="M227 296q32 0 46.5 38.5t14.5 127.5t-14.5 128t-46.5 39t-46 -38.5t-14 -128.5t14 -128t46 -38zM227 253q-80 0 -122.5 54t-42.5 154.5t42.5 154t122.5 53.5t122.5 -53.5t42.5 -154t-42.5 -154.5t-122.5 -54zM749 33q32 0 46.5 38.5t14.5 127.5t-14.5 128t-46.5 39
t-46 -38.5t-14 -128.5t14 -128t46 -38zM749 -10q-80 0 -122.5 54t-42.5 154.5t42.5 154t122.5 53.5t122.5 -53.5t42.5 -154t-42.5 -154.5t-122.5 -54zM360 -30l-66 32l321 682l66 -32zM1141 33q32 0 46.5 38.5t14.5 127.5t-14.5 128t-46.5 39t-46 -38.5t-14 -128.5t14 -128
t46 -38zM1141 -10q-80 0 -122.5 54t-42.5 154.5t42.5 154t122.5 53.5t122.5 -53.5t42.5 -154t-42.5 -154.5t-122.5 -54z" />
    <glyph glyph-name="minute" unicode="&#x2032;" horiz-adv-x="251" 
d="M167 703q39 0 39 -33q0 -11 -4 -23q-10 -25 -76 -147l-21 -40h-52q29 156 39.5 185t31 43.5t43.5 14.5z" />
    <glyph glyph-name="second" unicode="&#x2033;" horiz-adv-x="422" 
d="M167 703q39 0 39 -33q0 -11 -4 -23q-10 -25 -76 -147l-21 -40h-52q29 156 39.5 185t31 43.5t43.5 14.5zM341 703q39 0 39 -33q0 -11 -4 -23q-10 -25 -76 -147l-21 -40h-52q29 156 39.5 185t31 43.5t43.5 14.5z" />
    <glyph glyph-name="guilsinglleft" unicode="&#x2039;" horiz-adv-x="321" 
d="M172 240l97 -185l-31 -24l-190 191v36l190 192l31 -24z" />
    <glyph glyph-name="guilsinglright" unicode="&#x203a;" horiz-adv-x="321" 
d="M68 55l97 185l-97 186l31 24l190 -192v-36l-190 -191z" />
    <glyph glyph-name="exclamdbl" unicode="&#x203c;" horiz-adv-x="619" 
d="M122 405q0 157 -27 250q6 13 24.5 24t43.5 11q51 0 71.5 -22t20.5 -60t-25 -179.5t-30 -206.5l-85 -16q7 178 7 199zM75 61q0 70 79.5 70t79.5 -70t-79.5 -70t-79.5 70zM406 405q0 157 -27 250q6 13 24.5 24t43.5 11q51 0 71.5 -22t20.5 -60t-25 -179.5t-30 -206.5
l-85 -16q7 178 7 199zM359 61q0 70 79.5 70t79.5 -70t-79.5 -70t-79.5 70z" />
    <glyph glyph-name="uni203E" unicode="&#x203e;" horiz-adv-x="371" 
d="M371 680h-371v74h371v-74z" />
    <glyph glyph-name="fraction" unicode="&#x2044;" horiz-adv-x="121" 
d="M-69 -30l-66 32l321 682l66 -32z" />
    <glyph glyph-name="nsuperior" unicode="&#x207f;" horiz-adv-x="420" 
d="M409 292v-61h-386v61h386zM255 562q0 55 -33 55q-28 0 -51 -33v-188q15 -9 41 -15l-4 -36h-185l3 37q23 5 35 14v182q0 19 -9.5 26.5t-33.5 8.5l3 37l28 4q30 6 57.5 11t37.5 8l19 -9l4 -25q37 34 88.5 34t81 -28t29.5 -77v-172q17 -10 43 -15l-4 -36h-185l3 36
q21 5 32 15v166z" />
    <glyph glyph-name="franc" unicode="&#x20a3;" horiz-adv-x="551" 
d="M99 197v404q-24 21 -61 29l3 37h477l9 -165q-25 -7 -42 -7t-33 4q-15 69 -43 107h-163v-237l93 7q18 2 33.5 20t22.5 47h52v-207h-52q-14 40 -27 56t-30 18l-92 8v-121h82l6 -46l-8 -14h-80v-66q23 -21 75 -32l-7 -39h-276l4 41q39 6 57 25v71h-62l-9 50l11 10h60z" />
    <glyph glyph-name="lira" unicode="&#x20a4;" horiz-adv-x="556" 
d="M115 468q0 100 60.5 153.5t171.5 53.5q70 0 123.5 -30t53.5 -88q0 -31 -21.5 -50.5t-50.5 -19.5q-54 0 -66 33q18 24 18 47.5t-16 38.5t-44 15q-95 0 -95 -145q0 -34 7 -79h145l6 -46l-8 -14h-131l9 -42h134l6 -46l-8 -14h-125q2 -12 2 -47t-15 -76q68 -36 122 -36t54 67
v18q37 -1 61.5 -21t24.5 -57q0 -90 -128 -90q-39 0 -74 13.5t-92 45.5q-46 -61 -124 -61q-41 0 -68 20t-27 57.5t29 62.5t74 25q18 0 55 -7q-4 35 -16 86h-102l-9 50l11 10h84q-8 28 -11 42h-85l-9 50l11 10h69q-6 35 -6 71zM101 71q0 -23 28.5 -23t45.5 40q-25 9 -42 9
q-32 0 -32 -26z" />
    <glyph glyph-name="peseta" unicode="&#x20a7;" horiz-adv-x="1187" 
d="M957 448q-29 0 -47 -19t-18 -47.5t24 -47t92 -42.5q135 -48 135 -150q0 -71 -54 -110.5t-151 -39.5q-54 0 -128 28q-48 -24 -102 -24t-88 29t-34 88v302h-25q-41 -135 -250 -135q-22 0 -64 3v-212q21 -21 75 -32l-7 -39h-276l4 41q34 7 57 30v525q-19 18 -61 32l4 39h282
q243 0 246 -181q60 37 93 98h65v-106h126q42 15 109.5 15t121 -27.5t53.5 -64.5t-19.5 -58t-57.5 -21t-62 33q20 22 20 44.5t-17 35.5t-46 13zM940 42q30 0 50 19t20 48q0 57 -87.5 86.5t-124 67.5t-36.5 96q0 31 13 56h-47v-294q0 -53 48 -53q36 0 72 25q27 -51 92 -51z
M416 479q0 61 -27 94t-72 33t-70 -4v-259h65q104 0 104 136z" />
    <glyph glyph-name="Euro" unicode="&#x20ac;" horiz-adv-x="640" 
d="M93 337h-57l-9 50l11 10h58q13 138 85.5 207.5t198.5 69.5q91 0 148 -37t57 -95q0 -36 -23 -61t-52 -25t-50.5 13t-31.5 33q16 27 16 55t-18.5 46t-49.5 18q-106 0 -117 -224h148l6 -46l-8 -14h-147v-42h139l6 -46l-8 -14h-134q17 -191 115 -191q31 0 49.5 18t18.5 46
t-16 55q10 20 31.5 33t50.5 13t52 -25t23 -61q0 -58 -57 -95t-148 -37q-240 0 -280 244h-54l-9 50l11 10h46q-1 12 -1 42z" />
    <glyph glyph-name="afii61248" unicode="&#x2105;" horiz-adv-x="780" 
d="M328 396q-53 -55 -134 -55t-123 41t-42 122.5t42 124.5t124 43q55 0 89.5 -20t34.5 -47t-17.5 -41.5t-39.5 -14.5t-37.5 10t-20.5 24q9 13 9 23.5t-7 16.5t-17 6q-45 0 -45 -118q0 -65 15.5 -92.5t53 -27.5t80.5 38zM534 163q0 -63 12.5 -90.5t41 -27.5t41 27.5t12.5 90
t-12.5 90t-41 27.5t-41 -27t-12.5 -90zM419 163q0 166 168.5 166t168.5 -166.5t-168 -166.5q-84 0 -126.5 43t-42.5 124zM248 -29l-58 26l317 684l58 -26z" />
    <glyph glyph-name="afii61289" unicode="&#x2113;" horiz-adv-x="565" 
d="M303.5 7.5q-33.5 -14.5 -63 -14.5t-46.5 6.5t-27.5 21.5t-16.5 28.5t-8 40.5q-4 38 -4 95q-3 -4 -31.5 -27.5t-43.5 -34.5l-29 37q55 38 104 88q5 257 51.5 381.5t138.5 124.5q77 0 77 -124q0 -164 -187 -364q-1 -20 -1 -86t8 -95.5t41 -29.5t99 53l31 -36
q-27 -24 -43 -37t-49.5 -27.5zM326 615q0 72 -21 72q-18 0 -42.5 -62t-32 -141t-10.5 -139q106 155 106 270z" />
    <glyph glyph-name="afii61352" unicode="&#x2116;" horiz-adv-x="1048" 
d="M555 0h-152l-224 462v-391q23 -21 75 -32l-7 -39h-216l4 41q33 6 57 30v525q-21 18 -61 32l4 39h197l236 -507v436q-26 22 -69 30l5 41h218l-6 -39q-39 -12 -61 -32v-596zM633 506q0 166 168.5 166t168.5 -166.5t-168 -166.5q-84 0 -126.5 42.5t-42.5 124.5zM748 506
q0 -63 12.5 -90.5t41 -27.5t41 27.5t12.5 90t-12.5 90t-41 27.5t-41 -27t-12.5 -90zM971 292v-61h-336v61h336z" />
    <glyph glyph-name="trademark" unicode="&#x2122;" horiz-adv-x="684" 
d="M670 375l-3 -18h-126l2 19q16 4 26 14v202l-75 -235h-36l-83 222v-189q10 -9 35 -15l-3 -18h-100l2 19q16 4 27 14v242q-10 9 -29 15l2 18h105l75 -207l64 207h114l-3 -18q-16 -5 -29 -15v-242q10 -9 35 -15zM141 665l131 2v-87q-5 -1 -15.5 -1t-16.5 1q-3 32 -17 53
q-16 2 -47 4v-247q11 -10 34 -14l-3 -19h-134l2 19q21 3 33 14v246q-5 0 -47 -3q-15 -18 -17 -53q-5 -1 -16 -1t-16 1v87q68 -2 129 -2z" />
    <glyph glyph-name="Omega" unicode="&#x2126;" horiz-adv-x="721" 
d="M357 627q-64 0 -100 -62t-36 -172t33.5 -198.5t88.5 -146.5l-4 -48h-313v160q15 6 32.5 6t29.5 -2q3 -20 12.5 -50t20.5 -47l125 -19q-85 53 -137.5 140.5t-52.5 186.5q0 145 82.5 224t218.5 79t218.5 -79t82.5 -224q0 -99 -52.5 -186.5t-137.5 -140.5l125 19
q11 17 20.5 47t12.5 50q12 2 29.5 2t32.5 -6v-160h-313l-4 48q55 58 88.5 146.5t33.5 198.5t-36 172t-100 62z" />
    <glyph glyph-name="estimated" unicode="&#x212e;" horiz-adv-x="848" 
d="M211 316v-183q87 -98 230 -98q74 0 128 24.5t98 77.5h76v-28q-110 -116 -310 -116q-160 0 -271.5 95t-111.5 246.5t112 245t278 93.5t272 -99t106 -258h-607zM663 360v169q-54 55 -104 78.5t-123 23.5t-123.5 -24t-101.5 -78v-169h452z" />
    <glyph glyph-name="oneeighth" unicode="&#x215b;" horiz-adv-x="933" 
d="M926 310q0 -25 -18 -49t-47 -40q81 -39 81 -100t-45 -94.5t-124.5 -33.5t-125 30.5t-45.5 88t71 104.5q-58 33 -58 86t42.5 82.5t113 29.5t113 -28t42.5 -76zM744 187q-36 -27 -36 -66t18 -58t49.5 -19t49 18.5t17.5 44t-16 40t-32.5 21.5t-49.5 19zM716 310
q0 -32 73 -60q34 21 34 60q0 23 -14.5 37.5t-39 14.5t-39 -14t-14.5 -38zM207 591h-89v45q98 5 169 33l25 -10v-347q32 -13 84 -16l-3 -39h-278l2 38q61 6 90 18v278zM362 -30l-66 32l321 682l66 -32z" />
    <glyph glyph-name="threeeighths" unicode="&#x215c;" horiz-adv-x="965" 
d="M362 -30l-66 32l321 682l66 -32zM926 310q0 -25 -18 -49t-47 -40q81 -39 81 -100t-45 -94.5t-124.5 -33.5t-125 30.5t-45.5 88t71 104.5q-58 33 -58 86t42.5 82.5t113 29.5t113 -28t42.5 -76zM744 187q-36 -27 -36 -66t18 -58t49.5 -19t49 18.5t17.5 44t-16 40
t-32.5 21.5t-49.5 19zM716 310q0 -32 73 -60q34 21 34 60q0 23 -14.5 37.5t-39 14.5t-39 -14t-14.5 -38zM147 448v47q98 8 98 71t-42 63q-22 0 -33.5 -14t-11.5 -33.5t10 -36.5q-22 -22 -51 -22t-45 16t-16 40q0 46 48 70.5t109 24.5t103 -30t42 -77q0 -66 -73 -94
q46 -12 65 -37t19 -65q0 -57 -51.5 -88t-116 -31t-107 23.5t-42.5 64.5q0 25 15.5 38.5t39 13.5t51.5 -20q-8 -15 -8 -29q0 -38 49 -38q54 0 54 66q0 37 -28 57t-78 20z" />
    <glyph glyph-name="fiveeighths" unicode="&#x215d;" horiz-adv-x="976" 
d="M240 518q68 0 110.5 -33t42.5 -94.5t-45 -100t-114.5 -38.5t-111.5 24t-42 61q0 27 15.5 41t40 14t49.5 -20q-7 -14 -7 -29.5t12 -27t37 -11.5q57 0 57 81t-66 81q-38 0 -84 -26l-40 35q1 10 18 176l24 17h204l22 -15l-7 -53h-165l-8 -89q35 7 58 7zM926 310
q0 -25 -18 -49t-47 -40q81 -39 81 -100t-45 -94.5t-124.5 -33.5t-125 30.5t-45.5 88t71 104.5q-58 33 -58 86t42.5 82.5t113 29.5t113 -28t42.5 -76zM744 187q-36 -27 -36 -66t18 -58t49.5 -19t49 18.5t17.5 44t-16 40t-32.5 21.5t-49.5 19zM716 310q0 -32 73 -60
q34 21 34 60q0 23 -14.5 37.5t-39 14.5t-39 -14t-14.5 -38zM362 -30l-66 32l321 682l66 -32z" />
    <glyph glyph-name="seveneighths" unicode="&#x215e;" horiz-adv-x="981" 
d="M926 310q0 -25 -18 -49t-47 -40q81 -39 81 -100t-45 -94.5t-124.5 -33.5t-125 30.5t-45.5 88t71 104.5q-58 33 -58 86t42.5 82.5t113 29.5t113 -28t42.5 -76zM744 187q-36 -27 -36 -66t18 -58t49.5 -19t49 18.5t17.5 44t-16 40t-32.5 21.5t-49.5 19zM716 310
q0 -32 73 -60q34 21 34 60q0 23 -14.5 37.5t-39 14.5t-39 -14t-14.5 -38zM362 -30l-66 32l321 682l66 -32zM160 544q-19 0 -31 2q-1 9 -5 32q-13 73 -13 77l14 13q21 0 34 -1h201q17 1 49 1l21 -36l-156 -371h-100l148 344h-123q-6 -21 -8 -59q-12 -2 -31 -2z" />
    <glyph glyph-name="arrowleft" unicode="&#x2190;" horiz-adv-x="800" 
d="M83 374v6l205 84l-80 -70l508 17v-6l-40 -28l40 -28v-6l-508 17l80 -70z" />
    <glyph glyph-name="arrowup" unicode="&#x2191;" horiz-adv-x="300" 
d="M147 662h6l84 -205l-70 80l17 -508h-6l-28 40l-28 -40h-6l17 508l-70 -80z" />
    <glyph glyph-name="arrowright" unicode="&#x2192;" horiz-adv-x="800" 
d="M716 380v-6l-205 -84l80 70l-508 -17v6l40 28l-40 28v6l508 -17l-80 70z" />
    <glyph glyph-name="arrowdown" unicode="&#x2193;" horiz-adv-x="300" 
d="M153 28h-6l-84 205l70 -80l-17 508h6l28 -40l28 40h6l-17 -508l70 80z" />
    <glyph glyph-name="arrowboth" unicode="&#x2194;" horiz-adv-x="800" 
d="M771 380v-6l-205 -84l69 60l-236 10l-235 -10l69 -60l-205 84v6l205 84l-69 -61l235 -9l236 9l-69 61z" />
    <glyph glyph-name="arrowupdn" unicode="&#x2195;" horiz-adv-x="300" 
d="M147 758h6l84 -205l-60 69l-10 -236l10 -235l60 69l-84 -205h-6l-84 205l61 -69l9 235l-9 236l-61 -69z" />
    <glyph glyph-name="arrowupdnbse" unicode="&#x21a8;" horiz-adv-x="300" 
d="M149 758h6l84 -205l-60 69l-10 -236l10 -235l60 69l-84 -205h-6l-84 205l61 -69l9 235l-9 236l-61 -69zM28 -117v54h244v-54h-244z" />
    <glyph glyph-name="partialdiff" unicode="&#x2202;" horiz-adv-x="591" 
d="M546 250q0 -125 -63.5 -191t-176 -66t-179.5 55t-67 144.5t57.5 143.5t157.5 54q53 0 107 -16q-44 172 -240 256l24 50q185 -52 282.5 -162.5t97.5 -267.5zM394 273l-1 30q-47 17 -92 17t-70.5 -34.5t-25.5 -96t23 -94.5t70 -33q96 0 96 211z" />
    <glyph glyph-name="Delta" unicode="&#x2206;" horiz-adv-x="642" 
d="M2 0l246 667h140l251 -667h-637zM300 458l-140 -395h284z" />
    <glyph glyph-name="product" unicode="&#x220f;" horiz-adv-x="836" 
d="M523 602h-216v-531q23 -21 75 -32l-7 -39h-296l4 41q47 7 77 30v526q-22 19 -85 31l4 39h682l-6 -39q-60 -10 -85 -32v-525q22 -21 77 -32l-7 -39h-298l4 41q47 7 77 30v531z" />
    <glyph glyph-name="summation" unicode="&#x2211;" horiz-adv-x="731" 
d="M297 606l149 -262l-160 -278h218q30 46 44 123q21 3 39.5 3t34.5 -3l-11 -189h-493v39l174 304l-157 276l21 48h442l4 -165q-23 -7 -37.5 -7t-36.5 4q-15 69 -43 107h-188z" />
    <glyph glyph-name="minus" unicode="&#x2212;" 
d="M60 238v95h469v-95h-469z" />
    <glyph glyph-name="uni2215" unicode="&#x2215;" 
d="M177 -46l-71 34l314 712l74 -28z" />
    <glyph glyph-name="uni2219" unicode="&#x2219;" horiz-adv-x="294" 
d="M146 408q70 0 70 -76.5t-70 -76.5q-35 0 -52.5 20.5t-17.5 55.5q0 77 70 77z" />
    <glyph glyph-name="radical" unicode="&#x221a;" horiz-adv-x="766" 
d="M764 769v-60l-144 -9l-201 -741h-113l-124 325l-114 -33l-22 64l239 79l71 -195l148 570h260z" />
    <glyph glyph-name="infinity" unicode="&#x221e;" horiz-adv-x="869" 
d="M579 132q-111 0 -180 83q-63 -83 -139 -83t-126 41.5t-50 107t54.5 107.5t132.5 42q97 0 170 -79q70 79 156 79q72 0 121 -43t49 -107t-55 -106t-133 -42zM581 379q-58 0 -111 -65q36 -74 58 -102.5t56 -28.5t53.5 28t19.5 69.5t-21.5 70t-54.5 28.5zM215 211.5
q22 -28.5 52 -28.5t53.5 19t50.5 55q-24 64 -48 93t-57 29t-53 -27.5t-20 -69.5t22 -70.5z" />
    <glyph glyph-name="orthogonal" unicode="&#x221f;" horiz-adv-x="720" 
d="M65 0v666h100v-571h530v-95h-630z" />
    <glyph glyph-name="intersection" unicode="&#x2229;" horiz-adv-x="759" 
d="M70 0v396q0 127 83.5 202t225 75t226 -75t84.5 -202v-396h-100v396q0 97 -56.5 151.5t-154 54.5t-153 -54.5t-55.5 -151.5v-396h-100z" />
    <glyph glyph-name="integral" unicode="&#x222b;" horiz-adv-x="425" 
d="M384 761l-44 1q-8 1 -15 1q-26 0 -38 -20.5t-12 -71.5v-664q0 -152 -239 -181l-13 60l28 6q79 12 79 107v652q0 79 48 128.5t138 49.5q28 0 85 -12z" />
    <glyph glyph-name="approxequal" unicode="&#x2248;" 
d="M142 448.5q30 13.5 62 13.5t99.5 -26t97.5 -26t55.5 10.5t37.5 21.5l12 10v-94q-47 -43 -94.5 -43t-113.5 26t-94.5 26t-57 -12t-44.5 -24l-16 -12v95q6 5 16 13t40 21.5zM142 264.5q30 13.5 62 13.5t99.5 -26t97.5 -26t55.5 10.5t37.5 21.5l12 10v-94q-47 -43 -94.5 -43
t-113.5 26t-94.5 26t-57 -12t-44.5 -24l-16 -12v95q6 5 16 13t40 21.5z" />
    <glyph glyph-name="notequal" unicode="&#x2260;" 
d="M536 427v-95h-181l-61 -92h242v-95h-305l-69 -105l-66 44l40 61h-69v95h132l61 92h-193v95h256l72 109l66 -44l-43 -65h118z" />
    <glyph glyph-name="equivalence" unicode="&#x2261;" 
d="M61 204v95h469v-95h-469zM61 361v95h469v-95h-469zM61 47v95h469v-95h-469z" />
    <glyph glyph-name="lessequal" unicode="&#x2264;" 
d="M54 294v127l462 175l34 -93l-401 -146l401 -145l-34 -93zM58 0v95h489v-95h-489z" />
    <glyph glyph-name="greaterequal" unicode="&#x2265;" 
d="M546 95v-95h-489v95h489zM550 421v-127l-462 -175l-34 93l401 145l-401 146l34 93z" />
    <glyph glyph-name="house" unicode="&#x2302;" horiz-adv-x="758" 
d="M70 0v379l309 309l309 -309v-379h-618zM170 85h418v254l-209 209l-209 -209v-254z" />
    <glyph glyph-name="revlogicalnot" unicode="&#x2310;" 
d="M526 422v-95h-377v-206h-100v301h477z" />
    <glyph glyph-name="integraltp" unicode="&#x2320;" horiz-adv-x="392" 
d="M352 761l-44 1q-8 1 -16 1q-26 0 -38 -21t-12 -71v-889h-145v869q0 79 48 128.5t138 49.5q28 0 85 -12z" />
    <glyph glyph-name="integralbt" unicode="&#x2321;" horiz-adv-x="372" 
d="M130 772h145v-765q0 -152 -238 -181l-14 61q107 18 107 112v773z" />
    <glyph glyph-name="commaaccent" unicode="&#xf6c3;" horiz-adv-x="205" 
d="M55 -198q19 52 19 87.5t-24 55.5q17 26 49 26t48.5 -14.5t16.5 -36.5q0 -57 -61 -138z" />
    <glyph glyph-name="fi" unicode="&#xfb01;" horiz-adv-x="641" 
d="M530 550h-103q-13 66 -37.5 93.5t-72 27.5t-78.5 -23t-31 -60q0 -16 10 -54.5t10 -55.5h332v-412q21 -19 64 -27l-4 -39h-257l4 41q33 6 52 25v288q0 34 -16 47.5t-56 13.5h-119v-353q23 -17 86 -28l-3 -34h-294l4 36q44 6 66 26v353h-79l-5 40q51 8 84 23v44
q0 81 68.5 134t182.5 53t192 -42v-117z" />
    <glyph glyph-name="fl" unicode="&#xfb02;" horiz-adv-x="634" 
d="M338 478v-63h-110v-353q26 -18 86 -28l-3 -34h-294l4 36q41 6 66 26v353h-79l-5 40q51 8 84 23v44q0 82 70 134.5t180 52.5q31 0 78 -7.5t71 -7.5t47 3l18 -10v-621q23 -19 63 -27l-3 -39h-258l4 41q33 7 52 25v512q0 92 -78 92q-58 0 -90.5 -21.5t-32.5 -60.5
q0 -16 10 -54.5t10 -55.5h110z" />
    </font>
</defs>
</svg>
